<svg xmlns="http://www.w3.org/2000/svg" width="1919.999" height="1428.788" viewBox="0 0 1919.999 1428.788">
  <g id="Group_50" data-name="Group 50" transform="translate(-4639 4366.794)" opacity="0.223">
    <g id="Group_49" data-name="Group 49" transform="translate(4639 -4366.794)">
      <path id="Path_968" data-name="Path 968" d="M941.363-141.575c-10.874,9.392-21.691,18.852-32.628,28.163-11.73,9.979-23.561,19.828-35.366,29.714Q827.308-45.159,781.246-6.62c-20.5,17.233-40.618,34.935-61.34,51.9-13.019,10.655-27.069,20.028-40.225,30.52C666.3,86.466,653.5,97.871,640.345,108.826A372.7,372.7,0,0,0,588.8,161.394c-11.511,14.263-23.461,28.182-35.522,41.988a31.2,31.2,0,0,1-12.675,8.391c2.488-3.12,4.809-6.4,7.5-9.336,5.459-5.934,11.374-11.468,16.658-17.552,11.417-13.15,22.76-26.374,33.759-39.874,18.752-23.023,40.244-43.251,62.51-62.772,5.153-4.521,8.954-10.555,13.644-15.645,2.12-2.3,4.94-3.933,7.347-5.984,11.487-9.773,22.841-19.709,34.447-29.332,7.8-6.472,16.013-12.424,23.917-18.771C762.6-5.319,784.667-23.334,806.951-41.08c18.515-14.757,37.5-28.932,55.838-43.908,19.759-16.132,39.03-32.865,58.458-49.4,6.8-5.79,13.412-11.787,20.116-17.689Z" transform="translate(978.636 1100.499)"/>
      <path id="Path_969" data-name="Path 969" d="M901.131-140.257c-10.53,9.092-20.991,18.264-31.6,27.262-12.293,10.436-24.742,20.672-37.067,31.077q-22.388,18.9-44.677,37.924-16.714,14.21-33.428,28.419C737.113-.9,720.055,14.02,702.547,28.383,692.2,36.868,680.868,44.14,670.457,52.556c-17.6,14.231-34.716,29.044-52.23,43.382-9.629,7.885-20.1,14.776-29.376,23.029-12.737,11.336-24.686,23.548-37,35.354a10.48,10.48,0,0,1-2.251,1.269l-1.332-1.451c10.236-11,19.772-22.785,30.858-32.859C602.633,99.934,627.063,79.6,650.9,58.609c10.749-9.467,20.541-20.04,31.558-29.163,18.571-15.369,37.911-29.807,56.67-44.964,17.521-14.156,34.665-28.782,52.049-43.113,8.429-6.953,17.083-13.644,25.543-20.566,20.959-17.152,41.844-34.4,62.822-51.542,7.1-5.8,14.388-11.355,21.591-17.02Z" transform="translate(1018.868 1123.192)"/>
      <path id="Path_970" data-name="Path 970" d="M911.758-134.916c-4.652,3.564-9.473,6.928-13.926,10.73-20.184,17.252-40.174,34.735-60.4,51.936-16.207,13.775-32.659,27.269-49,40.881-19.99,16.658-39.9,33.415-60,49.935-30.138,24.768-60.49,49.266-90.61,74.059q-37.32,30.717-74.215,61.934c-6.365,5.415-11.605,12.143-17.358,18.271,14.219-19.615,29.175-38.336,48.747-53.281,14.939-11.405,28.132-25.061,42.432-37.323,11.462-9.823,23.561-18.884,35.128-28.576,25.549-21.4,50.817-43.12,76.441-64.417C763.1-22.49,777.8-33.514,792.084-45.031c13.281-10.711,26.412-21.6,39.531-32.5q34.619-28.747,69.15-57.6c3.608-3,7.322-5.865,10.993-8.791Z" transform="translate(1008.242 1143.363)"/>
      <path id="Path_971" data-name="Path 971" d="M555.748,15.441c-.581-1.688-.606-2.664-1.1-3.045-5.965-4.683-12.975-8.441-14.156-17.139-.088-.644-1.451-1.444-2.32-1.594-9.542-1.651-19.071-3.577-28.688-4.471-2.232-.206-5.453,2.751-7.066,5.059-2.639,3.77-4.327,8.2-7.178,13.881C512.828,22.319,534.6,14.366,555.748,15.441ZM654.68,515.75l-.619-1.945c-4.152,3.47-9.629,6.172-12.174,10.567-4.7,8.122-16.207,11.855-15.269,23.448.169,2.057.362,4.533,1.569,5.909.663.757,4.515.225,5.109-.788a13.675,13.675,0,0,0,1.5-7.341c-.088-1.563-1.769-3.039-2.739-4.552l1.345-1.776,11.243,5.946q9.135-10.411,18.4-20.972l-5.083-.825,4.765-5.3ZM765.424,87.211c-14.069-2-14.5,14.056-24.962,16l1.488,2.589,19.027-9.761ZM721.811-83.96c-5.227-1.007-9.273-2.139-13.362-2.37-1.357-.081-3.057,1.995-4.139,3.433-.331.438.882,2.957,1.4,2.964C710.943-79.883,717-76.457,721.811-83.96Zm334.727-158.522c1.013-3.583,2.026-6.078,2.339-8.66.213-1.763-.062-4.046-1.088-5.309-.607-.75-3.939-.588-4.552.25-1.045,1.432-1,3.708-1.232,5.653-.163,1.407-.031,2.845-.031,5.471ZM751.512,190.127l-3.97-5.227c-1.238,2.883-2.839,5.684-3.5,8.691-.225,1.032,1.907,2.582,2.964,3.889ZM896.334-16.667l-.362-2.37c-1.576-.181-3.627-1.1-4.665-.438-7.272,4.646-1.032,11.537-2.138,17.3,1.494-2.864,2.87-6.19,2.082-8.885C889.831-15.9,891.219-17.361,896.334-16.667Zm149.681-231.261.075-2.213c-5.94-.094-11.887-.294-17.815-.1-.519.019-.957,2.633-1.351,3.808ZM986.1-217.784l4.377-7.791-12.656,1.132.457,1.707ZM802.616,285.889l-3.377-2.482c-1.157,2.045-3.308,4.146-3.208,6.128.113,2.12,2.351,4.121,3.664,6.178l2.257-.55ZM709.505,51.827l1.814-1.42c-.938-1.588-1.644-4.289-2.858-4.546-2.595-.544-5.458.181-8.21.381l-.063,2.489Zm-8.278,449.8c1.131-4.033,2.263-8.06,3.689-13.131C697.518,491.664,700.12,496.979,701.227,501.631Z" transform="translate(740.336 549.729)" fill="#fff"/>
      <path id="Path_972" data-name="Path 972" d="M408.519-81.707c5,1.651,9.542,2.314,13.093,4.546,4.352,2.733,7.428,7.61,11.88,10.036,4.389,2.382,9.811,2.858,14.782,4.171-3.051,10.392-4.414,10.867-14.131,7.566C421.819-59.572,411.1-65.137,408.519-81.707Z" transform="translate(284.809 1470.158)"/>
      <path id="Path_973" data-name="Path 973" d="M418.416-55.592c2.945-13.781,20.547-32.827,29.151-32.252C438.044-77.308,428.915-67.2,418.416-55.592Z" transform="translate(336.797 1437.853)"/>
      <path id="Path_974" data-name="Path 974" d="M370.062-81.448c-4.083,3.289-8.047,6.741-12.337,9.723-.807.557-2.908-.757-4.414-1.2.55-1.488.675-3.764,1.726-4.333,4.4-2.395,9.073-4.277,13.644-6.347Z" transform="translate(-5.19 1460.188)"/>
      <path id="Path_975" data-name="Path 975" d="M358.685-78.908c2.539,3.77,4.608,6.3,4.358,6.565a94.382,94.382,0,0,1-7.954,6.8c-1.044-1.369-3.258-3.3-2.92-4.014C353.463-72.292,355.577-74.637,358.685-78.908Z" transform="translate(-11.37 1484.86)"/>
      <path id="Path_976" data-name="Path 976" d="M350.364-75.26l9.63-5.6,1.757,2.357c-2.476,2.02-4.79,4.3-7.5,5.915-.982.594-2.9-.375-4.39-.632Z" transform="translate(-23.296 1474.591)"/>
      <path id="Path_977" data-name="Path 977" d="M560.428-77.451q-7.569,6.293-15.126,12.593l-2.677-3.076q7.307-6.519,14.619-13.031Z" transform="translate(989.253 1474.056)"/>
      <path id="Path_978" data-name="Path 978" d="M558.8-77.66c-2.007,9.5-11.1,8.948-14.957,15.032C541.713-68.587,547.909-74.552,558.8-77.66Z" transform="translate(993.442 1491.416)"/>
      <path id="Path_979" data-name="Path 979" d="M491.289,181.88c1.057-6.753,3.214-13.55,2.951-20.247-.669-17.051-1.87-33.94,5.615-50.092,1.013-2.195.256-5.709-.7-8.223-2.182-5.7.532-11.111,6.115-13.806,7.9-3.814,15.1-3.389,22.7,2.639,1.682-7.322,3.12-13.387,4.452-19.478,1.225-5.615,3.383-9.042,10.342-9.323,9.3-.375,18.546-3.839,27.8-3.77a406.531,406.531,0,0,1,50.1,3.3c8.054,1.069,15.57,5.878,23.48,8.548,2.733.919,5.921.475,8.9.657a57.011,57.011,0,0,0-.8-7.835c-.688-2.883-1.989-5.609-2.945-8.435-4.283-12.7-14.751-19.5-24.411-27.725-10.168-8.654-22.686-6.284-34.241-11.236,1.082-2.67,2.095-5.1,3.051-7.553,2.382-6.14,2.32-11.849.963-18.7-2.739-13.863-6.491-28.707,4.6-41.431.913-1.044,1.838-2.82,1.6-4.021-1.995-10.092,8.26-15.47,8.3-24.986l-3-1.688c4.821-4.152,6.928-8.173,2.383-13.713-.963-1.163.531-5.19,1.882-7.253,5.328-8.11,10.061-15.832,9.123-26.575-.575-6.59,2.288-13.7,4.608-20.222,1.082-3.058,4.521-5.271,7.353-8.366a54.55,54.55,0,0,0,2.576-7.3,20.947,20.947,0,0,0,.15-6.878c-.325-2.851-2.5-6.747-1.351-8.223,2-2.583,5.94-3.658,9.229-5.453l-4.177-8.466,7.284-2.851-1.532-2.388h-6.39l-.294-.869,29.082-11.937.138-2.17c3.158-.825,6.084-.944,8.285-2.27,12.262-7.378,24.73-8.11,38.155-3.189,4.521,1.663,9.992.725,15.032.975L727.96-221l-20.584-4.377.582-2.514c10.011-1.419,19.215,1.494,28.425,5.359,2.483,1.044,5.959.544,8.748-.163,4.508-1.138,8.673-3.5,9.967,4.008.313,1.82,4,3.051,6.134,4.552l1.77-1.82-3.227-5.052,20.647,1.838-3.7,5.7h11.155c0-2.626-.469-6.078.088-6.253,2.119-.656,4.564-.269,6.891-.269h8.522l-2.338,7.854,19.434,2.883c3.514,6.4,12.237,10.386,21.847,13.137,1.407.406,2.526,1.819,3.783,2.77,1.319.988,2.851,3.02,3.933,2.808,9.017-1.813,15.5,5.046,23.5,6.509.725.131,1.507.882,2.089.719,14.256-4.046,15.363,9.592,22.816,16.132l4.446-.738c-.963,5.846-12.537,3.258-8.1,12.5,4.953-1.1,8.836.031,9.236,6.928l-7.36-1.526.532,2.189c-2.976,1-6.222,1.551-8.847,3.126-2.239,1.344-3.777,3.864-5.628,5.865l2.163,2.751,11.418-4.252c3.8,6.459-1.313,13.15-2.939,19.884a61.031,61.031,0,0,1-6.847-2.72c-2.807-1.526-6.034-2.9-7.979-5.246-3.964-4.79-9.273-4.527-18.8,2.682l9.986,2.626c-.162,1.932-.338,4.02-.532,6.334-6.09-3.77-8.566,2.126-12.387,3.827a22.712,22.712,0,0,0-6.434,4.715c-2.463,2.439-4.533,5.278-6.784,7.935-1.895,2.232-3.446,5.809-5.772,6.428-7.028,1.863-14.369,2.532-21.572,3.783a28.23,28.23,0,0,0-5.9,1.719c-3.139,1.294-6.072,3.389-9.311,4.014-1.6.313-3.821-1.738-5.427-3.114-.257-.225,1.238-2.495,2.032-4.033-11.143-3-13.913,9.185-22.667,11.28q5.14-7.447,10.273-14.894L783.328-97.4l-15.707,11.33-1.276-.982,8.723-13.863c-9.379-11.005-18.421-1.269-27.588,1.351,2.776-10.255,13.137-11.6,20.96-15.863l-1.52-2.776c-3.664.838-7.4,1.432-10.98,2.557-6.615,2.082-13.018,4.921-19.715,6.641-10.918,2.8-20.322-8.06-22.529-16.345-.756-2.832-1.194-5.746-1.776-8.623l-2.426-.857c-1.532,2.814-3.533,5.471-4.5,8.466-2.157,6.734-3.527,13.669-12.424,15.013-1.307.2-2.138,3.57-3.7,6.378-4.321.575-5.471-1.951-3.564-6.6,1.607-3.914,3.9-7.591,5.09-11.611.819-2.77.275-5.947.337-8.941l-9,1.882c-4.345-18.821,4.44-30.67,23.355-37.223a4.852,4.852,0,0,1,4.077.719c7.91,7.16,17.033,6.478,26.624,5.052,2.92-.431,6.2,1.557,10.43,2.745-4.7-10.592-14.557-5.19-21.754-8.323,6.315-7.353,13.675-5.953,20.741-5.665,1.989.081,4.584,1.113,5.847.219a104.6,104.6,0,0,0,12.874-10.986c.288-.288-2.295-3.7-3.751-5.484a42.619,42.619,0,0,0-3.946-3.777c1.807-.844,3.639-2.439,5.415-2.376,4.339.156,8.654,1.069,12.975,1.682l.444-2.77-27.425-4.614.237,5.4-1.2.794-4.615-8.2c-8.141,4.527-16.682,9.517-25.443,14.088-7.41,3.871-15.451,6.634-22.5,11.03-6.847,4.277-13.831,9.179-18.783,15.376-3.727,4.658-6.541,12.087-5.809,17.771,1.05,8.154-2.645,17.033,3.883,24.943,2.114,2.564.65,9.623-1.263,13.631-3.883,8.123-3.827,15.051.831,22.885,2.92,4.921,4.071,11,5.377,16.7.388,1.695-1.382,3.889-2.326,6.259l5.471,2.864c-4.6,10.517.744,19.721,1.794,29.013-1.313,5.152-2.645,10.417-4,15.676-1.645,6.4-2.689,13.044-5.109,19.14-3.464,8.716-3.745,17.014,1.307,24.9,4.139,6.453,9,12.449,13.587,18.621,7.278,9.786,13.018,20.722,11.886,32.827-.419,4.471-7.372,9.748-12.512,12.043-7.622,3.4-16.32,4.327-24.486,6.6-5.734,1.594-11.343,3.639-16.977,5.565-.919.313-2.2.869-2.445,1.607-2.27,6.753-8.479,9.142-13.475,13.1-4.9,3.883-8.592,9.3-14.194,15.6l6-14.507-13.319,2.407c-4.22-6.428-8.629-11.949-11.649-18.146-2.132-4.364-4.446-3.514-7.754-2.651-7.728,2-14.832,1.763-23.073-.6-11.743-3.364-24.7-4.014-37.023-3.427-10.53.5-14.9,10.023-17.6,19.159-3.827,12.931-6.966,25.949-4.808,39.781.544,3.483-1.007,8.779-3.552,10.911-4.458,3.739-4.777,12.293-13.006,11.605ZM770.735-168.967l-1.244,1.957c3.508,1.432,6.978,2.97,10.561,4.171.482.163,2.282-1.538,2.164-2.107-.238-1.157-1.213-2.845-2.157-3.039A80.769,80.769,0,0,0,770.735-168.967Z" transform="translate(718.637 700.341)"/>
      <path id="Path_980" data-name="Path 980" d="M555.748-191.312c-21.147-1.076-42.919,6.878-60.509-7.31,2.851-5.678,4.54-10.111,7.178-13.881,1.613-2.307,4.833-5.265,7.066-5.059,9.617.894,19.146,2.82,28.688,4.471.869.15,2.232.95,2.32,1.594,1.182,8.7,8.191,12.456,14.156,17.139C555.141-193.976,555.166-193,555.748-191.312Z" transform="translate(740.336 756.482)"/>
      <path id="Path_981" data-name="Path 981" d="M544.358-131.725l8.048,2.376-4.765,5.3,5.083.825q-9.257,10.542-18.4,20.972L523.08-108.2l-1.345,1.776c.969,1.513,2.651,2.989,2.739,4.552a13.675,13.675,0,0,1-1.5,7.341c-.594,1.013-4.446,1.544-5.109.788-1.207-1.376-1.4-3.852-1.569-5.909-.938-11.593,10.568-15.326,15.27-23.448,2.545-4.4,8.022-7.1,12.174-10.567Z" transform="translate(850.658 1197.204)"/>
      <path id="Path_982" data-name="Path 982" d="M559.418-201.749l-4.446,8.829-19.027,9.761-1.488-2.589C544.918-187.693,545.35-203.75,559.418-201.749Z" transform="translate(946.342 838.689)"/>
      <path id="Path_983" data-name="Path 983" d="M546.707-143.468l-11.1,13.031c-1.538-1.526-4.077-2.876-4.371-4.608-.419-2.439.825-5.165,1.169-6.841,4.984-.475,9.735-.932,14.494-1.382Z" transform="translate(928.984 1145.737)"/>
      <path id="Path_984" data-name="Path 984" d="M546.224-227.276c-4.808,7.5-10.867,4.077-16.1,4.027-.519-.006-1.732-2.526-1.4-2.964,1.082-1.438,2.782-3.514,4.139-3.433C536.951-229.415,541-228.283,546.224-227.276Z" transform="translate(915.923 693.045)"/>
      <path id="Path_985" data-name="Path 985" d="M588.883-242.482l-4.564-2.595c0-2.626-.131-4.064.031-5.471.231-1.945.188-4.221,1.232-5.653.613-.838,3.945-1,4.552-.25,1.025,1.263,1.3,3.546,1.088,5.309C590.909-248.56,589.9-246.065,588.883-242.482Z" transform="translate(1207.992 549.729)"/>
      <path id="Path_986" data-name="Path 986" d="M542.515-181.044l-4.508,7.353c-1.057-1.307-3.189-2.857-2.964-3.889.663-3.008,2.263-5.809,3.5-8.691Z" transform="translate(949.333 920.899)"/>
      <path id="Path_987" data-name="Path 987" d="M566.617-215.95c-5.115-.694-6.5.769-5.084,5.6.788,2.7-.588,6.021-2.082,8.885,1.107-5.759-5.133-12.649,2.138-17.3,1.038-.663,3.089.256,4.665.438Z" transform="translate(1070.053 749.011)"/>
      <path id="Path_988" data-name="Path 988" d="M574.1-230.4q-2.607-4.371-5.228-8.735L567.686-237l4.383-11.949,1.832-.213q0,9.473-.006,18.952Z" transform="translate(1120.889 590.527)"/>
      <path id="Path_989" data-name="Path 989" d="M599.36-253.48l-19.09,1.494c.394-1.175.832-3.789,1.351-3.808,5.928-.194,11.874.006,17.814.1Z" transform="translate(1186.991 555.28)"/>
      <path id="Path_990" data-name="Path 990" d="M580.7-244.126l-7.823-4.952-.456-1.707,12.656-1.132Z" transform="translate(1145.74 576.071)"/>
      <path id="Path_991" data-name="Path 991" d="M549.931-168.035l-.663,9.273-2.257.55c-1.313-2.057-3.552-4.058-3.664-6.178-.1-1.982,2.051-4.083,3.208-6.128Z" transform="translate(993.021 1003.653)"/>
      <path id="Path_992" data-name="Path 992" d="M537.333-202.375l-9.316-3.1.063-2.489c2.751-.2,5.615-.925,8.21-.381,1.213.256,1.92,2.958,2.858,4.546Z" transform="translate(912.508 803.93)"/>
      <path id="Path_993" data-name="Path 993" d="M529.323-124.586c-1.107-4.652-3.708-9.967,3.689-13.131C531.586-132.646,530.454-128.619,529.323-124.586Z" transform="translate(912.24 1175.946)"/>
      <path id="Path_994" data-name="Path 994" d="M456.185-106.016c-1.244-6.2-2.351-11.243-3.258-16.32-.919-5.121-2.77-8.191-8.373-10.792-5.39-2.507-9.742-8.91-12.693-14.563-3.308-6.34-7.159-8.135-13.75-6.678a118.3,118.3,0,0,1-18.164,2.67c-1.651.1-3.464-2.583-5.209-3.989,1.663-1.094,3.3-3.083,4.99-3.133,6.728-.213,7.547-4.477,6.147-9.223-2.37-8.022.225-12.387,7.216-17.133,12.318-8.366,24.849-11.349,39.443-8.717,4.215.763,9-2.1,13.594-2.889,3.552-.613,7.754-1.82,10.686-.538,4.258,1.863,6.522,1.882,9.367-2,3.22-4.4,7.6-6.215,13.031-2.983a7.05,7.05,0,0,0,4.933.544c5.922-1.582,10.961-.982,14.707,5.971l3.671-10.242c12.662,2.864,24.967,3.2,36.8-2.751,1.213-.613,3.227.25,4.84.582,5.971,1.238,11.905,3.433,17.908,3.62,12.168.388,24.4-.85,36.554-.319,5.915.256,11.643,3.47,17.6,4.5a235.327,235.327,0,0,0,28.694,3.614c5.834.281,10.636-.988,11.217,7.579.287,4.214,4.2,8.191,6.491,12.274,4.371,7.816,3.539,15.269-1.857,22.191-.888,1.144-2.814,1.732-4.371,2.07-9.41,2.051-19.009,3.427-28.206,6.172-3.358,1-5.384,5.853-8.717,7.691-6.878,3.808-14.225,6.766-21.722,10.236.275,1.082.638,2.226.844,3.4.482,2.726,2.013,7.291,1.1,7.854-2.676,1.657-6.9,3.189-9.511,2.17-14.913-5.809-32.471-4.152-45.246-15.851-6.359-5.828-12.112-12.449-19.021-17.508a143.146,143.146,0,0,0-24.5-14.094c-1.82-.844-7.61,2.288-8.423,4.671-3.2,9.367-11.386,13.556-18,19.378-8.748,7.71-17.665,15.238-26.575,22.773C464.907-112.813,461.218-110.025,456.185-106.016Z" transform="translate(212.42 801.527)"/>
      <path id="Path_995" data-name="Path 995" d="M434.357-187.943,445.387-189c-.369,4.064-.838,8.122-1.088,12.2-.269,4.364-1.25,9.017-.1,13.012.613,2.126,6.247,5.134,7.641,4.327,9.936-5.728,15.126,3.889,24.186,5.159-6.3,6.153-12.268,4.5-17.352,3.039-4.358-1.25-7.572-1.094-10.855,1.707-9.754,8.329-19.94,16.207-29.063,25.174-4.227,4.158-6.34,10.449-9.479,15.732-1.076,1.8-2.358,3.47-3.852,5.653-6.09-8.041-1.075-14.932.094-21.86,3.22-19.109,17.108-33.4,23.592-51.154C430.381-179.508,436.815-181.421,434.357-187.943Z" transform="translate(253.024 906.564)"/>
      <path id="Path_996" data-name="Path 996" d="M404.187-163.926c9.454.819,10.011,5.59,8.9,10.38-.344,1.488-3.945,2.22-6.052,3.3Z" transform="translate(262.054 1038.274)"/>
      <path id="Path_997" data-name="Path 997" d="M406.481-169.636h12.012l-.112,2.789-11.949-.8Z" transform="translate(273.841 1008.28)"/>
      <path id="Path_998" data-name="Path 998" d="M347.03-165.1c3.4,8.748,7.916,4.821,11.474,2.282,6.547-4.658,13.806-2.645,16.3,4.69.794,2.339,4.627,4.7,4.189,6.2-1.47,4.984-3.477,10.242-6.772,14.125-2.726,3.2-6.885,2.207-10.442-1.176-5.3-5.033-12.818-1.882-15.157,1.532-2.751,4.021-5.99,4.777-8.16,3.483-5.646-3.37-12.7-5.415-15.238-12.768-.807-2.326-2.514-4.333-4.239-7.216C329.591-153.044,339.42-155.47,347.03-165.1Z" transform="translate(-185.494 1030.968)"/>
      <path id="Path_999" data-name="Path 999" d="M320.664-132.1c-1.044,2.939-2.076,5.884-3.239,8.773a11.876,11.876,0,0,1-2.407-.775c.575-3.039,1.326-6.047,2.038-9.06Z" transform="translate(-206.337 1199.846)"/>
      <path id="Path_1000" data-name="Path 1000" d="M456-154.891V-177.4C465.117-166.427,465.173-159.655,456-154.891Z" transform="translate(534.22 967.492)"/>
      <path id="Path_1001" data-name="Path 1001" d="M456.314-160.633c-5.4-6.978-5.046-9.054,1.976-16.564Z" transform="translate(516.385 968.564)"/>
      <path id="Path_1002" data-name="Path 1002" d="M590.58-110.642c-9.667,9.561-8.735,25.387-21.554,33.334-4.752,2.945-7.241,9.342-14.65,8.3-1.445-.2-3.814,3.552-5.159,5.828-3.289,5.578-6.059,11.455-9.417,16.983-.807,1.326-3.07,1.757-4.665,2.6-.613-1.669-1.845-3.389-1.713-5,.381-4.852,1.288-9.654,2.069-15.007,8.179-1.688,8.179-1.688,4.7-8.291,1.382-5.146,2.288-9.135,3.57-13.006a11.742,11.742,0,0,1,2.8-3.971c1.739-1.857,3.62-3.57,5.515-5.265,1.363-1.226,2.814-2.357,4.265-3.483,2.02-1.569,4.9-2.676,5.94-4.727,1.788-3.52,3.1-6.315,7.716-4.158a3.39,3.39,0,0,0,2.783-.569c2.626-1.888,4.852-4.927,7.722-5.69C583.052-113.437,586.247-111.667,590.58-110.642Z" transform="translate(940.861 1306.267)"/>
      <path id="Path_1003" data-name="Path 1003" d="M529.993-49.484c-1.882-4.415-.644-11.018-7.422-10.986,0-3.9-.425-7.316.087-10.592,1.169-7.5,5.421-4.314,7.491-3.1l21.066-13.406,12.524,8.817-19.577,2.714c.719,1.507.932,3.02,1.732,3.445,7.3,3.933,6.9,10.7,4.008,16.1-1.588,2.989-7.441,3.9-11.524,5.284-2.726.925-5.728,1.044-8.6,1.526ZM541.43-60.4l-1.951-3.245a54.982,54.982,0,0,0-6.709,4.008c-.313.238.969,2.539,1.513,3.883Z" transform="translate(883.037 1439.392)"/>
      <g id="Group_39" data-name="Group 39" transform="translate(0 0)">
        <path id="Path_1004" data-name="Path 1004" d="M857.6-97.568c-12.993,12.687-25.88,25.48-39.005,38.024-6.428,6.147-13.081,12.093-20.009,17.664-14.707,11.83-29.87,23.1-44.464,35.06C736.66,7.5,719.665,22.38,702.338,36.862c-7.816,6.528-16.082,12.518-23.9,19.046-10.6,8.848-20.747,18.24-31.464,26.931-17.921,14.513-36.11,28.688-54.237,42.951-15.695,12.349-31.07,24.974-44.37,39.687,2.232.488,4.577,1.113,6.953,1.657,4.852-4.571,9.861-8.979,15.007-13.175,18.646-15.207,37.848-29.726,56.851-44.5,12.161-9.448,24.667-18.477,36.5-28.313,23.473-19.5,46.565-39.468,69.9-59.139,1.776-1.494,4.208-2.264,6.434-3.1.225-.088,1.907,2.239,1.657,2.614a46.7,46.7,0,0,1-4.94,6.065c-3.258,3.489-6.622,6.872-9.942,10.3-2.526,2.607-4.965,5.3-7.6,7.8-5.915,5.621-11.711,11.4-17.952,16.645q-27.866,23.42-56.057,46.446c-18.884,15.345-37.886,30.545-56.807,45.84,1.056,2.339,1.945,5.065,3.226,7.541q6.35-4.905,12.693-9.817l-.944-8.5c.294.331,2.363.325,5.752.037,1.976-.156,4.446-.413,7.191-.819q16.573-12.821,33.159-25.643c.994,8.16.519,13.625-7.522,17.139a27.685,27.685,0,0,0-7.1,4.777c8.341-1.813,17.5-3.921,26.643-6.184,26.938-8.423,52.543-18,49.035-23.511,3.12,5.034,6.909,12.768,13.9,17.045,8.448-5.928,17.333-9.736,26.475-13.519,8.741-4.3,17.577-8.773,26.262-15.126-.938,3.1-2.776,3.558.744,8.373,16.464-6.259,31.27-13.406,47.221-18.721,8.147-2.489,15.426-5.784,23.079-8.6,7.622-2.851,15.37-5.5,23.242-8.016l22.392-8.76,6.759-2.495v-197.5c-6.991,6.215-14.1,12.3-20.929,18.677C872.172-112,864.937-104.728,857.6-97.568Z" transform="translate(1019.414 1176.14)"/>
        <path id="Path_1005" data-name="Path 1005" d="M563.028-84.752l-.513-4.677c-1.988,1.569-3.964,3.151-5.947,4.721A17.361,17.361,0,0,0,563.028-84.752Z" transform="translate(1062.493 1429.595)"/>
        <path id="Path_1006" data-name="Path 1006" d="M298.656,598.647c.006,2.451.006,4.908.006,7.553,2.551.225,4.89-.219,6.372.707,2.351,1.469,5.359,3.614,5.8,5.915.419,2.214-1.413,6.29-3.389,7.272-7.791,3.883-9.085,10.067-9.06,17.933q.262,78.017-.106,156.034c-.063,11.4.2,14.388,15.982,15.488,2.689.194,5.471-.932,8.154-.719,2.2.169,4.327,1.419,6.484,2.188a60.732,60.732,0,0,1-2.7,6.466c-4.827,8.735-14.657,8.629-22.867,12.287-.919-2.264-1.97-4.865-3.02-7.46l-1.532.112v9.948q-.047,124.116-.106,248.225l.025-.006a69.55,69.55,0,0,0,15.357-5.052,61.472,61.472,0,0,0,14.475-9.135c-9.179-6.715,23.667.05,12.343-15.307,5.909,6.322,16.283,4.8,23,5.628-10.93,4.227-21.685,8.535-22.892,16.8,12.337,1.526,25.011,2.526,37.673,3.483,12.262,1.226,24.643,2.457,37.011,3.689a405.009,405.009,0,0,1,70.651,12.187c13.062,5.484,22.623-.594,30.289-8.091,7.591-7.466,12.875-16.207,15.807-15.513L529,1082.767l24.486,5.846c-.019-1.782-.369-3.489-1.188-4.064-8.429-5.884-8.379-11.955.588-17.439a28.1,28.1,0,0,0,3.145-2.364c.569-8.166.156-15.513-5.052-19.646,2.007-8.035,9.717-.619,18.883-1.119-3.4,1.92-12.193,11.336-7.041,15.413,19.64,5.09,8.416-9.3,33.009-11.549-.75,2.707-19.678,17.871-2.307,31a175.4,175.4,0,0,0,21.416,6.9c9.754-7.234,20.441-13.306,30.526-20.159,6.366-4.32,12.537-8.96,18.477-13.85,6.447-5.3,13.731-2.889,20.741-2.8,1.088.019,3.308,2.77,3.045,3.327-4.877,10.2,4.421,14.557,9.2,19.284,9.979,9.88,19.565,19.79,26.131,32.308a14.572,14.572,0,0,1,1.476,4.033c12.281,2.02,24.661,3.939,36.8,5.7,8.879,1.4,16.989,2.3,25.286,3.345,4.646.563,9.167,1.107,13.737,1.663,16.557-5.615,33.365-9.611,51.28-9.073,10.411.313,20.165-4.671,30.139-7.647,16.113-4.808,27.681-16.339,40.062-26.543,11.468-9.454,23.842-15.882,38.924-16.714,3.914-.219,7.8-1.519,11.617-2.614,11.737-3.358,23.248-8.035,35.2-9.873,7.679-1.182,16.007,1.626,24.011,2.864a48.423,48.423,0,0,1,7.866,2.289c6.885,2.326,11.536.744,16.676-5.246,6.19-7.216,14.869-11.768,25.405-8.122,5.327,1.844,9.454.206,13.212-4.164q17.474-20.316,35.616-40.025c1.276-1.388,4.634-1.044,7.035-1.125,1.369-.05,2.77.65,4.808-.513-1.788-1.251-3.577-2.495-6.347-4.433,6.478-1.813,11.9-3.333,17.314-4.846l1.869,2.176c-1.782,5.1-3.564,10.211-5.559,15.92-3.014-1.526-5.7-2.889-9.942-5.04,1.538,4.564,2.314,7.628,3.583,10.467,2.939,6.559,2.688,12.081-2.845,17.6-13.675,13.612-27.062,27.525-40.306,41.563,3.764,5.709,8.135,8.516,13.2,9.579a33.333,33.333,0,0,0,10.936.213c4.021-.456,8.26-1.313,12.687-2.176l-12.074-7.872c8.529-11.462,17.458-13.219,28.507-12.912,5.346.144,11.468.826,18.146,1.069a103.88,103.88,0,0,0,22.542-1.482l-13.475-5.309c3.952-3.239,8.848-3.8,14.282-3.714-7.147-25.6-3.37-51.949,7.753-78.3,5.634-13.337,12.35-25.805,21.91-36.548,3.514-3.952,8.36-6.922,13.049-9.542,2-1.119,5.14-.187,7.76-.187l.019,2.17c-7.629,4.452-10.323,10.6-5.49,19.64-3.546-.206-6.053-.356-9.342-.55,2.464,6.978,4.44,13.425,7.01,19.628,2.551,6.147.35,8.7-5.715,9.748-4.271.738-8.41,2.207-13.538,3.6,4.315,11.361,11.918,20.153,19.172,26.85-1.582,3.914-3.258,6.541-3.646,9.342-.957,6.922,1.194,14.738-6.447,19.459a2.436,2.436,0,0,0-.906,1.976c1.2,7.685-4.733,10.261-7.941,12.181,1.35,6.4,2.482,11.749,3.858,18.246-4.246-1.4-8.054-2.658-11.824-3.9,6.3,3.145,14.488,6.428,17.539,11.555-7.754-12.768.731-18.208,11.505-20.966.306-3.62.681-7.241,1.25-10.88,2.376-15.3,7.041-30.42,12.275-45.052,3.92-10.949,10.155-21.128,15.832-31.389,6.422-11.586,17.433-14.55,29.72-14.469,7.2.05,14.413.3,21.622.263,18.615-.094,35.71,6.522,53.112,11.83,3.339,1.013,6.94,1.276,10.136,2.576,2.169.875,3.858,2.958,5.759,4.5-2.076,1.494-4,3.32-6.284,4.358-1.432.65-3.4.119-5.79.119v-5.221c-2.914,2.464-5.634,4.758-8.354,7.053-1.407-3.458-2.814-6.922-4.089-10.048-6.053-.513-12.868.112-18.821-1.863-9.342-3.089-12.037,2.151-15.7,10.761,4.377-3.827,7.185-6.284,11.393-9.967v9.067l11.243-4.371c-1.419,2.989-2.257,4.746-3.8,7.991,4.827-1.282,8.629-2.295,12.968-3.458-1.075,6.6-.275,9.948,7.316,6.153,1.857-.932,7.635-2.42,9.98,3.745,1.138,3.008,6.747,5.146,11.061.238-1.444-1.926-2.82-3.777-4.246-5.678,2.339-2.839,4.515-5.484,7.441-9.042,2.314,1.557,4.777,3.214,7.247,4.877-1.757,1.863-3.52,3.727-5.265,5.6-6.2,6.634,2.857,7.266,4.214,11.186-.632-5.252-2.752-10.861,4.646-12.693,2.169-.538,4.571-.138,6.865-.169V982.5c2.989-.213,9.111-4.777,10.892,4.683-4.665.857-9.173,1.682-13.681,2.508l-.888,1.15c3.3,1.038,6.578,2.833,9.911,2.945,7.528.263,9.68,2.182,9.492,9.692-.081,3.17.388,6.359.675,10.474l-6.666-5.259c-.519,2.414-.863,4.121-1.25,5.815-.5,2.157-.994,4.321-1.5,6.478a8.477,8.477,0,0,0,1.594.638c1.569.413,3.452.081,9.654-1.294,6.322-1.394,16.657-3.783,34.96-7.4,2.432,4.108,4.665,8.235,6.991,12.349l6.078-18.777c4.671,17.6,14.594,20.559,23.4,23.423,9.023,2.857,16.964,5.6,18.271,22.729,7.672-12.806,13.25,5,28.507-6.484-2.176-11.637-7.6-15.376-13.256-18.1-5.834-2.733-11.83-4.44-14.788-11.98,14.35-1.157,40.074.544,68.644,3.377,25.987,2.789,56.819,6.1,87.552,9.392l10.981,1.319q5.449.441,10.867.875l2.026.182c2.357-2.457,4.9-4.859,3.658-9.16-.113-.406,1.369-1.826,2.1-1.82,7.322.069,9.4-6.172,13.387-10.373,2.108-2.226,6.447-4.483,8.8-3.714s4.458,5.152,4.871,8.2c.625,4.571-.537,9.367-.519,14.063a38.06,38.06,0,0,0,.6,5.865q2.044.2,4.058.369c1.157-3.226,2.395-6.659,3.933-10.93,1.182,4.365,2.163,7.96,3.114,11.461.938.063,1.876.125,2.8.181,6.44-20.5,12.881-41.006,19.234-61.234-3.615.425-6.6.776-9.592,1.126l-.5-2.858c4.252-1.351,8.5-2.7,13.688-4.346-.35-3.158-.782-7.016-1.207-10.792-5.947.125-.537,10.942-8.667,7.322-.781-.344-.694-2.632-1.463-6.028-.513-.263-2.895-1.457-6.309-3.164,2.714-2.9,5.071-5.421,8.035-8.585-5.021.256-9.542.494-13.356.688-2.645-6.015-4.927-11.2-7.416-16.87,4.915-.869,9.323-2.62,11.755,4.058.625,1.713,4.158,3.158,6.447,3.308,3.576.244,7.253-.625,10.843-1.251a2.938,2.938,0,0,0,1.844-1.976c.125-.65-.682-1.588-1.257-2.245-6.191-7.091-12.444-14.144-18.59-21.272-.312-.363.125-1.37.362-3.251,5.772,4.489,11.155,8.347,16.145,12.656,4.064,3.508,5.99,2.639,8.372-1.951,4.427-8.491,9.686-16.545,14.382-24.905,6.359-11.318,12.524-22.748,19.409-35.291l16.27,10.417c-.219-1.057-.625-2.464-.8-3.889-.457-3.852-1.232-7.741-.907-11.53.075-.894,5.365-2.62,5.934-1.963,2.351,2.732,6,6.953,5.221,9.317-3.032,9.154,3.552,12.293,9.392,16.958,5.421-6.3,10.911-12.975,16.77-19.3,1.275-1.376,3.858-1.551,5.834-2.282-.394,2.139-.206,4.64-1.281,6.353-8.16,13.031-16.57,25.905-24.9,38.824l2.294,1.569c6.678-9.11,13.319-18.252,20.047-27.331,3.233-4.364,6.209-9.048,10.117-12.712,1.963-1.838,5.759-1.713,8.729-2.476-.344,2.926.331,6.6-1.182,8.673q-23.091,31.627-46.877,62.747c-6.578,8.56-14.063,16.42-22.686,26.4-1.963-5.29-2.976-8.022-4.133-11.13-1.395-.375-3.5-.938-5.947-1.594-2.1,2.864-4.283,5.834-5.3,7.216.819,3.771,1.87,6.1,1.7,8.335a74.556,74.556,0,0,1-2.145,12.443c-.644,2.545-1.663,6.7-3.195,7.035-8.892,1.938-7.291,7.491-5,13.756-5.015,1.438-9.873,2.439-7.966,9.748.375,1.432-5.44,4.621-8.548,6.784-4.277,2.983-9.217,5.234-12.843,8.835-1.851,1.832-1.313,5.953-2.1,8.979-.613,2.382-1.288,4.752-1.97,7.116l5.346.35,32.327,2.507c9.1.431,16.464.925,21.472,1.419-6.271,2.551-4.089,13.719,2.382,19.434l3.208-1.7c.281-3.439,2.883-7.616,5.665-9.823.756-.6,1.438-1.251,2.176-1.863-1.163-1.47-1.8-2.87-.788-5.7,2.37-2.076,5.172-1.219,7.791-.519a88.079,88.079,0,0,0,8.585-9.7c.013-.188.037-.325.05-.513.006.138.05.231.056.369a68.8,68.8,0,0,0,8.479-13.913c-10.511,9.948-21.022,19.9-31.952,30.245-5.778-5.677-3.858-10.755-.894-15.882l.194.194c-1.851-2.77-4.621-5.321-5.346-8.36a92.347,92.347,0,0,1-2.107-17.383c-.375-8.354-.137-16.733-.35-25.093-.062-2.382-1.376-4.833-1.051-7.1.657-4.646.5-11.355,3.389-13.412,13.594-9.686,21.278-24.236,31.915-36.279,15.632-17.708,30.451-36.129,46.071-53.843,1.963-2.226,6.69-2.007,10.135-2.92-.807,3.02-.75,6.747-2.551,8.948-13.706,16.72-27.781,33.134-41.719,49.666a8.325,8.325,0,0,0-2.151,4.577c6.71-7.2,13.457-14.369,20.122-21.616,10.417-11.33,20.509-22.979,31.32-33.928,3-3.039,8.041-4.071,12.143-6.022l2.126,2.063c-1.57,2.676-2.72,5.746-4.79,7.966-15.92,17.039-32.465,33.522-47.922,50.973-12.331,13.925-23.273,29.076-35.11,43.451-4.358,5.3-9.523,9.923-14.318,14.863l2.113,2.088c4.965-5.221,10.086-10.3,14.863-15.682,7.266-8.2,14.281-16.62,21.422-24.93,10.167-11.837,19.559-24.474,30.708-35.3,17.571-17.052,33.228-36.179,55.063-48.766,9.7-5.59,17.239-14.894,25.874-22.373,17.095-14.807,34.322-29.451,51.392-44.289,17.02-14.794,33.7-29.989,50.929-44.539s34.923-28.532,52.449-42.726c14.863-12.043,29.832-23.961,44.658-36.054,17.089-13.95,34.078-28.025,51.111-42.044v-10.5c-13.331,11.436-26.537,23.017-40.018,34.266-9.1,7.6-18.665,14.65-27.875,22.116-14.976,12.137-29.664,24.636-44.789,36.579-15.763,12.443-32.033,24.236-47.828,36.635-10.755,8.441-20.922,17.627-31.621,26.143-12.637,10.067-25.568,19.759-38.355,29.632-.975.757-1.67,1.988-2.739,2.482a69.582,69.582,0,0,1-6.572,2.364c.944-1.976,1.407-4.471,2.908-5.846,15.907-14.588,31.546-29.52,48.109-43.339,23.8-19.871,48.416-38.78,72.5-58.333,14.807-12.024,29.163-24.611,43.914-36.717,10.468-8.591,21.179-16.9,31.908-25.155q17.446-13.431,35.172-26.481c1.438-1.057,3.508-1.257,5.29-1.851V-283.711c-.394.125-.8.206-1.195.338a69.178,69.178,0,0,0-14.638,6.853,61.492,61.492,0,0,0-13.275,10.8c9.911,5.571-23.5,2.789-10.43,16.676-6.622-5.571-16.733-2.814-23.511-2.839,10.348-5.5,20.509-11.067,20.716-19.409-12.43-.037-25.137.488-37.817,1.044-12.318.256-24.755.513-37.186.769a404.808,404.808,0,0,1-71.6-3.652c-13.625-3.877-22.385,3.3-29.1,11.662-6.641,8.322-10.849,17.627-13.844,17.289l1.782-13.806-26.675-3.064c4.108,14.463-1.9,36.179,9.361,43.095-1.032,8.216-9.579,1.776-18.615,3.364,3.139-2.307,10.749-12.706,5.146-16.139-20.109-2.707-7.247,10.242-31.389,15.413.419-2.783,17.4-20.1-1.426-31.058-24.311-7.1-101.572-12.75-170.765-14.419-8.979-.331-17.139-.25-25.505-.294l-24.58-.019c-15.882.15-30.058.944-43.438,1.319-6.772.119-12.575.7-18.115,1.132s-10.661.838-15.313,1.2c-8.917.688-16.126,1.094-20.553,1.744-.212.557-.418.632-.613.075.175-.025.432-.05.613-.075.888-2.276,1.97-12.918,3.146-24.03,1.013-9.336,2.151-18.815,3.126-24.017h-3.358c-4.4,3.9-8.585,7.979-12.831,11.893l10.373,17c-4.721,7.5-15.213,14.819-28.319,21.772-6.79,3.252-13.137,7.478-20.159,11.174-6.928,3.814-14.144,7.416-21.234,11.086-13.613,7.71-28.738,16.138-42.3,24.624-13.487,8.454-25.024,16.751-30.051,23.786l7.116-1.019c-16.82,16.382-31.377,21.51-59.027,28.751,5.259-3.664,10.461-7.316,15.307-10.9-5.8-10.33-11.955-14.263-19-14.876a33.447,33.447,0,0,0-10.88,1.094c-3.94.938-8.041,2.295-12.337,3.683l12.931,6.372c-7.1,12.393-15.758,15.207-26.756,16.226-5.328.5-11.486.55-18.146,1.113a103.647,103.647,0,0,0-22.2,4.171l14.019,3.652c-6.2,6.465-16.157,5.171-26.718,6.49,16.17-13.331-15.094-12.012-23.035-22.31,16.126,20.534-19.665,24.824-30.545,28.432-8.116-15.82-31.7,16.595-35.81.069-9.442,5.7-1.507,14.744,2.795,16.239-24.2-5.465-41.713,22.454-81.406,28.457-34.6.219-36.616-3.527-39.893-3.939-1.607-.225-3.433.331-9.429,2.439-6.109,2.139-16.089,5.746-33.822,11.53-2.908-3.789-5.615-7.622-8.417-11.43l-3.789,19.371c-6.74-16.914-16.951-18.665-26.037-20.453-9.3-1.763-17.514-3.527-20.859-20.378-6.09,13.625-13.756-3.376-27.531,9.848,3.552,11.286,9.386,14.35,15.332,16.376,6.115,2.013,12.274,3,16.114,10.123-14.113,2.87-39.856,4.258-68.556,4.865-26.131.338-57.139.744-88.046,1.144l-11.055.006-10.9.431c-7.253.219-14.425.438-21.441.65s-13.963.182-20.565.507c-6.6.363-12.962.719-19.034,1.05-12.2.519-23.192.988-32.4,1.376-9.085.663-16.451,1.057-21.485,1.163,5.921-3.289,2.42-14.113-4.69-19.009L700.114-71.54c2.964,5.327,7.141,4.927,5.853,10.611-5.459,6.065-16.133-7.016-15.026,12.618-1.732-10.955-12.08-9.536-12.556-12.312-1.476,10.017-10.893,7.091-20.115,6.2-9.211-.932-18.171.225-17.383,18.583-18.258,11.705-10.649-20.6-32.515-13.988l5.7,24.349c-.331-.294-2.382-.038-5.715.65a95.951,95.951,0,0,0-13.15,3.564c-10.48,3.445-24.161,8.272-37.554,13.35C531.919,3.676,507.639,16.25,511.785,21.3c-3.7-4.621-8.385-11.849-15.839-15.257-7.679,6.9-16.045,11.737-24.674,16.589-8.166,5.309-16.4,10.811-24.261,18.158.563-3.183,2.332-3.864-1.738-8.223-15.594,8.185-29.445,17.052-44.645,24.236-7.791,3.439-14.619,7.585-21.879,11.3-7.228,3.745-14.607,7.3-22.123,10.742l-21.179,11.38-10.83,5.54-5.49,2.739c-1.757.969-3.37,2.051-5.071,3.07q-8.2,4.915-16.42,9.848.507,182.474.913,364.947Q298.691,537.509,298.656,598.647Zm39.337,98.726-1.845,1.007q-5.853-5.984-11.7-11.968c6.072-1.663,9.223-10.161,15.295-4.752C346.6,687.768,337.668,691.964,337.993,697.373Zm131.935,69.1c-1.307.044-3.964-2.445-3.77-3.308.394-1.707,2.332-3.058,4.6-5.665,1.6,2.676,3.427,4.415,3.1,5.5C473.392,764.5,471.347,766.429,469.928,766.473Zm54.487-32.346c-5.915-.156-8.823,3.871-12.656,7.278-3.2,2.839-7.159,2.276-7.972-3.345-.35-2.42-.838-4.815-1.526-8.716l4.033,2.9,1.126-1.607c-1.644-1.126-3.3-2.226-4.934-3.377-1.7-1.194-3.37-2.426-5.059-3.645,1.395-1.426,3.133-2.658,4.1-4.327a77.216,77.216,0,0,0,3.652-8.241l-2.445-1.113c-1.426,1.282-2.851,2.564-3.214,2.9l-13.625-3.27c.613-2.113,1.463-5.021,2.532-8.66-2.845-.538-6.128-1.157-9.423-1.776-1.557-7.028-.607-11.862,8.079-13.775,6.39-1.407,12.493-4.921,18.2-8.366,4.271-2.576,7.61-.894,8.648,2.163,2.451,7.222,7.966,14.294,2.195,22.823-1.182,1.745,1.232,6.247,2.507,9.26,2.47,5.828,5.577,11.4,7.791,17.314C526.985,730.031,525.1,734.146,524.415,734.127Zm34.228,190.387c-3.927-.088-7.735-6.409-7.829-13.825-.488-5.509,2.4-9.623,8.785-9.617,6.8.013,7.234,5.771,7.466,10.761C567.335,917.717,562.5,924.6,558.643,924.514Zm11.93-69.644c-4.427-.475-9.829-2.2-12.581-5.377-3.877-4.477-.613-16.651,4.058-20.541,5.071-4.221,9.373-3.064,11.049,3.239,1.282,4.808,2.038,9.748,3.483,16.876C575.038,850.661,572.556,855.082,570.574,854.869ZM590.12,709.434c1.763-4.133,2.889-8.723,5.428-12.3,4.758-6.69,3.32-13.819-4.408-17.3a4.4,4.4,0,0,0-3.433-.088c-5.834,3.2-11.48,6.747-17.346,9.9a46.351,46.351,0,0,1-8.26,3.07c-5.184,1.613-10.423,3.051-15.626,4.608-4.183,1.251-8.723,4.1-12-1.176-3.364-5.415-.319-9.511,3.808-12.875a18.694,18.694,0,0,1,5.865-3.3c16.758-5.452,14.613-15.745,9.592-27.519-5.665-13.281-4.489-20.828,6.147-27.456,4.471-2.782,7.041-1.457,9.148,2.282,4.946,8.748,9.511,17.714,14.594,26.381,1.232,2.107,3.664,4.371,5.915,4.859a105.007,105.007,0,0,0,19.215,2.582c11.643.338,13.318,2.864,8.448,13-1.138,2.376-.169,5.771-.169,10.786-11.261,4.9-9.279,14.844-5.121,25.3-2.726,1.057-4.877,2.707-6.784,2.47C600.075,712.023,595.116,710.566,590.12,709.434Zm232.293-95.306q-2.926,11.752-6.634,23.311c-.757,2.376-3.1,6.378-4.008,6.19-3.589-.744-7.7-2.082-10.111-4.627-3.989-4.214-7.7-5.99-12.062-3.108-2.914-11.9-19.784-21.654-28.157-16.407-1.807-2.764-3.6-5.5-5.921-9.054,2.376-.319,3.726-.4,5.034-.688,5.621-1.244,11.186-2.745,16.851-3.752a51.33,51.33,0,0,1,10.986-.763c4.852.188,7.46-.675,10.173-5.94,2.514-4.89,9.361-7.541,14.3-11.18l2.07,1.426q.188,3.77.362,7.528C819.381,598.428,823.833,608.407,822.413,614.129Zm-52.361-62.616a48.811,48.811,0,0,1,7.991-1.026l.744,2.339c-2.507,1.3-5.015,2.607-8.8,4.577C769.989,554.6,769.633,551.625,770.052,551.513Zm22.473,14.863c1.044-1.732,5.065-1.926,7.829-2.3a19.429,19.429,0,0,1,7.341.244c2.532.669,4.827,2.226,7.228,3.4l-.506,2.37c-7.272-.538-13.925.231-17.883,7.2-.1.169-4.045-.975-4.2-1.863C791.8,572.428,791.149,568.658,792.525,566.376Zm72.546,194.313c-4.389,7.4-10.655,13.681-16.145,20.428-1.314,1.607-2.652,3.2-3.977,4.79l-1.7-1.3c3.451-10.955,6.54-22.054,10.573-32.8,1.332-3.539,4.952-6.359,7.979-8.985.475-.406,4.9,1.988,4.915,3.127C866.79,750.916,867.4,756.775,865.071,760.689ZM899.7,775.227a41.719,41.719,0,0,1-11.631,10.23c-2.132,1.294-7.7,1.013-8.391-.3-1.294-2.47-.463-6.247,0-9.411.594-4.077,1.107-8.341,2.764-12.024,1.169-2.6,3.971-4.671,6.428-6.447,3.914-2.832,8.1-5.327,12.28-7.766,3.183-1.851,6.422-3.814,9.892-4.865,1.369-.413,3.452,1.519,7.034,3.289C911.36,758.025,905.933,766.929,899.7,775.227Zm131.578,105.729q4.568-1.951,9.123-3.9l1.676,3q-3.865,2.729-7.735,5.459Q1032.812,883.232,1031.277,880.956ZM1044.1,899.54a17.621,17.621,0,0,1-4.821-4.608c-.244-.35,2.195-3.339,2.5-3.2,1.982.926,3.714,2.382,6.434,4.308C1046.209,897.783,1044.446,899.758,1044.1,899.54ZM1057.3,570.771c-1.119-1.088,1.1-5.209,1.138-7.966.081-6.253,4.815-4.339,8.254-5.49,13.074-4.377,27.713-3.177,39.437-13.069,4.539-3.833,12.7-3.37,20.74-5.215,2.251.932,6.071,1.751,8.792,3.939,1.638,1.319,2.432,4.9,2.094,7.241a91.272,91.272,0,0,1-3.783,14.913c-1.413,4.39-3.677,6.553-9.023,8.585-7.7,2.926-15.445,1.269-22.1,3.4-8.785,2.808-15.713,1.938-23.642-1.057-3.864-1.463-8.5-.757-12.668-1.607C1063.279,573.773,1059.509,572.916,1057.3,570.771Zm22.135-108.387c3.126-4.446,5.84-9.173,8.873-13.681,5.321-7.91,9.755-8.81,16.089-1.632,9.917,11.224,23.467,19.578,28.457,34.847.194.581.969.975,1.476,1.457l-.788,1.97c-3.42-1.238-6.8-3.32-10.28-3.527a82.316,82.316,0,0,0-17.7,1c-4.12.663-7.122,1.557-10.661-2.376-2.545-2.833-7.5-3.533-11.424-5.09C1076.348,472.52,1075.16,468.469,1079.437,462.384Zm50.448,435.992c-8.235,6.159-12.493,15.013-17.308,23.9-7.316,13.5-16.32,26.118-25.08,38.786-4.089,5.9-9.179,11.136-14.069,16.439-1.082,1.169-3.227,1.363-4.877,2.007.075-2.051-.619-4.621.357-6.065,4.589-6.8,9.91-13.119,14.444-19.959,7.128-10.755,13.312-22.173,20.847-32.627,9.229-12.812,17.9-26.506,33.453-33,2.977-1.244,6.1-2.107,9.16-3.145l.394,1.382C1141.427,890.179,1135.55,894.137,1129.884,898.377Zm37.767,129.6c4.852-4.446,5.99-12.218,14.488-11.493C1180.026,1027.7,1176.043,1031.056,1167.652,1027.973Zm33.409-95.537c-1.894-6.878-9.986-12.337-2.376-21.11C1206.532,922.287,1206.82,925.058,1201.061,932.436Zm2.32-49.222c-4.345,6.034-6.447,13.694-10.242,22.241-1.094-4.515-1.744-7.185-2.62-10.8-5.947,4.5-6.053,10.192-4.784,15.132a151.111,151.111,0,0,0,8.966,26.012c6.609,14.169,7.01,13.963-3.927,23.973-3.07,2.807-5.971,5.8-9.1,8.529-3.02,2.639-6.515,4.79-9.267,7.666-1.869,1.945-2.814,4.777-3.364,5.753-3.683.457-6.747.832-11.224,1.376-.719-1.219-2.414-4.07-4.7-7.929h8.173c-9.142-34.791-1.2-65.624,23.9-89.916,8.666-8.385,20.015-17.308,33.2-20.172l1.607,2.451C1214.379,872.69,1207.764,877.142,1203.38,883.213Zm-29.47-366.179c4.2-1.426,8.441-2.87,12.768-4.346,1.457,8.435-2.657,13.194-11.43,13.256C1174.793,522.925,1174.4,520.3,1173.911,517.034Zm62.254-28.744c-2.508-7.391-.119-16.77-11.568-18.183,4.977-5.309,8.779-5.5,12.418-1.382C1243.43,476,1243.38,483.1,1236.164,488.29Zm96.969,84.907c1.982.825,4.145,1.369,5.909,2.526,3.289,2.176,5.44,3.02,8.666-.963,4.14-5.121,17.57-2.5,21.053,3.37C1354.093,590.78,1348.484,589.361,1333.133,573.2Zm13.656-9.092c1.82-7.847,9.979-10.58,16.689-6.572C1357.313,559.96,1352.054,562.03,1346.79,564.106Zm50.254-130.622c.388-.05.85.431,1.738.919-.7,1.607-1.413,3.233-2.839,6.5l16.132-9.854c.425,10.874-9.736,16.764-24.555,14.338-1.576,3.921-1.663,9.717-9.4,6.622-1.651-.663-6.647,5.3-11.774,2.695-3.814-1.938-9.992,1.076-11.749-5.609-.075-.287-3.821-.225-5.365.594-10.33,5.446-20.872,10.6-30.614,16.97-5.19,3.4-8.892,2.851-13.488-.019-2.464-1.532-5.3-2.464-9.648-4.433,1.707-4.064,3.37-8.347,5.309-12.506,1.994-4.3,4.4-8.4,6.39-12.7,6.7-14.419,17.227-24.793,32.484-29.532a84.607,84.607,0,0,1,19.74-3.233c9.2-.575,16.495,3.039,21.71,11.18,1.419,2.214,5.334,2.958,8.223,4.077,8.385,3.233,8.685,4.021,3.726,11.461-.532.794-1.026,1.62-2.351,3.739C1393.773,434.09,1395.4,433.709,1397.044,433.484Zm-34.535,53.975c2.67.025,5.322,2.457,7.116,3.364.131,6.741-5.978,13.35-10.611,12.481-2.076-.388-5.14-3.821-5.058-5.753C1354.174,492.492,1356.319,487.408,1362.509,487.458Zm20.947-.025c2.72,7.554,5.04,13.825,7.172,20.159a3.6,3.6,0,0,1-.857,2.708c-4.558,5.884-23.748,6.666-28.413,2.013C1368.287,504.516,1375.152,496.781,1383.456,487.433Zm3.64,127.3,1.257-1.682c8.247,5.39,16.5,10.774,25.831,16.876C1405.354,630.717,1390.078,621.513,1387.1,614.735Zm20.065-84.489.263-2.282c2.257-.281,5.534-1.588,6.522-.6,1.344,1.332.925,4.427,1.544,8.7C1411.406,533.21,1409.287,531.729,1407.161,530.247Zm98.351,375.333c-3.977.763-9.379.081-9.1-5.64.125-2.639,3.783-5.1,7.31-9.461l10.893,9.661C1511.6,902.041,1508.77,904.948,1505.512,905.58ZM1655.836,978.4c-.9,1.376-4.127,1.232-6.721,1.895,2.151-6.772,3.807-11.974,5.934-18.64,2.414,1.457,6.685,3.4,6.5,4.014A49.4,49.4,0,0,1,1655.836,978.4Zm84.426-51.949c-2.914-1-7.572-1.251-8.4-3.164-2.013-4.627-2.245-10.03-3.426-16.37,8.66,1.982,12.968,5.746,13.906,12.231C1742.67,921.437,1741.013,924.013,1740.262,926.452Zm28.475-16.826c-3.352.219-6.716.169-10.086.169.106-1.576.213-3.145.318-4.721,3.32.256,6.647.469,9.936.932A16.293,16.293,0,0,1,1768.738,909.626Zm-1.482-42.87c3.727,2.676,2.57,17.339-1.495,19.384-1.482.744-3.952-.469-5.39-.7-5.922,7.566-11.4,14.557-17.4,22.21-3.133-.963-6.078-2.026-4.909-7.816.725-3.577-1.413-7.685-1.97-11.593a11.52,11.52,0,0,1,.375-5.684c2.457-6.084,5.265-12.024,7.966-18.008.194-.431.906-.982.813-1.144-5.871-10.123,5.827-11.874,8.779-17.746.581-1.163,5.371-1.651,6.978-.581a33.495,33.495,0,0,1,8.717,8.935c.657.957-1.044,4.283-2.464,5.753C1764.761,862.36,1763.442,864.017,1767.256,866.756Zm117.16-239.2-6.215-7.741c-1.9,2.576-3.989,6.053-6.747,8.879-1.507,1.551-4.6,3.277-6.184,2.708-4.352-1.576-8.279-4.314-13.312-7.116,2.2-1.551,4.377-2.5,4.29-3.12-1.632-11.48,10-13.106,16.314-19.765q-.9,8.094-1.8,16.189c.994-5.771,11.618-8.041,5.709-16.47-.682-.969.219-3.627,1.138-4.99,1.132-1.682,3.058-2.833,5.853-5.259v9.679l.75-.544c.8,1.932,2.395,3.927,2.257,5.79-.331,4.427-1.782,8.76-2.176,13.181C1884.078,621.4,1885.1,623.927,1884.416,627.56Zm-8.917-60.64c-.219,3.064-.444,6.128-.719,9.736-2.345.875-5.29,1.97-9.555,3.564-.494-4.921-.931-9.3-1.369-13.687Zm-.063-14.125c2.307-2.651,5.8-4.827,9.392-.782.876.976,2.633,1.169,4.671,2-1.826,2.239-3.408,4.177-5.283,6.478-2.376-1.557-4.521-2.97-5.265-3.458-1.125,3.17-2.226,6.29-3.332,9.4a34.558,34.558,0,0,1-1.088-6.053C1874.467,557.8,1874.042,554.4,1875.436,552.794Zm16.464,46.846c-.657-1.82-1.326-3.583-1.927-5.365-1.676-4.99-2.626-10.542-10.392-6.3-2.026,1.107-5.553-.519-10.649-1.188,7.247-3.871,17.7-2.27,13.319-12.837h14.438c-1.507,3.245-3.064,6.6-4.615,9.955,1.107.675,2.214,1.344,3.32,2.02.632-1.569,1.263-3.139,1.8-4.483C1902.167,584.89,1898.278,596.539,1891.9,599.641Zm19.809-33.415q-1.192-6.125-2.382-12.256l3.264-.788q1.4,6.1,2.789,12.2Zm2.614-197.884-8.522-2.807-.194-2.851c2.551-.7,5.3-2.289,7.572-1.77,1.326.3,1.882,3.971,2.783,6.128Zm21.6,2.526q-2.945-2.56-5.878-5.133c1.77-.907,4.165-2.989,5.172-2.451,1.676.882,2.463,3.452,3.627,5.309Zm7.7-27.281,2.145-2.332,7.541,8.122C1945.856,352.2,1945.7,346.788,1943.624,343.587Zm19.6,485.627-2.508-1.657q3.405-4.8,6.81-9.592l3.164,2.12Q1966.953,824.652,1963.22,829.214Zm8.31-420.416h-9.673c-1.532-5.165-3.364-11.362-5.415-18.271l-4.3-.494-.506-2.476L1964.2,384c-2.839,7.535-2.607,11.474,4.89,13.837C1974.206,399.443,1975.463,405.052,1971.53,408.8Zm16.983,367.567c22.86-31.289,57.145-45.533,87.071-65.436C2061.79,727.117,1995.51,776.771,1988.513,776.365ZM2154.1,588.748c-3.658,3.514-2.263,7.328-2.563,11.474a50.308,50.308,0,0,1-5.446,18.94c-3.233,6.247-8.285,11.562-12.644,17.208-1.013,1.319-2.476,3.339-3.676,3.3-6.828-.231-8.592,3.72-8.066,7.216-6.916,3.251-12.7,5.515-18.008,8.6-4.877,2.839-9.242,6.572-13.831,9.911l-1.344-1.419.257,5.64c-2.933-.194-5.477-.356-8.954-.582,2.164-2.889,8.792-5.39.613-7.078,1.288-3.6,1.863-7.51,3.864-10.43,8.935-13.037,18.3-25.78,27.425-38.686a12.319,12.319,0,0,0,1.633-4.264c1.844-7.7,11.442-16.164,19.377-17.1,4.064-.488,6.872-1.732,8.935-6.309,1.132-2.526,7.253-4.189,10.893-3.833C2156.627,581.726,2157.034,585.928,2154.1,588.748Zm-12.049-130.572c1.926,1.57,2.87,4.884,3.189,7.529.1.794-4,3.339-5.221,2.82-4.614-1.945-8.553-5.89-13.262-7.147-12.012-3.214-14.769-14.3-21.31-22.166l1.007-2.914c3.213.7,7.028.525,9.542,2.251C2124.962,444.7,2133.635,451.292,2142.052,458.176ZM2116.6,412.424c7.435.607,13.018,1.063,19.109,1.557C2130.265,420.415,2122.1,420.4,2116.6,412.424ZM2150.287,13.5c.963-.907,4.308.719,7.56,1.388-5.528,4.021-8.616,6.265-11.705,8.51l-1.795-.988C2146.254,19.364,2147.754,15.881,2150.287,13.5Zm-8.76-1.988c1.144.775,1.082,3.345,1.563,5.09-1.714-.069-3.958.525-5.04-.344-2.776-2.22-5.04-5.084-7.51-7.7l1.438-1.626C2135.2,8.409,2138.631,9.56,2141.527,11.51Zm-10.43-51.4.144,1.9-12.249,1.538c-.081-1.15-.157-2.295-.238-3.439Zm-52.03,16.77c2.02,7.422,2.02,7.422-6.14,10.992-3.483-3.67-6.991-7.378-10.417-10.992Zm-219.975-92.373c5.759,3.426,10.617,7.766,10.893,16.051l-8.986-8.5c.35,3.577.531,5.434.713,7.3l-2.051.694c-1.851-4.533-3.74-9.054-5.334-13.675C1854.289-113.734,1858.148-116.054,1859.092-115.491Zm-29.082,8.416,3.608,15.614-3.6.725-2.214-15.826Zm-48.935-2.882c1.513,4.877,2.188,10.011,3.238,15.032l-2.157,1.075c-1.482-3.02-3-6.021-4.427-9.067-2.02-4.264-1.069-11.561-10.023-8.254-1.938.713-5.459-2.851-8.2-4.415C1765.761-122.482,1778.036-119.787,1781.075-109.957Zm-32.653.575c1.026.638,1.513,3.458,1.044,4.871-.588,1.77-2.413,4.427-3.72,4.439-6.047.056-12.1-.681-17.977-1.119C1730.164-107.888,1742.276-113.2,1748.422-109.382ZM1709.8-99.59c3.8,2.426,2.9,5.077,1.107,8.81-1.657,3.452-1.394,7.829-1.907,11.837q-3.47-1.107-6.935-2.22c1.482-4.558,2.971-9.117,4.74-14.544-1.538-.213-4.389-.6-7.5-1.025C1702.551-101.072,1706-102.023,1709.8-99.59Zm-17.57,6.153,2.476,2.464L1686.694-83l-2.339-2.32Q1688.295-89.382,1692.228-93.437ZM1486.541,554.157c0-7.1-1.169-14.25.332-20.784,1.463-6.384,5.659-12.149,9.073-19.034-12.668-.363-7.266-8.616-7.5-13.456l8.116-7.147-1.557-1.6-8.66,3.151-1.132-2.007q8.047-7.185,16.095-14.369c10.13-9.01,18.164-19.4,23.035-32.29,4.571-12.106,9.7-24.011,15.069-35.791,9.01-19.79,13.469-40.475,15.345-62.116.631-7.31-.594-16.082,5.928-22.41.963-.932.225-3.645.225-5.534.019-4.915.007-9.823.007-14.732l2.089.119c2.714,5.69,5.1,11.568,8.235,17.014,2.427,4.208,5.14,4.965,8-.419,4.308-8.091,9.754-15.582,13.9-23.742,2.414-4.752,4.308-10.292,4.44-15.526.113-4.346-.613-10.53-8.535-8.979-3.2.619-6.672-.194-11.8-.438,4.321,3.533,7.147,5.84,9.973,8.148l-.819,1.838c-2.839-.319-5.665-.775-8.5-.919-4.871-.25-9.767-.119-14.625-.519-3.077-.256-6.078-1.351-9.154-1.77-1.751-.231-4.214-.563-5.259.375-2.833,2.539-5.083,5.728-7.553,8.673-.319.375-.519,1.107-.869,1.176-13.844,2.582-9.123,13.663-8.247,21.1a174.915,174.915,0,0,0,8.673,36.779c2.307,6.628,3.914,12.593,2.514,19.49-7.078-2.939-10.286-7.966-10.374-15.238-.019-1.588-.587-3.877-1.713-4.652-12.862-8.816-11.124-22.1-10.323-34.7.625-9.88.888-19.278-5.747-27.656,9.373-9.7,4.683-20.253,1.689-30.62-3.02-10.467-5.578-20.8-2.051-31.765,2.533-7.866,3.664-16.232,6.7-23.867,2.12-5.346,6.447-9.8,9.68-14.732,1.857-2.832,3.633-5.74,5.215-8.729,2.782-5.246,5.559-10.5,8.01-15.907,1.482-3.264,2.27-6.834,3.5-10.217,1.388-3.808,3.158-7.491,4.358-11.355,5.171-16.62,10.386-33.228,15.226-49.941,7.5-25.881,22.673-47.34,38.617-68.425,10.5-13.888,21.441-27.306,35.36-38.042a44.783,44.783,0,0,0,10.1-10.2c1.526-2.307.644-6.134,1.082-9.248,2.126-15.038,11.786-25.562,21.747-34.585,3.477-.175,7.454.644,10.28-.807,2.783-1.426,4.4-5.14,7.754-7.047-4.933,11.493-18.552,18.058-18.984,34.147,6.7-7.847,12.168-14.25,19.19-22.479-.644,5.046-1.038,8.141-1.476,11.58,5.134-1.663,10.736-3.2,16.132-5.284,6.784-2.614,7.472-5.371,3.858-12.012a36.611,36.611,0,0,1-1.982-5.421l11.549-4.152-1.657,8.835c8.066-8.385,15.32-3.414,22.591-1.663l.788-2.051c-3.133-1.913-6.259-3.827-10.123-6.19,1.476-1.05,3.214-2.282,5.652-4.021,1.4,2.076,2.889,4.227,4.315,6.422,4.446,6.828,14.457,7.1,19.04.513,3.77-5.427,8.791-5.928,14.531-2.682a16.429,16.429,0,0,0,9.861,1.6c4.758-.713,9.323-2.708,14.662-4.371.313,2.851.513,4.658.738,6.753,2.658-.212,5.059-.412,7.866-.638,1.032-4.615,2.039-9.1,3.508-15.695,6.109,5.7,11.436,10.667,16.72,15.595,6.047-6.791,6.047-6.791,13.518-.238l18.683-13.331c.638,1.857,1.682,4.858,3.171,9.16,2.563-3.126,4.221-5.146,5.371-6.547,2.044.331,3.689.707,5.359.844,3.132.269,6.284.394,9.423.6,3.889.25,7.959,4.214,11.637-.625.231-.307,1.407-.05,2.076.15,11.674,3.508,23.135,8.429,35.066,10.2,12.268,1.819,22.485,6.953,30.352,15.326,9.548,10.161,17.183,22.122,26.368,34.266.969-.106,3.883-.431,6.691-.738,2.095,3.114,4.158,6.178,6.359,9.454,1.945-1.451,3.452-2.576,4.953-3.7l1.25.869c-.931,2.27-1.857,4.539-3.1,7.578,7.628-3.633,16.864,12.043,22.767-4.865l-3.99-1.863c2.583-5.152,8.8-1.251,10.511,5.5.588,2.3.563,4.759,1.057,9.4,5.059-9.048,11.143-6.1,17.252-5.046,2.576.444,5.5-1.126,7.278-1.545,4.983,1.988,9.386,3.9,13.894,5.509,6.572,2.351,11.3.519,15.67-5.346,3.558-4.771,7.953-.006,11.918,1.326,2.751.925,5.677,1.332,8.422,2.257,3.833,1.288,7.879,2.37,11.205,4.508,1.463.944,1.388,4.277,2.007,6.528a41.042,41.042,0,0,1-6.5.069c-3.608-.507-7.166-1.4-12.193-2.426,3.508,5.077,6.427,9.3,9.391,13.594-7.066,6.453-8.679-3-13.131-2.97h-13.725c3.7,4.49,6.859,8.322,10.423,12.65-5.058,1.626-10.1,3.239-17.208,5.521-1.507-1.569-3.814-6.028-7.153-7.016-6.847-2.02-11.243-4.8-12.031-12.481-.125-1.244-4.7-2.038-7.222-3.039l-.844,1.738c1.707,1.426,3.42,2.851,5.171,4.308-4.64,4.464-4.64,4.464-15.508,1.726.463,6.434.9,12.431,1.482,20.484-3.87-3.864-6.809-6.8-10.811-10.78-1.882,2.751-4.271,6.14-6.515,9.623-.331.507.362,1.72.019,2.17-3.045,3.933-6.222,7.772-9.361,11.637-2.47-3.114-4.94-6.228-7.835-9.873-3.6,8.748-7.472,18.127-11.5,27.9-2.814-2.176-4.884-3.783-6.953-5.384-3.3,3.145-6.6,6.315-10.83,10.355l-3.327-11.855c-4.221,3.314-5.021,12.568-1.819,20.047.931-1.276,1.819-2.495,2.389-3.276,1.363,6.928,2.7,13.719,4.039,20.5l-1.132.632c-1.325-1.488-2.651-2.976-4.3-4.833-1.839,3.233-3.67,6.472-5.458,9.617-2.808-5.74-5.459-11.155-8.11-16.564l-2.383.65q1.6,8.695,3.208,17.383l.819-.25c1.213,2.682,2.514,5.328,3.633,8.054,3.883,9.429,2.851,21.022,12.549,27.969,1.276.913,1.913,3.514,1.851,5.3-.106,3.164-.975,6.3-1.751,10.724-3.058-1.175-6.29-2.426-9.53-3.67-2.864,5.384-.175,11.687,6.716,15.313-.356-2.839-.719-5.7-1.307-10.355,5.959,5.678,11.949,8.879,13.644,13.612,2.326,6.509,2.513,14.325,1.594,21.316-1.181,8.942-6.753,17.233,1.095,26.312,3.4,3.927,3.808,10.449,5.746,16.307.15-.063-1.513.594-4.052,1.594l5.327,3.577c-1.482,3.777-2.839,7.222-4.5,11.449l6.859.306c1.851,6.472,5.465,13.362,5.315,20.172-.163,7.378-2.026,16.139-6.446,21.647-5.471,6.809-7.748,14.475-11.568,21.71-2.045,3.883-7.185,6.134-10.88,9.079,11.549,4.652-1.151,11.518.475,17.564l-3.239-5.527c-2.563,4.984-4.727,9.2-6.615,12.868,1.469,3.377,2.92,6.716,4.371,10.061l-2.188,1.044c-3.808-5.459-13-6.841-11.205-16.576-2.339-.544-4.4-1.026-6.747-1.57a9.008,9.008,0,0,1,1.031-2.314c3.333-3.42,6.885-6.64,9.967-10.267.6-.713-.062-3.589-1.025-4.321-3.289-2.514-6.972-4.521-10.992-7.022,1.713,4.158,3.5,8.5,4.927,11.962-3.408,2.257-6.1,4.158-8.911,5.846-2.182,1.319-4.515,2.376-8.091,4.214-1.719,3.358-4.377,8.554-7.278,14.207,4.583,1.582,7.866,4.3,3.283,11.024-5.183-10.68-11.993-1.057-18.252-1.319l-1.15-1.932c2.469-2.976,4.933-5.953,7.622-9.185-1.488-.475-3.433-1.838-4.6-1.351-7.241,3.051-14.532,6.134-21.272,10.111-1.657.982-1.326,5.328-2.226,9.661-2.526,0-5.834.106-9.135-.031-3.433-.144-6.859-.531-10.286-.813l-1.426,2.113c1.376.013,2.751.019,5.528.044-4.615,3.6-7.009,5.477-9.792,7.647-3.646-2.276-7.266-4.54-11.255-7.034-.325.969-1.051,3.126-1.988,5.909-2.483-.813-5.271-1.726-8.4-2.745.407,7.729-6.222,3-11.374,4.884,2.113,3.445,4,6.528,7.122,11.636-4.4-.938-7.553-1.169-10.349-2.3-4.69-1.9-8.8-4.077-11.33,2.976-.594,1.669-3.808,2.395-6.585,4,.225,1.388.563,3.545.938,5.69.738,4.164,1.051,7.316-3.008,11.093-4.784,4.446-7.816,11.161-3.589,18.371.519.888.344,2.182.6,4.121-4.4-1.232-7.378-8.7-11.875-2-1.426,2.132-2.72,4.352-4.077,6.528l2.314,1.413q1.566-1.942,3.12-3.889l2.145.663q-1.632,6.443-3.258,12.875l-2.407-.231c-.657-.963-1.314-1.92-1.958-2.889s-1.263-1.945-3.064-4.715c.213,5.928-8.873,6.878-3.558,12.1,2.52,2.482,7.816,2.145,13.212,3.4-2.007,2.864-3.52,5.027-5.259,7.5l-8.854-7.3c-.95,11.455-8.272,11.218-15.125,10.755-.444-4.99-.507-9.929-1.5-14.682-.357-1.72-3.051-4.283-4.458-4.146a7.89,7.89,0,0,0-5.578,3.989c-1.495,3.6-1.751,7.7-2.633,11.568-1.175,5.19-2.157,10.461-3.833,15.495-.694,2.076-2.964,3.627-4.377,5.253,2.289,1.9,4.74,3.939,7.2,5.978-2.764,1.663-5.521,3.32-9.2,5.534-1.332-3.958-2.395-7.1-3.564-10.58-2.17,1.451-4.352,2.908-5.79,3.871l8.342,14,.95-1.751c5.253,3,10.323,6.384,15.82,8.835,3.67,1.638,7.941,1.932,13.031,3.07-2.12,2.013-3.514,3.333-4.965,4.708,15.288,5.634,21.678,1.932,26.412-13.55,1.964-6.4,2.864-15.738,13.769-12.387.6-4.052,1.113-7.5,1.382-9.336,6.215.613,10.586,1.044,15.576,1.538.194,1.2.5,3.083,1.22,7.5,5.315-4.44,9.673-8.091,14.662-12.262,1.62,3.877,2.614,6.234,3.6,8.6l2.188.425c1.332-3.633,3.808-7.272,3.777-10.886-.081-8.2,1.694-10.924,10.2-11.512,4.84-.338,9.879-.106,9.023-7.76l2.364-.569q3.01,5.937,6.015,11.88l11.73-.925c-8.048,15.063-8.048,15.063-17.771,12.756q-2.832,7.6-5.671,15.188l-1.844-.825c1.169,2.607,2.332,5.208,2.839,6.34-3.683,2.3-7.328,3.452-8.866,5.915-1.051,1.695.813,5.215,1.394,7.916.544,2.495,1.113,4.99,1.669,7.485l-2.514.607c-1.25-2.614-2.495-5.227-4.408-9.242l-2.6,9c-4.058,1.213-8.135,2.426-13.306,3.964,8.078,8.029,17.339,13.862,17.715,25.53-10.905,2.132-10.905,2.132-11.9,8.11-3.945.763-7.885,1.526-11.874,2.3,2.47,3.914,5.146,6.8,6.159,10.186.744,2.495.181,7.51-1.288,8.191-9.123,4.227-3.9,8.191-.425,12.424a8.661,8.661,0,0,1,.919,1.976c-7.822,4.333-15.15,2.707-17.177-3.983-2.038,1.845-3.733,4.064-5.971,5.277-7.7,4.158-7.8,4.271.481,11.868H1802.61c.863,1.276,2.176,2.539,2.657,4.064a47.011,47.011,0,0,1,1.145,6.991c-2.045-.744-4.09-1.482-5.759-2.088-2.2,2.057-5.115,4.8-8.035,7.535l-4.945-5.409c-1.707.538-4.6,1.451-7.46,2.357-1.013,10.273-2.039,20.666-3.1,31.5,7.7,3.183,10.743,8.485,5.2,16.814a96.42,96.42,0,0,0-9.329,18.408c-.994,2.551.194,5.953.5,9.01,1.813-1.363,3.652-2.733,6.34-4.752,2.551,2.57,5.428,5.471,8.3,8.366l-1.932,1.919-3.026-2.307c-7.941,4.3-17.952,7.078-13.994,21.616-4.746-4.808-5.909-12.18-12.249-6.165l1.594,4.452-5.4,1.532c1.988,2.189,3.414,3.752,4.852,5.334-8.691,1.507-10.261,4.3-10.517,14.225-.112,4.471-2.357,8.885-3.333,12.274-12.687,10.023-21.241,21.685-22.685,36.3l-12.831,2.72-.719,2.758,5.734,2.4c-5.4,4.414-9.529,7.8-13.95,11.418-10.5-3.352-13.662-5.083-19.034-10.9-.525,4.921,1.12,12.2-6.922,8.072l-1.813,8.385-2.27-.256-2.283-5.246c-.531.031-1.182-.119-1.388.113-6.222,7.141-13.475,6.684-23.786.375-25.293-15.482-30.87-40.568-33.7-67.106-.531-5.008-.075-10.13-.075-15.2l-1.844.1c-5.127,7.116-10.223,14.256-15.42,21.328-1.013,1.376-2.232,3.164-3.683,3.564-17.346,4.827-20.622,17.9-20.478,33.484.031,3.051-2.376,6.128-3.658,9.192l-2.37.131c-1.52-6.09-3.058-12.174-4.552-18.271-1.757-7.178-2.726-14.663-5.4-21.479-4.133-10.53-3.214-15.5,5.828-21.572,13.994-9.392,27.538-19.559,42.088-27.994,6.765-3.921,12.593-7.06,12.368-15.582-.062-2.313-.888-5.628-2.532-6.709-15.576-10.261-19.834-25.374-15.232-41.875,3.3-11.805-.969-20.7-4.7-30.6-1.045-2.77-.294-6.215-.369-9.354,3.964,1.025,9.279.838,11.568,3.377,3.182,3.527,5.115,6.8,10.673,5.634,1.42-.3,3.426,2.145,7.328,4.808-2.563,1.094-4.352,1.288-4.783,2.151-1.451,2.908-3.6,6.247-3.145,9.048.294,1.795,4.627,4.046,7.222,4.139,5.246.2,10.542-.932,15.82-1.513-1.582-4.315-3.1-8.66-4.771-12.937-1.176-2.989-2.583-5.89-3.045-9.461,8.623,5.327,20.434,4.9,25.142,15.682,1.87,4.29,4.852,6.478,9.461,4.84,4.14-1.469,5.584-4.652,4.414-8.992-.168-.638.25-1.438.388-2.132,12.537-2.188,12.537-2.188,18.584,2.726-.788,2.376-1.376,4.49-2.189,6.516-.988,2.432-1.669,5.246-3.364,7.078-4,4.327-4.421,7.466,2.658,10.036-4.834,5.9-9.461,11.536-14.319,17.464l-2.226-3.02c-1.482,2.851-2.783,5.365-4.09,7.879l-.681-1.188c-3.82,2.139-8.31,3.6-11.343,6.553-7.147,6.978-14.719,10.617-24.949,7.985-3.814-.982-8.1-.156-12.531-.156,6.372,20.04,52.217,23.861,72.289,8.072,8.254,7.166,13.9-.782,20.722-3.464,4.6-1.807,9.773-2.376,14.738-2.664.494-.025,1.325,5.8,2.188,9.792,1.638-1.082,4.165-1.832,4.84-3.383,2.032-4.677,5.521-5.7,10.017-5.459.951.05,2.7-.313,2.783-.725,1.37-7.341,3.233-14.688,3.508-22.085.169-4.677-2.895-9.4-3.089-14.163-.313-7.785,1.207-15.663.644-23.411-.381-5.171-1.913-9.617,4.371-12.255,1.494-.632,2.2-3.133,3.808-5.584,1.97,1.332,3.614,2.651,5.446,3.639,4.1,2.207,7.979,5.021,12.887.888,1.42-1.194,4.7-.181,7.472-.181-.45,3.9-.75,6.509-1.119,9.748,4.333-.4,6.4-1.007,6.7-5.953.538-8.992,4.583-11.724,12.531-9.779.944-5.071-1.126-6.9-5.978-6.1-.481.081-.95.581-1.381.525-3.546-.444-7.072-.975-10.611-1.482,2.714-1.582,5.421-3.17,8.141-4.74.425-.25.882-.432,1.9-.919-5.465-8.673-13.919-12.993-22.723-16.851-1.364-.594-3.5-.769-4-1.776-5.784-11.561-15.945-5.083-24.174-5.64-2.332-.156-4.915,3.364-8.466,6-1.619-4.246-3.458-9.085-5.765-15.151-7.14,3.251-14.682,6.678-22.935,10.43V549.668c-4.952-1.082-5.215-.838-8.992,7.191-8.917,5.083-15.388,8.766-21.647,12.337.162-3.226.344-6.909.525-10.6l-2.97-.719c1.157,7.147-.682,12.412-7.016,15.582-.981.494.019,4.208-.713,6.122-1.031,2.7-2.514,7-4.345,7.3-5.766.944-11.812.675-17.7.219a93.331,93.331,0,0,1-13.875-2.67c-2.245-.525-5.059-1-6.416-2.545-4-4.577-6.672-2.926-8.829.657-2.276-1.019-4.927-3.2-6.153-2.582-4.752,2.426-9.048,5.74-15.263,9.892-2.658-1.638-7.56-4.665-13.725-8.466,1.87,3.577,2.695,6.847,4.777,8.76,3.814,3.52,3.164,6.778,2.232,11.343-1.464,7.172-1.288,14.688-1.77,22.06-.438,6.678-.031,13.55-1.57,19.959-.744,3.089-5.1,5.3-7.822,7.91-2.307-2.745-5.7-5.146-6.71-8.31-2.764-8.679-4.12-17.8-6.778-26.518-3.427-11.243-7.372-22.341-11.543-33.328-1.2-3.151-3.677-6-6.172-8.354-.851-.807-4.608-.275-5.19.725-1.588,2.7-2.007,6.059-3.2,9.029-2.864,7.091-5.64,14.238-9.067,21.053-.8,1.588-4.052,1.951-6.178,2.876-.787-2.151-2.251-4.3-2.251-6.453-.019-7.9.431-15.807.719-23.711-3.864-.769-7.753-1.538-13.162-2.614a29.413,29.413,0,0,1-3.358,5.953c-1.226,1.476-3.47,2.107-5.252,3.114-.869-1.551-2.482-3.114-2.463-4.658.031-4.365-1.219-8.448,4.289-12.162,4.527-3.051,6.322-10.167,8.141-16.876C1492.881,552.063,1490.2,552.951,1486.541,554.157ZM1843.653,405.19c-.8-5.759-1.332-9.629-1.9-13.719C1849.625,393.566,1850.106,395.635,1843.653,405.19Zm-9.936,2.451c.193,6.071-4.583,7.947-15.457,4.027C1824.169,410.123,1829,408.866,1833.717,407.641ZM1479.794,620.313c7.278-4.671,18.933,2.214,19.046,13.062-.957.732-2.739,3.083-4.934,3.564-4.246.938-15.857-6.384-16.67-10.549A7.248,7.248,0,0,1,1479.794,620.313Zm-3.214,253.372c-5.215,4.177-10.43,8.36-15.525,12.443,1.938,3.2,3.295,5.44,4.846,8-6.8.707-11.405,2.889-11.193,10.073.006.25.075.619-.056.732-6.991,6-3.064,11.818.35,17.564,1.645,2.776,2.97,6.315,5.465,7.9,8.135,5.171,2.332,8.673-.65,13.9l-4.234-6.278c-5.071,7.785-4.171,11.386,3.92,20.6,0,7.084.656,12.95-.187,18.59-.8,5.353-3.177,10.474-4.858,15.7l-2.858.194c-3.658-5.077-8.129-9.755-10.817-15.294-8.454-17.452-8.323-35.816-6.56-54.906,1.945-20.972,14.394-34.253,28.782-46.69,3.233-2.8,8.51-3.233,12.85-4.758ZM1460.3,500.789c1.963,2.139,2.463,5.534,4.089,8.072,2.457,3.814.675,9.486-3.727,10.649-5.221,1.376-10.467,2.633-16.2,4.064-2.226-7.178,2.8-25.074,8.235-27.162C1454.47,495.731,1458.334,498.651,1460.3,500.789Zm-5.6-31.214c-.344-1.495,2.482-3.727,4.821-6.9,3.2,3.383,5.2,5.509,7.209,7.628l-7.135,6.353C1457.853,474.321,1455.3,472.176,1454.695,469.575Zm3.014,92.861c.194.344-2.439,2.314-4.471,4.183l-7.416-6.472c2.332-1.282,4.871-3.821,6.941-3.477C1454.739,557,1456.421,560.2,1457.709,562.436Zm-9.311,42.676c6.39,3.445,11.512,5.834,16.2,8.891,2.22,1.451,3.6,4.177,5.359,6.328-2.782,1.451-6.015,4.6-8.248,4a43.878,43.878,0,0,1-14.594-7.159C1441.545,613.028,1442.652,609.189,1448.4,605.112ZM1437.381,231.7c5.884-1.369,16.927,8.923,18.246,15.863,2.482,13.118-8.848,15.776-15.682,21.866-.894.794-2.189,1.132-4.546,2.3-3.946-4.752-8.773-8.9-11.393-14.144C1420.21,250,1429.3,233.58,1437.381,231.7Zm-17.245,123.613c3.3,1.895,7.422,4.471,8.529,7.66,2.389,6.872,4.39,12.531,14.688,8.335-5.765,11.374,3.52,13.056,7.634,16.845,4.1-1.388,7.535-3.745,10.624-3.358,7.26.919,6.872,3.1,4.558,9.767-1.645,4.746-.188,10.924,1.069,16.176.682,2.845,3.964,5.015,5.853,7.647,4.321,6.028,3.389,11.755-1.57,16.889-6.428,6.665-13.212,13.125-5.971,23.754-2.945-1.488-5.9-2.983-8.56-4.327,1.907-12.374,3.764-24.411,5.3-34.372-4.352-4.915-7.785-8.873-11.312-12.75a100.254,100.254,0,0,0-8.242-8.6c-5.34-4.614-10.93-8.473-8.516-17.42.513-1.895-4.758-6.9-8.166-8-8.891-2.876-18.277-4.183-27.362-6.5-6.153-1.569-12.037-4.965-18.221-5.509-17.164-1.513-32.04,5.7-46.2,14.4-5.3,3.251-10.93,6.453-15.088,10.917-4.415,4.74-7.3,10.93-10.793,16.52-4.227,6.766-8.191,13.706-12.706,20.272-1.569,2.289-4.239,4.027-6.728,5.44-9.461,5.359-10.792,11.687-4.4,20.434,1.1,1.507,1.951,4.833,1.15,5.721-1.388,1.526-4.114,1.976-6.359,2.557-2.676.688-5.647.563-8.116,1.651-3.345,1.469-5.165,4.039-2.151,7.666a6.473,6.473,0,0,1,.919,2.045c1.151,3.314,2.032,9.348,3.458,9.479,5.265.475,11.161.069,15.976-1.988,6.628-2.833,12.918-4.064,19.346-.982a20.817,20.817,0,0,1,8.229,6.959,147.6,147.6,0,0,1,10.386,19.421c.925,2.057-.206,5.034-.482,8.748,4.4,2.339,9.967,5.928,16.845,2.132.844-.463,3.971,1.019,4.146,1.951.55,2.951.206,6.071.206,8.9,2.351-.607,7.472-3.633,9.78-2.182,7.053,4.433,16.2,6.959,19.909,17.17-8.96,1.488-16.508,6.778-26.062,4.333-11.1-2.839-17.6,1.557-20.9,12.6-1.545,5.152-3.689,10.13-5.722,15.632-4.458-2.939-8.666-6.059-13.187-8.635-17.133-9.748-26.981-26-37.723-41.531-4.221-6.109-9.536-11.505-13.412-17.8-2.582-4.189-5.121-9.479-4.89-14.138,1.119-22.054,3.1-44.064,4.978-66.074,1.2-14.081,7.416-25.693,17.933-35.153,3.7-3.327,7.51-6.841,10.142-10.986,6.466-10.18,16.8-14.582,27.15-18.44a288.171,288.171,0,0,1,34.835-10.173c4.9-1.151,10.33.1,15.52.044a20.846,20.846,0,0,0,7.241-.944c2.57-.994,4.8-2.87,7.172-4.365-1.357-1.882-2.67-3.8-4.077-5.646-.807-1.05-1.763-1.988-4.064-4.533.988,4.558,1.526,7.016,2.057,9.473-4.558-4.408-12.043-7.01-9.686-13.344,6.984-3.846,12.524-6.9,19-10.467l3.552,4.258c-8.422,3.489-8.016,7.866-2.576,13.037.932.882,1.213,2.614,1.476,4.014,1.632,8.773,7.484,12.162,15.663,9.173a6.374,6.374,0,0,1,4.071.294C1410.981,351.215,1415.815,352.835,1420.135,355.317ZM1298.468,342.1v20.3l-2.3.006C1293.39,355.523,1292.515,348.708,1298.468,342.1Zm37.486-83.175c-.262,1.9-.169,3.939-.869,5.665a78.362,78.362,0,0,1-4.127,7.8c2.532.863,5.477,2.976,7.5,2.307,3.12-1.032,5.953-3.652,8.248-6.2,1.626-1.8,2.163-4.583,3.145-6.828-.338-2.839-.607-5.177-.882-7.516,2.082.938,4.477,1.494,6.19,2.883a58.412,58.412,0,0,1,8.5,8.4c1.776,2.195,2.739,5.052,4.24,7.954,1.576-.575,4.233-1.544,8.6-3.133-2.2,9.567-2.426,17.658,7.266,22.466-5.034.194-8.51,5.127-13.25.788-1.038-.951-5.2,1.507-6.722,2l-5.721-11.343c-2.658,2.245-5.321,4.49-7.066,5.965-3.533-.907-8.523-3.677-10.317-2.295-2.657,2.051-3.058,7.041-4.627,11.355-9.035-6.021.194-13.031-3.258-19.471-4.765-2.176-10.423-4.752-16.439-7.5,1.425-.738,3.145-1.619,4.858-2.507l-.281-1.526c-3.277.6-6.559,1.2-10.392,1.907-2.288-3.964-2.226-6.791,4.089-6.772,5.321.019,11.068,1.4,14.313-5.171C1329.307,257.441,1333.527,258.623,1335.953,258.923Zm-3.264-19.24c4.546,1.038,9.167,2.1,15.826,3.633-3.051,2.7-5.183,5-5.49,4.783C1339.436,245.5,1336.085,242.553,1332.689,239.683Zm18.183,4.921h13.644C1362.5,252.07,1361.684,252.107,1350.873,244.6Zm58.82,21.6c.5.206.069,2.67.069,6.784-4.8-3.733-7.966-6.2-11.574-9.011-3.9,5.1-7.841,5.334-12.455-.169-1.544-1.845-5.458-1.695-8.773-2.582,5.415-7.616,10.886-15.32,16.107-22.667,1.144,3.652,3.821,8.154,11.011,6.8.581-.106,3.977,6.441,3.158,8.941C1405.61,259.229,1402.665,263.288,1409.693,266.2Zm-14.069,53.612c-1.256.225-3.3,1.032-3.645.575a74,74,0,0,1-4.515-7.616l2.345-1.276c.638.281,1.588.381,1.87.869C1393.092,314.792,1394.33,317.325,1395.624,319.813Zm15.97-88.078-20.522-4.658C1407.411,223.369,1410.919,224.551,1411.594,231.736Zm-110.631-91.867c.15,2.32,1.519,4.558,2.545,7.453,5.308-1.738,9.948-3.258,14.35-4.7,7.4,3.352,15.369,6.928,23.311,10.58,1.488.688,3.7,1.369,4.108,2.557,1.932,5.627,6.434,6.19,10.961,5.484,16.6-2.607,24.3,7.1,29.588,21.61.882-1.288,1.357-1.932,1.776-2.614.369-.613.675-1.257,1.626-3.064,3.689,10.048,11.43,17.614,6.934,29.038a19.563,19.563,0,0,1-22.31,11.837,30.153,30.153,0,0,0-13.094.331c6.966,1.644,14.231,2.182,16.77,10.38l2.576-4.421c2.451,6.972,4.277,12.156,6.1,17.345l-1.569,1.15c-2.351-2.22-4.364-5.259-7.153-6.447-2.933-1.251-8.242-2.257-9.692-.719-6.1,6.491-12.781.757-19.027,1.719-3.658.563-7.866-2.451-13.262-4.364,3.633-.813,6.009-1.351,8.479-1.9-12.574-5.6-12.4-1.707-11.9,8.329q-5.477,2.964-10.943,5.928l-1.545-1.263a60.234,60.234,0,0,1,2.82-5.653c1.413-2.251,4.8-5.715,4.358-6.259a24.572,24.572,0,0,0-7.841-6.059c-1.776-.919-4.2-.594-6.328-.832l-.381-1.976c2.264-.532,4.99-2.157,6.7-1.419,9.036,3.883,16.126,3.114,20.447-7.453-6.459-1.526-13.356-2.389-19.634-4.852-5.859-2.295-11.049-6.284-17.064-9.842-2.57,8.172-4.514,15.1-.682,23.417,2.17,4.708-.106,11.368.082,17.133.081,2.42,1.363,4.8,2.289,7.835-5.415,4.058-3.133,10.924-3.17,17.208-.037,6.04-1.632,12.919.694,17.927,3.814,8.229-2.657,14.05-2.357,21.141.306,7.453.375,14.926.5,22.391a35.477,35.477,0,0,1-.938,10.242c-8.673-7.009-7.435-16.77-7.472-25.337-.075-17.827,2.026-35.66,2.239-53.5.106-8.685-2.438-17.377-2.939-26.118-.287-5.015,1.126-10.13,2.8-15.107-6-16.22-3.945-33.584-4.077-50.592-.088-11.036,1.864-22.066,2.326-33.128.1-2.345-2.032-4.965-3.545-7.178-5.959-8.71-3.7-18.34-2.251-27.406.544-3.377,5.809-6,8.917-8.96l3.058.813c.707,9.217,1.551,18.421,2.076,27.65C1300.637,125.412,1300.481,132.666,1300.963,139.869Zm-18.4-184.228c4.808-2.132,12.743,3.145,13.544,9.592,1.038,8.391,1.438,16.864,2.107,25.3l1.269.019c0,19.653.132,39.312-.15,58.964-.037,2.689-2.107,5.346-3.232,8.01-2.476-1.995-6.472-3.57-7.153-6.065-3.239-11.73-5.784-23.667-8.16-35.61-2.751-13.856-5.04-27.8-7.572-41.7C1272.318-30.778,1278.127-42.4,1282.567-44.359Zm-15.295,345.013c6.409,4.114,9.6,10.367,8.6,17.614-5.115-3.3-10.073-6-14.35-9.523-1.713-1.42-1.926-4.665-2.826-7.078C1261.613,301.249,1265.4,299.454,1267.272,300.655Zm-20.3,68.369a95.075,95.075,0,0,0,4.333-14.219c.482-2.395-.412-5.121-.913-7.654-.569-2.851-1.77-5.634-1.926-8.485-.062-1.188,1.663-2.976,2.983-3.552.844-.363,2.9.663,3.608,1.645,2.4,3.333,4.446,6.922,7.478,11.787,3.27-7.654,6.178-14.457,9.079-21.266l2.332.825c3.345,8.46-.982,16.082-3.414,23.911-4.471,14.419-8.448,29.026-13.6,43.207a164.591,164.591,0,0,1-13.625,28.419c-1.5,2.5-7.291,2.864-11.218,3.333-2.532.3-5.24-.907-7.879-1.482-.619-1.77-.807-4.252-2.045-5-3.627-2.189-4.346-4.039-1.845-7.785.913-1.369-.15-4.446-.95-6.49-1.638-4.2-.969-6.928,3.364-9.017,2.07-.994,3.57-3.314,5.134-5.19,5.24-6.3,10.386-12.693,15.595-19.021C1244.6,371.624,1246.394,370.568,1246.975,369.023Zm-24.893-202.93c-1.676-4.321-3.239-6.759-3.307-9.235-.037-1.226,3.3-3.889,4.039-3.552,2.364,1.075,4.227,3.258,6.284,5.008C1227.248,160.372,1225.391,162.423,1222.083,166.093Zm16.445-24.224c7.885,6.1,6.2,12.262-2.551,15.576-5.2-7.435-10.2-14.594-15.213-21.747l1.082-1.888C1227.46,136.43,1233.751,138.174,1238.528,141.87ZM1174,47.039c.776-.963,2.414-3,3.164-3.939,6.615,3.345,13.043,5.346,17.808,9.329,5.4,4.521,9.179,10.936,13.894,16.326,7.791,8.917,5.009,21.041,9.611,30.9,1.126,2.407,1.694,5.89,3.6,6.978,7.053,4,4.121,7.8.525,11.881-1.469,1.669-3.027,3.264-4.552,4.9-8.91-3.908-9.061-11.768-8.016-22.135-8.992,3.514-16.407,6.816-24.086,9.3-6.9,2.232-16.126-2.645-18.646-9.317-2.276-6-4.039-12.212-6.522-18.121-.957-2.276-3.277-3.971-5.934-7.041,4.708-1.113,8.5-1.645,12.03-2.92,7.135-2.576,8.116-6.109,2.089-10.323-8.06-5.646-17.158-9.786-25.474-15.1a46.068,46.068,0,0,1-11.955-11.624C1146.811,36.084,1159.192,44.819,1174,47.039Zm-10.68,62.785-1.919,1.788c-4.246-6.128-14.156-6.778-14.669-16.514l2.27-2.026ZM827.5,128.758c10.855-16.545,21.572-33.2,33.09-49.285,3.12-4.346,8.441-7.854,13.5-9.861,5.146-2.038,11.205-2.038,16.9-2.314,1.719-.087,3.533,1.888,5.3,2.92a25.665,25.665,0,0,1-3.514,3.864c-6.834,5.034-16.176,8.541-20.009,15.238-3.908,6.828-5.884,15.4-9.292,23.036-.688,1.544,2.083,4.765,3.464,7.084,3.252,5.471,3.633,10.042-1.113,15.52-2.739,3.164-7.648,5.928-6.234,12.487.663,3.051-3.433,7.06-5.171,10.724-1.826,3.833-.156,6.178,3.614,7.4,1.188.381,2.658.507,3.47,1.294a54.655,54.655,0,0,1,4.5,5.428c-1.813,1.344-3.445,3.37-5.478,3.933-9.811,2.707-17.2,13.419-13.856,21.835,1.057,2.657,4.884,4.439,7.754,6.09,2.814,1.62,6.021,2.564,9.054,3.8l-.681,2.782c-2.157,1.038-4.314,2.076-6.935,3.333,5.784,10.33-3.389,15.476-7.884,21.941-2.708,3.9-9.748,2.132-11.311-3.158a200.7,200.7,0,0,1-5.872-28.269c-1.226-8.6-.788-16.77,3.92-25.149,2.689-4.783,1.5-12.55.194-18.571-1.519-6.966-2.557-14.275-9.579-19.44C820.638,137.98,824.971,132.616,827.5,128.758Zm67.687,18.977c-11.518-4.771-13.787-10.192-8.235-19.515C889.732,134.8,892.32,140.932,895.19,147.735ZM847.462,243.8c-.325-.569,1.576-2.382,2.457-3.627,1.813,1.351,3.62,2.7,6.284,4.683-2.044,1.682-3.839,3.664-4.264,3.408A12.914,12.914,0,0,1,847.462,243.8Zm2.47,33.5c.119.388-3.814,3.02-4.715,2.52-4.946-2.72-9.092-21.291-6.4-26.806l2.782-.913C844.455,260.48,847.381,268.834,849.932,277.3ZM800.71,354.223c18.083.481,39.512-2.645,54.168,13.437l-.431,3.789c-16.852,0-33.816,1.238-50.517-.35s-33.121,6.678-52.436-.957C767.651,360.082,784.759,353.791,800.71,354.223Zm-71.47,119.4-5.621-.669c11.505-17.152,29.907-23.817,47.878-25.443,14.069-1.276,21.9-8.76,31.589-15.688,10.4-7.435,21.222-14.3,31.852-21.416,1.857-1.244,3.6-2.682,5.546-3.752,5.184-2.857,9.886-5.765,16.739-3.22,5.34,1.988,11.736,1.151,20.265,1.751-3.251-8.866-6.065-16.27-8.66-23.748-1.388-4.014-2.445-8.148-3.539-12.262-2.238-8.354-4.221-16.783-6.64-25.086-2.633-9.042-6.009-17.883-8.26-27.012-.675-2.751.369-7.122,2.314-9.079,5.652-5.7,8.26-11.217,1.788-18.027,5.209-3.533,8.579-3.2,12.85.156,3.689,2.889,8.629,4.333,13.212,5.79.856.269,3.351-2.214,3.9-3.827,2.732-8.016-1.113-14.488-5.946-20.259-5.04-6.021-5.127-10.142.888-16.395,5.208-5.415,8.2-13.437,10.755-20.8,3.977-11.436,6.159-23.492,10.236-34.885A88.715,88.715,0,0,1,911.573,179c5.434-7.71,14.726-8.954,22.642-3.37,9.779,6.9,21,7.522,32.2,9.536,17.971,3.22,35.479,9.1,53.487,11.918,8.673,1.357,18.24-.869,27.025-3.008,8.322-2.02,16.326-5.69,24.142-9.335,4.158-1.945,7.323-6,11.474-7.979a75.465,75.465,0,0,1,17.958-6.3q24.545-4.661,49.347-7.878c2.207-.294,6.053,2.545,7,4.821.807,1.938-1.482,5.165-3.026,9.636,1.613,1.075,4.452,3.977,7.866,5.071,16.808,5.377,24.349,18.558,27.975,34.109,4.046,17.358,5.853,35.235,9.948,52.58,3.87,16.37,11.53,31.314,19.265,46.359,5.778,11.243,7.816,24.611,2.082,37.648-1.269,2.9-.875,6.941-.131,10.2,2.139,9.41-1.714,17.064-5.909,24.911a16.735,16.735,0,0,0-1.782,9.148c.569,5.315,3.358,10.361-4.027,13.95-1.757.857-1.244,7.51-.663,11.318.162,1.075,4.24,1.782,6.6,2.238,2.876.556,5.828.732,8.76,1.044-2.007,1.319-4.021,2.645-6.534,4.3.256.807,1.238,2.251,1.007,3.458-.738,3.833-.788,9.092-3.252,10.955-2.695,2.038-7.891,1.507-11.78.844-1.413-.238-2.47-4-3.233-6.3-.92-2.739-1.351-5.64-2.852-8.6-4.677,7.81-10.224,14.888-10.086,24.711.044,2.782-2.595,5.709-4.3,8.379-1.576,2.47-3.552,4.7-5.79,7.6,2.17.456,3.489.738,4.8,1.013l1.382,1.457c-.982.288-1.97.569-2.952.863-5.315,1.588-5.884,4-3.758,9.454,1.344,3.445-.663,8.929-2.708,12.65-1.038,1.895-5.433,2.445-8.385,2.664-4.02.307-4.9-1.888-5.09-6.134-.3-6.559-.875-14.031-4.208-19.29-4.089-6.453-11.149-11.03-16.92-16.426a30.972,30.972,0,0,1-4-3.833c-7.185-9.748-11.937-21.147-22.26-28.776-5.246-3.883-8.116-10.83-12.9-15.538-3.777-3.714-8.842-6.134-13.95-9.536.494,2.764,1.119,6.484,1.832,10.186,1.295,6.784,2.87,13.525,3.771,20.359.175,1.332-2.151,4.277-3.389,4.308-13.963.419-28.132,1.8-41.85-.025-7.847-1.038-11.336,1.532-13.994,6.966-1.463,3-2.245,7.679-.919,10.43,2.957,6.109-.375,9.448-3.833,13-4.139,4.252-8.929,7.922-12.768,12.412-7.21,8.429-17.789,9.611-27.181,13.125-6.409,2.4-11.868,4.565-13.543,12.18-.451,2.063-3.771,5.14-5.528,4.984-7.816-.694-8.172,4.94-9.567,9.9a6.114,6.114,0,0,0-.231,2.226c.413,4,.888,8,1.344,11.993,4.171-1.151,8.317-2.383,12.512-3.414,3.733-.925,7.516-1.632,13.068-2.814,3.564-5.184,10.567-7.835,19.109-7.428a17.582,17.582,0,0,0,7.166-.913c11.774-4.671,14.394-4.121,22.985,6-7.353,13.344-22.285,11.061-33.221,16.526,1,2.726,2.395,5.99,3.4,9.367,1.863,6.228,10.617,10.617,18.258,9.429,3.8-.594,8.241-4.283,11.43,1.1,3.3,5.6.6,10.017-3.183,14.113-6.778,7.335-13.481,14.738-20.409,21.922-1.063,1.1-3.183,1.163-5.2,1.838,4.39,9,12.28,12.081,21.328,13.575,2.345.388,4.571,1.526,6.847,2.32-1.551,3.427-2.188,8.348-4.852,9.986-5.878,3.621-12.5,4.715-18.158-1.757-8.329-9.536-17.133-18.652-25.337-28.282-1.6-1.882-1.407-5.29-3.651-8.135-.225,1.813-.813,3.67-.6,5.434,1.244,10.586,2.557,21.172,4.1,31.721a95.4,95.4,0,0,0,3.276,15.251c.425,1.326,3.833,2.933,5.252,2.476,3.746-1.2,7.029-3.777,10.73-5.209a22.164,22.164,0,0,1,8.516-1.363c1.038.038,2.445,2.264,2.8,3.708.169.694-1.607,2.051-2.7,2.833-8.21,5.859-17.571,10.536-17.871,22.917-.081,3.258-3.233,6.384-4.746,9.68-5.684,12.418-11.03,25-17,37.273-3.739,7.7-8.629,14.713-16.633,18.5l-2.495-1.632c3.846-6.616,7.935-13.106,11.468-19.884,2.52-4.84,5.44-9.9,6.2-15.151,2.858-19.772,4.471-39.6,1.063-59.615-1.819-10.667-1.307-21.722-2.964-32.427-1.438-9.273-3.283-9.26-10.78-4.171-9.892,6.716-21.016,11.787-30.258,19.24-6.39,5.152-12.868,6.947-19.971,5.69-6.234-1.1-12.137-4.24-18.014-6.866-.713-.319-.313-3.039-.5-4.64-.525-4.415.425-10.13-1.995-12.943-3.745-4.364-8.735-1.519-13.294,1.5-6.653,4.408-14,3.145-20.653-.394-6.315-3.364-7.922-9.623-6.891-16.107,2.32-14.575-6.928-24.749-12.987-36.166-2.551-4.8-6.6-9.761-1.563-14.932a16.157,16.157,0,0,1,9.229-4.5c1.782-.181,3.839,3.326,5.928,4.977,2.826,2.232,5.6,4.665,8.748,6.322a228.194,228.194,0,0,0,21.6,10.286c2.27.907,5.59-.037,8.173-.9,4.221-1.413,8.235-3.452,11.855-5.021,2.27-2.651,4.064-5.859,6.785-7.678,4.458-2.989,10.036-4.433,14.094-7.8,2.088-1.726,3.145-6.534,2.37-9.317-.663-2.389-4.771-5.659-7.034-5.427-7.353.75-14.519,3.133-21.841,4.433-1.964.35-4.221-.919-6.34-1.444,1.494-2.251,2.707-6.153,4.527-6.459,7.034-1.176,14.262-1.088,21.4-1.726a83.324,83.324,0,0,0,9.023-1.776c-1.876-3.589-2.895-9.01-5.809-10.355-5.29-2.451-10.592-5.265-17.971-1.67-10.711,5.227-22.91,7.366-34.409,11.024-11.1,3.539-22.166,7.216-33.128,11.155a8.694,8.694,0,0,0-4.433,4.565c-2.345,5.809-6.29,6.978-12.018,5.728-13.825-3.026-27.731-5.684-41.569-8.66a16.528,16.528,0,0,1-5.971-2.858c-2.32-1.695-3.7-4.346-7.435-1.5-2.351,1.795-12.362-4.752-12.474-7.753-.482-12.693-6.378-20.491-19.4-22.148-.932-.119-1.807-.644-4.427-1.619,3.439-1.257,5.884-2.151,8.329-3.039ZM718.954,670.16c-4.083,3.1-6.94,6.822-8.966,6.415-2.776-.557-4.927-4.258-7.341-6.609,2.783-2.364,5.29-5.421,8.5-6.722C712.27,662.794,715.146,666.665,718.954,670.16ZM669.706,430.4c7.016-4.652,14.669-8.172,15.895-18.7.719-6.215,5.246-11.78,12.743-13.8,3.708-1,6.8-4.283,11.368-7.335-3.458,10.492-6.29,18.834-8.941,27.231-1.42,4.49,1.3,4.946,5,5.99,3.946,1.107,9.023,3.564,10.367,6.784,1.013,2.426-2.614,7.347-5.034,10.5-2.77,3.6-6.209,2.82-9.786.1-9.317-7.085-9.048-6.516-18.008.95-6.447,5.377-11.493,11.043-13.631,19.365-.45,1.745-4.346,4.052-6.09,3.652a9.313,9.313,0,0,1-5.89-5.421C655.319,451.561,662.6,435.116,669.706,430.4Zm3.77,48.672c-.613,2.926-3.17,5.546-5.258,7.966-.338.394-3.971-1.151-3.921-1.469a59.691,59.691,0,0,1,2.751-12.324c.688-1.813,3.245-2.914,5.052-4.414C672.7,472.62,674.109,476.059,673.477,479.073ZM665.142,589.58c3.058.707,5.446,4.3,8.141,6.6-3.627,3.3-6.978,7.072-11.124,9.486-.732.425-4.765-4.815-6.365-6.5C656.819,591.718,660.071,588.4,665.142,589.58ZM645.908,819.2a36.221,36.221,0,0,1,6.215-10.811c13.913-15.532,27.913-31,42.325-46.065C704.9,751.4,715.977,741.055,726.92,730.6c4.558-4.358,9.373-8.46,14.307-12.387,1.269-1.007,3.439-.888,7.3-1.77-6.347,7.816-11.774,13.506-16.045,19.972-8.967,13.562-16.714,27.975-26.218,41.131-4.271,5.915-11.468,9.773-17.514,14.332-7.241,5.453-9.9,12.75-7.572,21.729a37.232,37.232,0,0,1,.581,3.808c-10.48,2.664-20.559,5.4-30.733,7.741C646.24,826.256,644.145,823.643,645.908,819.2Zm.719,30.97c.369.05,1,2.826.563,3.189a21.194,21.194,0,0,1-5.99,3.614c-7.778,2.839-15.657,5.4-23.479,8.135-1.982.7-3.889,1.632-5.909,2.495-2.651-9.123-.281-11.43,8.123-12.262,6.666-.663,13.081-3.67,19.69-5.3A18.879,18.879,0,0,1,646.627,850.173ZM475.318,384.793a25.344,25.344,0,0,1,8.079-.95,138.871,138.871,0,0,1,64.535,16.726c12.775,7,28.219,11.849,36.817,25.493,1.47,2.326,2.6,4.865,3.889,7.31-2.87,1.019-5.734,2.076-8.629,3.026a8.733,8.733,0,0,1-2.232.15c-14.3-4.264-28.957-6.472-40.406-18.571-6.346-6.7-17.158-9.286-26.124-13.356-3.552-1.607-7.56-2.195-11.349-3.283-6.409-1.845-12.825-3.664-19.209-5.6-2.326-.706-4.946-1.207-6.778-2.645C470,390.02,470.653,386.306,475.318,384.793ZM455.284,532.535c2.657-.619,4.921-2.833,7.447-4.158,2.157-1.138,4.439-2.964,6.64-2.926,12.618.2,23.83-4.583,35.235-8.985,3.646-1.407,7.7-1.738,11.587-2.5,1.213-.238,2.851.2,3.646-.456,11.768-9.667,27.45-7.516,40.456-13.55,11.855-5.5,24.13-10.111,36.1-15.376,1.482-.656,3.264-3.051,3.145-4.49-.569-6.878-.675-14.094-2.97-20.459-3.183-8.835-4.1-13.662.331-24.717,10.067,11.168,20.1,21.328,28.851,32.5,3.464,4.415,6.728,10.774,1.207,17.058-.95,1.088.1,4.152.569,6.228,2.257,9.9,4.99,19.709,6.853,29.682,1.694,9.029-2.182,15.988-9.273,21.735-1.05.85.732,5.19,1.207,7.916l1.964.144-5.815,5.434a18.06,18.06,0,0,0,1.169,2.939c7.166,11.618,6.441,16.651-4.752,24.417-6.478,4.5-13.306,8.648-21.854,8.523-2.814-.038-5.684,1.476-8.479,2.42-13.3,4.515-26.575,9.1-39.893,13.575-1.113.375-2.864.656-3.6.075-7.084-5.571-14.169-2.02-21.428-.594-3.539.694-7.435.181-11.074-.394-10.3-1.62-20.634-5.271-30.789-4.777-7.253.35-17.07-1.2-21.9,8.729-1.438,2.951-6.484,4.033-9.673,6.265-7.472,5.246-14.682,10.886-22.323,15.882-2.107,1.376-5.978.181-7.929,1.644-5.252,3.952-10.761,8.1-14.481,13.362-2.4,3.383-1.807,8.873-2.232,11.468,3.458,1.545,5.834,2.814,8.348,3.67,3.258,1.107,6.584,2.457,9.954,2.707,9.473.7,17.733,2.557,20.241,13.681.256,1.144,3.514,1.669,5.421,2.364,2.207.8,4.465,1.476,5.965,3.752-8.266,1.526-16.814,2.2-24.711,4.84-6.378,2.132-12.274,6.221-17.714,10.33-1.6,1.213-.919,5.446-1.413,9.279-5.052-3.67-9.392-6.822-13.356-9.7-2.733,5.3-5.24,10.167-8.1,15.713,2.238-.907,4.239-1.713,6.153-2.489.544,2.27,1.069,4.49,1.695,7.085-1.288.882-3.208,1.732-4.39,3.183a4.375,4.375,0,0,0-.319,4.033c.469.807,2.514,1.169,3.733.982,8.91-1.407,10.161-.682,8.935,7.685-1.363,9.267,6.7,10.511,11.737,15.244-1.188,1.538-2.532,3.289-4.452,5.784,3.22.156,5.515.263,7.247.344-1.019,3.52-2.9,6.759-2.551,9.742.338,2.908,2.945,5.553,4.514,8.235-6.084,2.3-12.912,4.877-19.947,7.529l1.863,7.772c-7.835,1.519-14.713,2.72-22.085-1.132a80.891,80.891,0,0,0-21.441-8c-7.691-1.507-8.623-6.272-7.36-11.78,1.845-8.041,5.534-15.67,7.222-23.73.913-4.339-.45-9.248-1.238-13.825-1.094-6.334-2.038-12.8-4.164-18.815-1.276-3.62-4.734-6.453-7.1-9.723-1.213-1.67-2.908-3.508-2.951-5.3-.025-.975,2.826-2.351,4.59-2.983,3.639-1.307,7.422-2.232,11.143-3.32-1.4-3.552-2.658-7.172-4.24-10.642-1.951-4.283-4.314-8.385-6.253-12.674-4.133-9.173-4.014-18.233.869-26.725l21.235,11.243c.694-.606,1.394-1.219,2.095-1.826,0-7.9,1.132-16.007-.225-23.673-3.314-18.721,2.37-26.868,21.391-28.163,4.946-.338,9.923-.288,14.882-.506,7.11-.313,14.694-8.566,16.482-17.114-6.3-4.183-12.287-8.16-18.283-12.137l-.281,1.632c-3.245-.656-7.685-.225-9.479-2.2-3.264-3.583-3.821-7.841.819-12.368,5.159-5.027,7.36-13.031,15.426-15.219,3.252-.882,6.472-1.938,9.761-2.633C433.686,537,444.548,535.03,455.284,532.535ZM347.929,431.464c9.742-5.278,19.515-10.5,29.095-16.064a156.007,156.007,0,0,0,17.664-11.6c4.633-3.608,8.96-4.19,14.694-3.1,3.639.688,8.029-1.432,11.818-2.951,5.284-2.114,10.317-4.846,15.457-7.316l1.119,1.82c-4.246,6.616-8.073,13.556-12.862,19.753-3.82,4.94-8.979,7.159-15.569,3.733-1.876-.976-5.3.012-7.453,1.163-.694.375.431,4.14.906,7.722-3.933,4.54-7.666,11.3-17.652,8.917-2.176-.519-5.746,4.759-8.654,7.4-2.32,2.1-4.433,4.471-6.934,6.328-3.189,2.376-6.459,4.877-10.08,6.4a145.448,145.448,0,0,1-17.883,6.009c-4.052,1.113-6.409-.538-7.066-5.2C332.472,439.855,332.334,439.912,347.929,431.464Zm-19.79,37.711c-.219,4.127-.431,8.273-.744,14.2-3.814,1.432-8.86,3.333-14.269,5.365C312.275,480.443,321.886,468.937,328.139,469.175Z" transform="translate(-297.637 303.758)"/>
      </g>
    </g>
  </g>
</svg>
