<svg xmlns="http://www.w3.org/2000/svg" width="14.469" height="31.127" viewBox="0 0 14.469 31.127">
  <path id="Path_1007" data-name="Path 1007" d="M-201.622-114.834v-5.58c.787,0,1.543-.034,2.294.011.549.033.659-.182.671-.687a35.464,35.464,0,0,1,.23-4.538,5.452,5.452,0,0,1,5.133-4.692c1.835-.124,3.681-.085,5.522-.124.326-.007.485.1.483.458q-.018,2.308,0,4.618c0,.385-.164.491-.514.488-.969-.01-1.939-.008-2.908,0a1.129,1.129,0,0,0-1.272.965,1.106,1.106,0,0,0,0,.293c-.016.874.011,1.749-.015,2.622-.013.439.121.606.583.6,1.178-.029,2.357-.009,3.535-.009h.729l-.5,5.58h-3.529c-.809,0-.81,0-.81.807v13.855c0,.841,0,.842-.861.842-1.691,0-3.384-.021-5.074.012-.574.011-.755-.171-.752-.746.019-4.676.011-9.351.01-14.026,0-.743,0-.744-.758-.744Z" transform="translate(201.622 130.444)" fill="#fff"/>
</svg>
