<svg xmlns="http://www.w3.org/2000/svg" width="43.996" height="24.65" viewBox="0 0 43.996 24.65">
  <g id="Group_20" data-name="Group 20" transform="translate(-35 -40)">
    <g id="Group_1" data-name="Group 1" transform="translate(-389 -301)">
      <path id="Path_1" data-name="Path 1" d="M521.421,365.63v-.92h2.568V341.989h-.364l-7.291,23.641h-.989l-6.822-23.641h-.4V364.71H510.8v.92h-6.509v-.92h2.673V341.919h-2.673V341h7.5l5.364,18.45L522.81,341h7.359v.919H527.5V364.71h2.673v.92Z" transform="translate(-62.173)" fill="#fff"/>
      <path id="Path_2" data-name="Path 2" d="M440.364,365.65H424v-.92h2.675V341.92H424V341h8.825v.92h-2.64v22.809h3.926a4.451,4.451,0,0,0,1.346-.2,5.048,5.048,0,0,0,1.172-.539,4.6,4.6,0,0,0,.964-.808,5.584,5.584,0,0,0,.738-1.024,11.219,11.219,0,0,0,.556-1.182q.26-.642.477-1.268t.365-1.172q.148-.546.235-.859h.9Z" fill="#fff"/>
    </g>
  </g>
</svg>
