<svg xmlns="http://www.w3.org/2000/svg" xmlns:xlink="http://www.w3.org/1999/xlink" width="1919.949" height="1168.143" viewBox="0 0 1919.949 1168.143">
  <defs>
    <clipPath id="clip-path">
      <rect id="Rectangle_88" data-name="Rectangle 88" width="1919.949" height="1168.143" fill="none"/>
    </clipPath>
  </defs>
  <g id="Group_59" data-name="Group 59" transform="translate(1414.63 1391.834)" opacity="0.219">
    <g id="Group_58" data-name="Group 58" transform="translate(-1414.63 -1391.834)">
      <g id="Group_57" data-name="Group 57" clip-path="url(#clip-path)">
        <g id="Group_56" data-name="Group 56" transform="translate(-0.301 -264.711)">
          <path id="Path_1013" data-name="Path 1013" d="M-752.894-1052.66c-2.478,2.057-4.9,4.182-7.451,6.145a35.929,35.929,0,0,1-5.2,3.359c-2.13,1.115-5.383,1.35-6.439,3.037-4.9,7.833-9.282,16-13.655,24.145-.794,1.479-.679,3.445-1.173,6.271,12.79-10.4,24.434-19.858,36.729-29.853C-756.945-1042.692-755.433-1047.293-752.894-1052.66Z" transform="translate(1751.414 1838.329)"/>
          <path id="Path_1014" data-name="Path 1014" d="M-720.244-900.872q-.958-1.456-1.917-2.909c-4.215,1.768-11.853,3.215-12.053,5.357-.886,9.479-6.8,14.36-13.53,19.035-3.227,2.241-7.448,4.648-4.239,8.8,2.683,3.479,6.3,3.726,11.612,1.184C-726.319-876.128-732.136-893.641-720.244-900.872Z" transform="translate(1769.468 1918.122)"/>
          <path id="Path_1015" data-name="Path 1015" d="M-679.92-847.378l1.71-.4a65.029,65.029,0,0,0-.052-8.284c-1.273-9.806-2.642-19.6-4.267-29.357-.364-2.189-1.444-4.794-3.081-6.052-1.158-.889-5.039-.476-5.552.493-1.16,2.195-1.86,5.337-1.209,7.663,3.006,10.738,6.494,21.341,9.936,31.951C-681.966-849.913-680.775-848.7-679.92-847.378Z" transform="translate(1801.897 1924.458)"/>
          <path id="Path_1016" data-name="Path 1016" d="M-687.8-699.122l.066-2.212c-2.7-.938-5.462-1.723-8.073-2.86-2.891-1.256-5.64-2.834-9.435-4.775,8.927-6.112,5.118-11.779,1.588-17.524-7.72,3.078-11.076,10.16-7.718,15.148,2.1,3.123,3.1,6.987,5.155,10.151,1.329,2.043,3.717,4.852,5.571,4.807C-696.349-696.49-692.085-698.115-687.8-699.122Z" transform="translate(1791.149 2013.141)"/>
          <path id="Path_1017" data-name="Path 1017" d="M-726.784-923.33c-8.276-11.67-17.1-15.313-27.068-10.065l10.66,3.838c-.359,1.617-.879,3.574-1.209,5.562-.3,1.8-.39,3.626-.573,5.44,1.911.052,3.974.591,5.7.055C-735.251-919.744-731.393-921.507-726.784-923.33Z" transform="translate(1769.08 1900.993)"/>
          <path id="Path_1018" data-name="Path 1018" d="M-677.926-781.721c4.59,11.887-8.179,22.012-.444,33.146C-668.564-758.666-667.592-777.107-677.926-781.721Z" transform="translate(1808.168 1983.541)"/>
          <path id="Path_1019" data-name="Path 1019" d="M-660-929.433l1.161-2.414q-3.73-3.9-7.471-7.793l4.873-1.534c-7.683-3.043-12.031-13.936-23.6-6.417C-675.51-944-668-939.7-665.095-930.338-664.86-929.582-661.763-929.714-660-929.433Z" transform="translate(1805.964 1893.249)"/>
          <path id="Path_1020" data-name="Path 1020" d="M-631.236-971.623q-1.329-1.2-2.662-2.4l-12.592,13.994,2.8,2.5Z" transform="translate(1826.622 1880.477)"/>
          <path id="Path_1021" data-name="Path 1021" d="M-745.765-906.18c-8.443-1.328-9.724,4.966-13.1,9.022q.956.993,1.911,1.985Z" transform="translate(1766.395 1916.74)"/>
          <path id="Path_1022" data-name="Path 1022" d="M-529.9-724.229c.88-4.663,10.547-8.959,0-14.879Z" transform="translate(1889.112 2006.38)"/>
          <path id="Path_1023" data-name="Path 1023" d="M-690.062-729.647l-2.2-.418c-.4,1.785-1.736,4.23-1.028,5.219,1.682,2.353,4.327,4.015,6.583,5.956l1.945-2.057Z" transform="translate(1801.43 2011.227)"/>
          <path id="Path_1024" data-name="Path 1024" d="M-695.214-891.085l12.48-6.706C-693.945-897.832-693.945-897.832-695.214-891.085Z" transform="translate(1800.508 1921.329)"/>
          <path id="Path_1025" data-name="Path 1025" d="M-177.3-1060.562l1.8-8.5-2.2,1.222c-4.293-4.428-8.588-8.856-13.475-13.9-1.421,2.731-2.891,5.562-3.989,7.672,1.166,2.583,3.222,5.121,2.623,6.253-1.089,2.058-3.613,4.388-5.789,4.671-14.427,1.874-28.944,3.049-43.388,4.8-32.221,3.911-64.42,8.016-96.621,12.089-1.418.18-2.774.83-6.443,1.971l8.078,4.317q-.3,1.673-.605,3.345c-19.828,3.971-39.611,8.175-59.494,11.847-19.693,3.637-39.483,6.737-59.657,11.676,3.636,1.353,7.227,2.844,10.918,4.024,4.391,1.4,6.827,3.328,3.951,8.3-1.109,1.914-2.215,4.651-1.674,6.542,1.6,5.577-.868,8.528-5.2,11.222-1.433.891-2.055,3.089-3.41,5.273l7.87,2.115.367,1.727c-13.337,4.76-26.448,10.348-40.067,14.074a518.567,518.567,0,0,1-53.828,11.99c-19.646,3.18-39.573,4.651-59.393,6.73-36.869,3.869-73.775,7.411-110.6,11.652-6.966.8-9.191-1.627-10.274-7.608-1.625-8.975-.439-12.251,6.4-13.326,21.081-3.313,42.2-6.356,63.323-9.435,28.759-4.192,57.548-8.19,86.284-12.544,11.38-1.724,22.861-3.417,33.92-6.48,15.842-4.387,31.519-9.531,46.917-15.287,9.663-3.613,10.417-18.091,1.556-23.741-17.058-10.879-35.6-15.148-55.708-11.167a6.683,6.683,0,0,0-2.918.868c-15.381,12.936-34.473,9.457-52.045,10.767-25.976,1.937-52.146,1.195-78.22,2.027-3.387.109-6.56,3.347-10.059,4.2-13.6,3.327-27.165,7.655-41.455,3.881-.952-.25-2.253-.693-2.92-.283-10.471,6.46-21.336,5.416-32.424,2.081-1.049-.315-2.516.218-3.622.722-7.282,3.305-13.108-.883-19.044-3.863-.8-.406-.464-3.092-.883-6.68a87.215,87.215,0,0,0-9.909-.716c-.339,0-.64,3.689-1.052,6.236l-15.681,1.753-.851-2.5q2.419-2.587,4.84-5.175l-.338-1.668c-4.229,1.321-9.829,1.5-12.214,4.356-1.66,1.989.872,7.721,1.92,11.679,3.5,13.24,10.815,25.626,4.477,40.5-2.505,5.881-.412,13.724-.412,21.724,7.721-.535,16.422-1.14,25.388-1.762v-8.013a17.748,17.748,0,0,1,2.832-1c10.065-1.785,20.156-3.433,30.209-5.288,10.282-1.9,12.5-.644,15.489,9.282,3.766,12.523,3.766,12.523,13.255,18.577-2.955,1.763-5.064,3.6-7.511,4.388-21.955,7.064-44.615,8.325-67.47,7.856-5.878-.121-11.762.034-17.642-.061-9.805-.16-9.805-.2-9.406-9.8l-24.813,13.707,2.957,10.331c-1.686-1.25-2.51-1.55-2.8-2.12-5.374-10.56-5.351-10.526-17.083-7.729a41.644,41.644,0,0,1-6.255.479l1.029,7.634-1.009.508c-.783-1.244-1.487-2.55-2.375-3.716-.876-1.15-1.937-2.156-3.817-4.207l-1.353,8.743c-2.047-2.326-3.434-3.9-5.125-5.818l-4.02,5.184c-2.2-11.128-9.185-4.835-15.255-4.651-.143-2.834-511.883,7.582-511.909,5.127-.336-31.7.507-84.791,0-116.492-.1-6.153,513.926,2.908,517.978,3.053,16.1.579,32.2,1.108,48.3,1.5,2.817.068,5.651-.6,8.477-.934l.02-2.118c-3.057-.762-6.131-1.455-9.165-2.295-16.972-4.7-33.912-9.521-50.917-14.1-4.725-1.273-295.571-117.708-295.619-122.591-.309-31.217,288.326,51.421,287.734,20.21-.422-22.221-1.281-44.432-1.7-66.652-.485-25.706-.71-51.418-1.009-77.127-.014-1.17.355-2.344,2.253-3.918,1.581,4.749,2.229,10.157,4.993,14.068,2.925,4.138,7.864,6.852,11.925,10.187l2.542-1.456c-.828-24.142-1.656-48.283-2.556-74.579,12.486,0,24.414-.167,36.323.25,1.229.043,3.382,3.616,3.319,5.488-.287,8.414-1.757,16.8-1.794,25.2-.055,12.454.422,24.933,1.283,37.359.614,8.885-2.794,11.99-11.948,10.236-3.365-.645-6.958-.1-12.375-.1l5.43,7.144-4.457,1.567c-3.587-1.943-6.168-4.2-9.033-4.646-2.707-.424-5.711,1.05-9.718,1.943,12.437,6.416,23.52,7.825,35.031,6.34.951-.123,2.053.928,4.043,1.9-11.821,7.444-26.67-2.617-36.628,7.5l.366,2.56c6.316-.63,12.632-1.244,18.945-1.894,4.5-.464,9.078-1.665,13.481-1.2,2.533.266,5.244,2.811,7.062,5,2.888,3.479,5.1,7.523,8.2,12.259-2.723,0-6.072.163-9.4-.031-11.168-.647-22.357-1.136-33.484-2.241-8.436-.839-4.889,7.463-8.556,11.12,11.346.651,22.686,1.5,34.042,1.869,5.5.181,8.348,1.858,6.488,9.348-11.271-1.183-22.792-2.573-34.352-3.5-3.775-.3-9.669-.757-11.019,1.257-2.2,3.284-2.087,8.575-1.815,12.948.29,4.623,1.908,9.164,3.4,15.753l27.978-3.359-.065-3.055-23.174-1.346-.034-3.139,46.242-3.494.917,3.609-14.016,5.043c5.078.525,8.116.84,11.913,1.235-.287,5.112-.92,10.083-.676,15.012.1,2.12,2.029,4.15,3.127,6.222,1.255-1.889,3.236-3.64,3.628-5.694,1.13-5.917,1.5-11.975,2.437-17.934.244-1.556,1.478-2.957,4.3-4.393,1.376,10.4,4.178,20.863,3.64,31.157-.37,7.061,2.368,7.895,7.2,8.419,23.147,2.5,46.383,4.321,69.448,7.425,52.981,7.133,105.881,14.87,158.814,22.376,4.052.575,8.068,1.459,12.136,1.863,7.847.782,17.51,6.634,19.912-8.917l2.954,1.766c.707,8.488,1.413,16.977,2.138,25.7l-7.127,2.253c10.13,4.024,19.626,6.124,30.716,1.144,8.087-3.631,17.932-3.539,27.048-4.657,25.886-3.178,51.806-6.061,77.695-9.214,5.568-.679,11.262-1.4,16.541-3.167,11.669-3.906,23.31-.844,34.96-.82,7.918.017,9.594-1.406,9.721-8.737-6.261,8.474-13.642,4-20.934,3.96a429.4,429.4,0,0,0-50.332,2.577c-28.179,3.167-56.256,7.284-84.323,11.375-6.7.977-13.748,1.141-18.792,7.8-2.762,3.65-7.99,4.484-10.017.094,2.9-4.883,5.827-8.248,6.666-12.073.287-1.307-4.657-3.763-8.812-6.906-.029-1.51-3.405-6.075,3.731-7.724,1.1-.255,2.488-2.777,2.3-4.032-.154-1.008-2.419-1.88-3.889-2.439-1.058-.4-2.352-.186-4.122-.275.763-3.383,1.381-6.115,2.072-9.176l54.806-6.142,3.08,7.931,7.987-2.249c.012-3.528-3.761-9.455,3.359-7.866,1.458,3.146,2.206,6.224,4.109,8.176.8.818,5.517-.264,5.866-1.329.7-2.14-.378-4.862-1.112-10.169,2.82,2.923,5.093,4.268,5.772,6.18,1.636,4.6,4.086,5.433,7.761,3.278-1.9-2.559-3.748-5.056-5.6-7.554,5.3-1.413,10.592-2.828,17.341-4.628-1.9,7.919-.63,11.617,7.9,9.675l-6.622-3.823c4.791-2.224,8.3-5.021,12.042-5.394,20.966-2.094,41.992-3.6,65.808-5.536l-6.324,18.408c2.94,4.806,5.66,9.256,8.717,14.254,2.688-7.874,2.06-16.23.886-24.509-1.292-9.113-6.465-14.663-15.928-15.856-7.359-.928-14.7-2.018-22.024-3.184-9.827-1.564-11.451-3.765-7.711-12.635a101.86,101.86,0,0,1,10-17.505c3.622-5.305.668-9.448-1.917-13.212-2.657-3.874-2.281-7.015-1.123-11.229,1.64-5.978,1.935-12.326,2.858-18.888,3.3,1.683,6.184,3.152,9.065,4.62l-.553-2.017c4.4-2.177,8.821-4.294,13.172-6.56,1.84-.957,3.519-2.223,5.271-3.348-1.771-1.083-3.522-2.2-5.321-3.23a27.726,27.726,0,0,0-3.322-1.191c2.625-.837,4.491-.928,5.6-1.889a36.629,36.629,0,0,0,7-7.448c1.24-1.923,1.176-4.686,1.7-7.074,2.432,2.044,6.732,3.91,6.944,6.164.642,6.8,4.771,6.634,9.191,5.772,5.368-1.046,11.48,1.473,15.776-5.717,1.471-2.462,9.938-4.443,15.948.59,6.939,5.812,16.1,6.344,25.17,6.018-1.06-4.284-1.929-7.792-3.012-12.162l-5.44-1.335.164-1.891,35.464,1.693-.04,2.756c-2.051,0-4.1-.021-6.148,0-2.551.031-5.522-.713-7.555.34-3.226,1.668-5.823,4.548-8.686,6.915,3.195-.158,6.551.26,9.558-.577,10.486-2.914,12.126-1.567,11.765,9.154-.356,10.58-.078,21.179-.078,33.094l8.346-1.9c0,4.729.578,9.908-.3,14.828-.327,1.831-3.99,4.247-6.237,4.364-13.761.717-27.552.845-41.333,1.181-3.064.074-7.646,1.525-8.929.063-5.586-6.375-12.626-.679-19.16-3.966,10-1.536,19.425-2.981,28.85-4.427l.037-1.682a69.581,69.581,0,0,1-7.787-1.565c-2.113-.664-5.27-1.461-5.849-3-3.791-10.041-13.328-8.068-20.682-9.993-5.333-1.4-4.722,3.711-4.067,6.689,2.456,11.194-2.121,21.236-7.833,29.317-5.786,8.184-6.5,17-8.239,25.675-1.8,9.008-.381,9.756,8.669,9.5,10.742-.309,21.485-1.15,32.221-1.058,26.346.228,52.688,1.06,79.034,1.124,4.4.011,8.813-2.609,14.413-4.393-10.8-9.933-8.223-21.061-10.271-31.246a11.219,11.219,0,0,1-2.181-.054c-.319-.05-.539-.736-.089-.066l9.893-24.417,4.106,2.668,1.384-1.336-5.972-6.835,12.145-14.274-2.27-2.072-17.581,14.541c-.132-.51-1.547-2.829-1.051-4.62,2.3-8.3,5.125-16.45,7.763-24.653l-2.224-.968c-1.043,1.544-2.413,2.958-3.069,4.651-2.5,6.439-2.554,13.623-8.546,19-2.032,1.823-.7,8.119.111,12.169.707,3.545,2.834,6.806,4.708,11.037-9.457.579-9.69,5.563-8.738,12.27.886,6.24.189,12.707.189,19.608-2.481,1.081-5.4,2.353-7.74,3.37.665-7.589,1.789-15.017,1.843-22.453.06-8.385-1.258-16.783-1.126-25.162.055-3.424,2.344-6.812,4.123-11.577,0-8.186-.453-18.227.155-28.2.428-7.047,2.858-13.974,3.288-21.023.22-3.615-1.988-7.379-3.508-12.444l10.3,3.051c.258-10.916,10.108-6.706,15.292-7.909,11.767-2.728,24.167-2.984,36.342-3.516,3.272-.143,7.067,1.748,9.907,3.731,6.115,4.268,9.69.762,12.616-3.086,2.54,2.046,5.473,3.4,6.763,5.688,1.8,3.19,3.6,7.207,3.216,10.627-.742,6.666-3.139,13.134-4.534,19.751-.4,1.9.292,4.027.531,6.574l4.821-1.365c3.981,16.352,2.68,20.717-9.952,23.081-1.1,3.779-1.977,6.846-2.888,9.9-.5,1.69-1.6,3.41-1.456,5.029.178,1.992,1.37,3.894,2.123,5.833,1.365-1.485,3.17-2.768,3.98-4.511.915-1.971.938-4.357,1.4-6.847,5.668,6.339,3.293,26.312-4.477,38.583v-22.012c-4.491,11.764-7.821,23.752-6.305,37a14.633,14.633,0,0,0,2.428-.47,45.294,45.294,0,0,0,4.013-2.424c-.533,5.388-.829,9.265-1.318,13.115-.673,5.294-2.086,10.593-1.865,15.836.063,1.5,4.585,3.755,7.236,4.041,21.081,2.27,42.383,3.053,63.257,6.487,17.4,2.863,34.276,8.862,51.469,13.131,7.426,1.843,15.135,2.539,22.565,4.368,2.365.582,4.245,3.135,6.348,4.786-2,1.688-3.861,4.639-6.021,4.877-37.875,4.176-75.8,7.946-113.687,11.987-9.4,1-18.759,2.522-28.085,4.109-2.316.395-4.431,1.978-7.211,3.284,49.555,14.314,99.148,10.773,148.744,7.205q.329,1.723.66,3.447c-2.851.792-5.678,2.179-8.552,2.285-26.844.977-53.731,1.154-80.532,2.774-15.873.958-31.607,4.149-47.418,6.21A69.163,69.163,0,0,1-177.3-1060.562Zm-727.582-82.656-1.2,3.164q29.5,16.913,59.008,33.83l2.258-2.014c-2.013-4.076-4.027-8.153-6.205-12.559,2.47-.438,5.874-1.207,9.32-1.621,11.739-1.407,11.744-1.358,9.065-10.5-4.665-3.6-10.217-6.052-10.068-8.088.573-7.846-3.785-7.647-9.028-7.446-7.382.284-14.8.946-22.145.522A76.627,76.627,0,0,0-904.884-1143.218Zm63.251,36.748-1.055,1.815c8.445,6.234,16.372,13.4,25.468,18.471,11.518,6.419,21.529,1.616,25.69-10.922l11.73,1.244c-5.864-6.663-23.482-11.5-29.564-9.428-9.905,3.379-19.871,7.094-29.567-.716C-839.554-1106.506-840.721-1106.332-841.633-1106.47Zm612.1,9.761c3.037-5.033,6.239-9.271,8.311-14.005,4.153-9.484-.424-18.554-2.407-27.673-.221-1.017-2.106-2.069-3.4-2.393-11.3-2.832-22.413-5.376-34.461-4.476-16.1,1.2-32.347.3-48.532.3l-.023,1.871c.968.132,1.931.341,2.9.385,23,1.035,46.01,1.958,69,3.147,5.064.261,11.99-.753,9.078,8.678-.39,1.261,2.43,3.47,3.666,5.3a9.177,9.177,0,0,1,.723,2.276l-3.5.395C-228.626-1114.146-229.044-1106.134-229.537-1096.709Zm30.853-147.407c-.926-3.719-2.912-7.314-2.387-10.494,1.118-6.771-.332-8.932-6.989-7.69-10.4,1.938-14.386,7.674-13.536,19.477.461,6.4,7.531,11.988,16.822,12.454-1.918-3.344-3.536-6.164-5.5-9.583Zm-137.988,3.339,8.065-5.321c-5.342-.72-11.406-1.514-14.489,1.146-3.694,3.186-6.563,3.829-10.783,3.115a82.926,82.926,0,0,0-9.1-.585l-.327,2.4c2.163.607,4.357,1.115,6.479,1.843,2.6.892,7.135,1.634,7.367,3.021,1.261,7.548,8.214,7.967,11.093,10.629,1.9-4.056,2.825-10.346,5.824-11.575,6.906-2.829,13.834-.733,17.373,7.483,8.7-5.833-.207-10.632,1.565-17.491C-320.515-1236.5-323.094-1236.025-336.672-1240.778ZM-503.13-1112.762l-.131.57a47.551,47.551,0,0,0,5.3-.026q49.836-5.582,99.658-11.289c4.434-.513,9.461-7.819,8.543-12.3,1.218-.207,2.577-.129,3.588-.684a34.325,34.325,0,0,0,4.3-3.25c-1.359-1.379-2.5-3.323-4.147-3.972-1.464-.576-4.562-.324-5.093.611-2.9,5.105-5.238,10.537-8.194,16.751C-432.866-1121.956-468-1117.359-503.13-1112.762ZM-197.067-1268.5c3.669-1.966,7.531-2.811,7.933-4.488,1.071-4.448.648-9.257.82-13.922-2.568.536-5.116,1.2-7.709,1.558-1.405.192-2.921-.4-4.321-.186-2.517.379-4.983,1.094-7.469,1.668q-.359,1.541-.717,3.084l12.182,6.1C-196.4-1274.235-196.592-1272.594-197.067-1268.5Zm-29.653-11.331c2.777,3.959,5.4,8.328,5.78,8.142,3.582-1.768,6.783-4.31,10.094-6.629-2.29-2.175-4.35-5.683-6.938-6.13C-220.111-1284.855-223.018-1281.9-226.72-1279.835ZM-386.751-1128.35l-2.881.223c-1.106,2.692-2.886,5.346-3.032,8.09-.074,1.376,3.441,4.43,4.272,4.095,2.693-1.084,4.9-3.387,7.285-5.219Zm84.467-86.77.2,2.112c8.19,1.931,20.087.28,24.692-4.735C-286.7-1216.761-294.491-1215.94-302.284-1215.12Zm72.639,129.11,13.569-8.932C-228.658-1097-230.627-1095.7-229.646-1086.01Zm-442.516-29.5,1.82.089q.947,3.85,1.894,7.7l2.064-.74c-1.627-4.011-3.216-8.036-4.987-11.981a4.932,4.932,0,0,0-2.58.531c-.4,3.837-.564,7.7-.751,11.557,0,.067.432.155.882.31Zm70.762,38.239,3.127,1.51c.961-1.986,2.983-4.205,2.609-5.9-.438-1.988-2.955-3.518-4.571-5.245-1.189,1.7-2.978,3.267-3.362,5.128C-603.864-1080.476-602.2-1078.782-601.4-1077.266Zm-97.543-34.743,2.206-.938q-3.143-5.829-6.288-11.655l-4.2,10.154,1.379.537c.86-2.144,1.719-4.288,3.508-8.752C-700.738-1117.638-699.841-1114.824-698.943-1112.009Zm17.714-9.905c-5.456,4.5-5.456,4.5,0,12.214Zm-32.487-5.576c-1.8,5.419-3.1,9.311-4.308,12.942l6.666-1.363c0-2.141.065-5.135-.054-8.122C-711.435-1124.627-712.149-1125.2-713.716-1127.49Zm276.219-8.346c1.865-2.812,3.855-4.624,3.5-5.543-.653-1.717-2.668-2.917-4.115-4.333-1.214,1.269-3.456,2.594-3.39,3.792C-441.407-1140.3-439.55-1138.769-437.5-1135.836Z" transform="translate(1414.901 1687.141)"/>
          <path id="Path_1026" data-name="Path 1026" d="M-865.855-1265.146l8.114-4.17c-2.186-1.874-4.089-4.542-6.62-5.436-3.923-1.386-8.271-1.559-11.1-2.024-1.68-8.328-3.141-15.572-4.646-23.034,3.444-1.1,17.476,2.8,18.806,7.135,1.516,4.932,1.6,10.3,2.379,15.976,6.164-5.308,11.116-9.572,16.447-14.161,2.734,5.929,5.059,11.495,7.881,16.8.928,1.74,3.144,2.794,4.772,4.161a37.863,37.863,0,0,0,3.952-5.123c.691-1.269.045-3.609.932-4.357,2.1-1.763,6.717-4.278,6.9-4.024,6.307,8.744,10.563-1,15.585-1.886.945-.167,1.187-4.29,2.13-8.11,2.046,3.548,3.6,6.638,5.545,9.455,1.121,1.622,2.725,3.717,4.39,4.012,6.184,1.091,18.57-5.746,21.82-11.882l5.8,2.209,2.571-7.357c-14.827,5.615-9.417-7.71-13.612-12.106,6.01-5.637,15.791-8.051,23.578-4.4-2.358-3.628-4.006-5.619-4.975-7.9-.455-1.069-.046-3.348.77-3.9.977-.662,3.536-.661,4.144.086a76.466,76.466,0,0,1,8.492,12.036c1.616,3.03,2.156,6.7,2.808,10.159,1.081,5.737,1.866,11.531,2.886,18l-5.175.785c-.2,2.428-.408,4.863-.688,8.193l-35.972,5.739c2.65,2.405,3.886,3.861,5.419,4.866,12.007,7.878,11.587,19.585-1.732,25.577-6.164,2.772-8.783,5.224-4.806,11.658a16.712,16.712,0,0,1-3.484.945c-7.13.065-14.258.035-19.866.035-1.538-3.632-2.59-5.689-3.267-7.864-.467-1.5-.946-3.328-.505-4.721,2.047-6.485,3.825-13.174,6.907-19.171,1.637-3.187,5.953-4.9,8.629-7.693,1.372-1.431,1.8-3.772,2.65-5.7l-1.968-1.53c-3.093,2.381-6.076,4.929-9.314,7.1-3.338,2.233-6.923,4.1-10.8,6.354-.926-1.925-1.347-3.453-2.281-4.543-.854-1-2.473-2.3-3.373-2.061-1.133.307-2.709,2.089-2.657,3.166.344,7.059-3.812,14.369,2.823,21.216,2.576,2.657,1.723,8.637,2.379,12.772-6.89,5.411-19.2-1.957-22.961,11.429,3.015,0,5.181.1,7.336-.015,21.445-1.112,42.89-2.209,64.324-3.5,1.659-.1,3.99-1.2,4.708-2.53,2.527-4.692,5.506-9.511,6.4-14.616,1.093-6.247,3.678-8.988,9.861-10.277,5.477-1.14,8.306-5.612,7.956-11.583-.129-2.183-.022-4.379-.022-4.978l16.575-4.34q-.044-1.233-.088-2.465c4.295,1.969,6.642,4.339,5.451,10.329-1.124,5.671-.215,11.857,6.88,14.33a6.447,6.447,0,0,1,2.66,1.464c2.371,2.626,4.112,6.443,7.019,7.767,2.238,1.018,5.872-1.035,9.915-1.957-3.414,9.569-6.451,18.077-9.578,26.835l7.058.852c-5.044.9-8.406,1.507-13.381,2.4,4.129,4.526,6.568,8.678,10.193,10.812,4.92,2.894,6.545-2.1,7.727-5.5,1.077-3.1,1.118-6.554,1.616-9.852l2.058.166c0,3.534-.527,7.168.123,10.578.981,5.152-1.576,6.815-5.781,8.108-1.012.31-2.3,3.141-1.877,4.161,3.338,8.071-2.107,12.455-7.4,15.619a54.46,54.46,0,0,1-30.447,7.835c-11.085-.341-22.23,2.462-33.395,3.167-9.254.584-18.576.118-29.143.118l2.791,9.159c-17.295,2.032-33.937,3.989-50.581,5.937-.505.06-1.187-.186-1.51.064-10.408,8.1-21.489,1.8-32.2,1.29-10.062-.479-20.063-2.215-30.091-3.4l-.084-1.992q3.756-.814,7.512-1.614c-13.827-6.362-60.779-9.457-65.479-2.728-5.616-3.593-11.223-7.416-17.089-10.793-1.782-1.027-4.27-.826-6.429-1.186,2-25.449,32.438-46.091,56.364-38.253.091.464.364.989.252,1.412-1.117,4.192-2.3,8.365-3.461,12.544,4.009.84,8.018,2.393,12.027,2.4,16.813.012,17.614.6,18.07,17.223.049,1.762.006,3.525,1.315,5.43,1.31-9.6,2.814-19.173,3.832-28.8.379-3.594-1.043-6.044-5.714-6.265-4.952-.233-9.838-1.882-15.885-3.149,15.231-5.91,22.855-1.616,26.011,12.8,2.817,12.875,6.208,25.623,9.346,38.428l1.949-.224c-.25-2.779-.164-5.637-.806-8.323q-4.359-18.263-9.084-36.439c-1.525-5.9-.014-9.2,6.569-10.021,9.028-1.126,17.98-2.871,27.357-4.414-1.831-6.347-4.877-9.558-11.087-9.07a82.422,82.422,0,0,1-13.782.327c-2.949-.266-5.752-2-8.658-2.957-2.852-.943-5.752-1.745-9.349-2.823-.5-7.629-1.407-15.9-1.505-24.178a64.753,64.753,0,0,0-9.472-32.773c-1.132-1.906-3.915-2.834-7.331-5.166,2.975-1.316,5.161-3.156,6.9-2.8,1.677.341,2.851,2.987,4.324,4.548,2.153,2.281,4.053,5.021,6.645,6.62,4.15,2.563,8.706,4.147,6.273,10.681-1.278,3.433-.209,5.893,4.066,7.465,4.633,1.7,8.38,5.722,12.965,7.667C-867.861-1256.106-865.451-1258.323-865.855-1265.146Zm101.722,65.85c-1.27-4.672-4.961-6.366-13.784-4.833-5.964,1.036-5.279,5.471-4.921,9.423.562,6.218,5.41,10.133,9.059,9.972Zm-187.974.054c4.757,1.216,8.8,3.294,12.541,2.852,2.619-.31,5.026-3.909,7.064-6.414.422-.519-.833-3.453-1.935-3.981C-938.876-1208.914-948.431-1205.077-952.107-1199.242ZM-715.14-1173.5c-8.168-8.033-16.336-16.066-25.353-24.935C-732.106-1188.659-726.38-1177.889-715.14-1173.5Zm-60.564-80.162-3.465-2.275q-6.006,9.315-12.011,18.63l2.593,1.647Q-782.147-1244.666-775.7-1253.666Zm-82.321,67.071-.2-2.226c-7.637,2.828-15.782-4.532-23.281,1.091l.082,2.47Q-869.725-1185.926-858.026-1186.595Zm47.8,4.921-.516,2.115c6.661,6.319,8.85,6.6,14.5.965Zm.559-90.215,4.04,1.989q2.228-4.2,4.459-8.392c-1.633-.659-4.58-2.074-4.7-1.865A79.376,79.376,0,0,0-809.671-1271.888Zm49.258-29.526,2.831-.836c-.3-2.305.183-5.594-1.129-6.649-1.441-1.16-4.537-.264-8.795-.264Z" transform="translate(1646.5 1691.961)"/>
          <path id="Path_1027" data-name="Path 1027" d="M-623.849-970.52c12.328-3.066,24.436-6.11,36.567-9.059a30.062,30.062,0,0,1,5.21-.5c12.467-.771,24.927-1.72,37.4-2.235q26.274-1.083,52.568-1.584c5.771-.115,11.7,1.556,16.413-3.623.937-1.028,3.064-.972,5.081-1.541-2.167,7.4-4.116,14.063-6.067,20.723l1.914.774,5.641-11.489,1.794.226-3.358,28.875c3.166-1.776,4.064-2.49,5.086-2.8a24.7,24.7,0,0,1,3.837-.561c-.015,1.379.538,3.48-.141,4.013a55.331,55.331,0,0,1-10.076,6.578c-2.117,1.012-4.855.722-5.758.831-.984,10.32-1.263,19.9-2.964,29.22-1.7,9.3-11.335,13.429-20.964,8.939-8.383-3.909-16.318-2.175-24.491-.332-.71.16-1.338,1.115-1.975,1.084-12.326-.591-24.643-1.631-36.974-1.831-10.174-.164-20.361.783-30.547.974-8.423.16-16.856-.2-25.282-.092-14.844.2-29.684.6-44.526.868-11.61.21-23.224.341-34.834.528-18.02.29-36.037.666-54.057.882-28.57.343-57.144.418-85.71.954-10.193.19-20.359,1.547-30.553,2.075-7.846.407-15.72.561-23.575.416-520.42,8.52-522.492-.353-520.42-10.392,13.5,0,544.676-2.588,558.453-2.918,20.266-.487,40.528-1.279,60.781-2.172,15.029-.662,30.034-1.992,45.068-2.471,14.777-.47,29.589.111,44.363-.409,18.829-.661,37.637-1.968,56.454-2.986,26.879-1.456,53.755-2.983,80.639-4.325,14.724-.736,29.469-1.029,44.188-1.819,3.081-.166,6.092-1.63,9.134-2.5q-1.56-5.11-3.121-10.222l-1.791.424v8.2l-2.127.536c-1.275-4.189-2.55-8.377-4.156-13.653l10.382,1.272c1.4-5.729-1.287-7.287-6.144-7.866-4.01-.478-7.924-1.845-11.858-2.909-4.193-1.135-8.313-2.593-12.555-3.479-2.127-.445-5.1,1.011-6.586-.008-9.575-6.572-21.926-1.694-30.882-6.645-12.2-6.745-25.224-3.236-37.395-6.7a5.7,5.7,0,0,1-1.977-1.113C-624.079-970.647-624.185-971.222-623.849-970.52Z" transform="translate(1414.825 1872.413)"/>
          <path id="Path_1028" data-name="Path 1028" d="M-586.862-1303.279c9.609-.2,11.819,1.373,11.28,10.594-.442,7.555,3.2,7.428,8.451,6.127a115.5,115.5,0,0,1,12.357-2.789c1.439-.192,4.021.969,4.519,2.163,2.244,5.39,3.986,10.995,5.743,16.573.233.739-.487,1.778-.406,1.513l-17.534-4.824c.4,4.98.856,9.188,1.023,13.409.069,1.756.178,4.236-.846,5.2-10.707,10.042,2.054,13.585,5.234,19.788,1.574,3.068,3.717,6.3,3.869,9.543.307,6.6-.891,13.254-.78,19.874.043,2.561,1.894,5.116,3.034,7.625a16.3,16.3,0,0,0,4.566,6.1c.521-3.961.553-8.075,1.716-11.838.918-2.971,3.1-5.6,4.967-8.207.982-1.371,3.39-2.219,3.61-3.557,1.3-7.9,2.141-15.871,3.344-25.465-5.116,2.983-8.414,4.908-13.541,7.9,1.187-7.876,1.963-13.813,3.009-19.7.831-4.68,1.972-9.306,3.018-13.946.779-3.456-2.551-8.583,4.006-9.856.367-.071.851-3.169.207-4.166-2.384-3.691-4.586-8.018-8.039-10.371-4.513-3.073-4.155-7.016-2.037-9.721a12.337,12.337,0,0,1,9.438-4.063c3.339.324,5.666,1.656,8.565-1.6,1.089-1.221,5.9-.845,7.469.547,1.713,1.518,1.224,5.259,2.422,7.671,2,4.026,3.779,8.975,7.178,11.22,2.5,1.648,8.752.94,10.928-1.183,2.246-2.19,2.193-7.4,1.951-11.213-.132-2.086-2.732-4.015-5.522-7.763,4.253-.469,8.4-2.089,9.735-.8,1.944,1.885,3.341,6.454,2.378,8.829-3.015,7.434,1.23,10.458,5.2,15.935,5.717,7.9,9.635,17.467,14.724,26.13.74,1.261-2.014,4.576-3.657,7.989.1.989.358,3.585.637,6.377l7.118,1.871c-4.62,4.17-7.542,8.361-11.5,9.928-3.734,1.478-8.67.772-12.885-.012-6.837-1.275-9.5,1.879-9.841,7.944-.266,4.686-.054,9.4-1.3,13.47-1.542,4.467-4.109,8.861-4.427,13.412-.832,11.9-.436,23.879-1.08,35.8-.178,3.311-2.278,6.518-2.726,7.718l-10.907,2.235c.147-2.4.287-4.7.465-7.624l-9.111,5.11c0-5.906.846-11.271-.186-16.247-1.817-8.744-8.81-3.89-13.546-3.963-.57-.651-1.192-1.034-1.183-1.4.3-12.44.279-12.357-11.28-17.169-2.384-.992-4.413-2.841-7.769-5.067.909,3.014,1.478,4.892,2.378,7.878-3.207-.65-5.748-1.164-8.907-1.806-1.448,5.806-.352,12.638-10.088,14.006-7.225,1.015-10.091-4.823-16.929-5.554,0-10.787.167-21.723-.083-32.65-.1-4.374.281-7.185,5.628-8.056,2.236-.364,4.556-3.62,5.775-6.087,2.384-4.82,3.775-10.122,6.016-15.025,5.4-11.8,5.9-24.105,4.267-36.679a2.571,2.571,0,0,0-1.26-1.8C-587.914-1286.764-586.823-1295.261-586.862-1303.279Zm56.033,18.765c3.467-4.359,5.536-6.964,8.205-10.322l-9.735-4.234C-531.908-1294.783-531.456-1290.5-530.828-1284.514Zm-57.946,64.234c.481,4.961.892,9.223,1.455,15.029C-581.277-1214.005-581.586-1217.546-588.774-1220.28Z" transform="translate(1852.368 1700.945)"/>
          <path id="Path_1029" data-name="Path 1029" d="M-1035.364-1207.254c1.289-11.066,2.628-21.643-3.284-31.488-2.708-4.511-1.416-8.142,3.187-11.451l5.038,7.322,1.706-.23-1.031-19.335-14.584,2.99c5.086-8.766,9.839-16.96,14.595-25.154l2.063-.127c.224,3.264,1.335,6.78.5,9.747-2.21,7.843-.636,10.7,7.385,10.4,4.8-.18,9.22-.943,13.2,3.307.969,1.035,5.47-1.232,10.111-2.441,8.4,3.127,18.8,5.746,30.427-.106l3.268,4.105-.2,2.533h-45.26l-.046,3.075,42.581,6.31.08,2.02a33.2,33.2,0,0,1-3.458,2.166c-1.287.611-2.7.962-5.646,1.972,14.215-.187,18.94-5.11,17.96-17.134a21.262,21.262,0,0,1,2.683-1.169c11.811-3.411,11.47-3.428,12.4-15.472.2-2.55,3.544-6.29,6.079-6.926,5.233-1.312,8.529-2.553,9.4-8.9.441-3.214,4.895-5.883,7.545-8.787,1.826-2,3.671-3.99,6.43-6.984,2.13,1.465,5.967,3.325,8.428,6.317.659.8-2.878,5.053-4.708,8.084,6.906,1.688,12.729,5.847,13.581,14.177l19.628-4.738c6.273,14.16.4,28.679,2.132,42.741a2.278,2.278,0,0,1-.616,1.356c-3.278,4.275-6.508,7.721-12.822,8.28-11.346,1-22.592,3.3-33.831,5.321-13.492,2.427-18.229,14.111-23.734,24.179-4.548,8.319-9.406,13.206-19.725,13.409-12.191.238-24.328,2.834-36.508,4.225-6.542.747-13.119,1.281-19.694,1.6-6.423.313-9.173-3.537-7.459-9.961A12.369,12.369,0,0,0-1035.364-1207.254Zm56.146-31.648-1.146-2.37c-10.541,3.863-21.15,7.557-31.559,11.745-1.845.742-2.86,3.542-4.259,5.391,2.336,1.615,4.563,4.417,7.027,4.642,12.718,1.158,25.491,1.929,38.256,2.135,2.359.037,5.953-2.656,6.9-4.947,1.783-4.307-1.789-5.441-5.467-6.03-5.333-.855-10.609-2.057-17.823-3.491Zm10.15,30.331c-14.483-.546-28.962-1.183-43.451-1.49-1.411-.029-2.868,1.98-4.3,3.041,1.392,1.281,2.733,3.608,4.184,3.679C-998.039-1202.618-983.134-1198.9-969.069-1208.571Z" transform="translate(1613.395 1702.01)"/>
          <path id="Path_1030" data-name="Path 1030" d="M-704.909-945.485c-.63-2.6-1.023-4.221-1.505-6.213-11.908-.525-18.084,8.511-25.81,15.094-2.129,1.814-5.717,3.3-8.224,2.819-1.8-.349-2.924-4.224-4.35-6.526l2.6-1.355,2.72,6.325,18.439-19.483c4.258,2.55,7.967,1.545,9.991-5.31l-6.83-1.014,6.251-4.683c-.233-3.21-.461-6.327-.706-9.7-3.521-.21-8.179-.075-5.949-6.889.315-.963-1.385-2.445-1.65-3.786a3.789,3.789,0,0,1,.771-3.13c.621-.519,2.708-.465,3.063.065,4.093,6.1,10.168,2.613,15.34,3.316.662.09,1.845-.177,2.037-.611,3.158-7.116,6.915-14.1,8.8-21.559.536-2.121-3.911-6.936-7.024-8.237-5.855-2.445-12.4-3.232-18.665-4.709l.35-2.427c5.866.45,11.916.158,17.544,1.561,5.409,1.349,7.819.395,8.028-5.506l-9.677-4.491,13.429-4.416c-.112-1.946-.408-4.92-.408-7.893,0-1.7-.082-3.843.849-5.01,3.743-4.691,8.062-8.926,11.735-13.665,1.138-1.471,1.45-4.078,1.187-6.036-.513-3.809-1.7-7.529-2.8-12.113,10.228.427,17.214,2.352,21.8,11.452,5.1,10.128,10.644,19.677,8.483,31.6-.312,1.72-.619,3.946.175,5.279,3.914,6.568,2.267,11.56-5.417,16.141,7.253,8.271,13.2,16.889,20.909,23.445a120.1,120.1,0,0,1,31.533,41.9c4.611,9.993,1.727,16.261-9.279,21.892q-19.385,9.923-38.878,19.63a37.507,37.507,0,0,1-5.1,1.586c.207-11.458,15.168-10.008,16.484-20.92-3.109,1.865-5.285,3.17-7.462,4.474l-1.785-1.011c2.9-5.834,5.069-12.214,8.879-17.378,6.663-9.03,6.5-9.945.135-19.365-2.776-4.105-2.737-10.183-3.7-15.416-.4-2.169-.066-4.473-1.829-8.442-4.454,3.587-9.011,7.053-13.34,10.786-6,5.175-9.62,12.228-17.679,16.126-9.228,4.462-16.61,12.741-25.778,20.156,6.072-15.7,17.929-26.468,26.773-38.917l-7.6-5.284-16.18,8.3c2.932,3.693,5.4,6.8,8.893,11.194-4.018,3.055-8.105,5.78-11.712,9.035C-699.7-952.408-701.731-949.314-704.909-945.485Zm20.209-77.821q.629,1.707,1.261,3.411l9.059-2.945q-.659-1.977-1.319-3.95Z" transform="translate(1773.933 1823.101)"/>
          <path id="Path_1031" data-name="Path 1031" d="M-517.721-1336.865l2.3-12.339,2.536.347v36.751c-10.812,1.958-10.812,1.958-10.454,14.115l8.368,2.561.2,2.3c-5.374.66-10.816,2.189-16.108,1.778-7.786-.6-15.418-3.023-23.2-3.884-10.573-1.172-21.273-1.261-31.814-2.622-2.324-.3-5.585-3.728-6.039-6.158a134.176,134.176,0,0,1-2-21.979c-.1-5.189,1.6-10.813-8.283-9.451,24.357-14.548,49.61-14.466,74.841-14.418,3.964.008,6.406,1.388,5.078,6.161C-523.384-1339.819-522.822-1336.634-517.721-1336.865ZM-577-1298.645v-30.381l-11.366.756c1.6,3.617,2.82,6.4,3.975,9.015-2.9.881-8.179,9.943-5.586,14.484C-588.31-1301.847-582.718-1301.162-577-1298.645Zm36.126-19.64,2.448-1.307c-1.622-2.341-2.78-5.924-4.972-6.744-3.714-1.389-8.082-1.032-12.174-1.41.593,1.8.7,4.671,1.865,5.2C-549.63-1320.687-545.184-1319.64-540.877-1318.285Zm-7.634,10.122,3.394-3.207c-1.41-1.1-2.719-2.96-4.251-3.172a116.48,116.48,0,0,0-14.948-.943c-1.138-.008-3.01,1.281-3.225,2.262-.207.946,1.155,3.135,2.064,3.278C-560.4-1309.151-555.252-1308.813-548.51-1308.163Zm-14.9-22.669-9.205,7.646c1.164,1.029,2.8,3.164,3.414,2.9a86.151,86.151,0,0,0,9.17-5.121C-560.907-1326.811-561.781-1328.217-563.411-1330.832Z" transform="translate(1850.347 1679.037)"/>
          <path id="Path_1032" data-name="Path 1032" d="M-956.7-781.545c-10.547,1.641-21.149,3-31.627,5.009-8.883,1.7-17.495,2.648-26.056-1.386-1.269-.6-3.513-.068-4.9.687-9.491,5.153-16.487,1.717-18.04-8.452l-12.1-4.009c-2.306,1.889-4.482,4.958-7.251,5.645-4.17,1.037-8.1-.518-8.816-6.32,5.809-1.318,11.142-3.021,8.114-11.041-.55-1.458,1.341-3.838,2.493-6.78l5.506,6c3.268-4.554,6.4-8.976,11.58-2.8,3.47-8.769,4.784-9.183,12.687-4.984a3.951,3.951,0,0,0,2.819.416c11.851-4.335,23.551-.352,35.238.828,3.828.387,7.485,4.318,11.143,4.2,10.308-.327,16.347,10.13,27.037,9.257,7.256-.591,14.748,1.708,21.09,2.571-3.53,2.869-7.675,7.746-12.947,10.071-4.637,2.047-10.534,1.243-15.874,1.7Z" transform="translate(1602.054 1967.015)"/>
          <path id="Path_1033" data-name="Path 1033" d="M-767.947-1256.141c-6.473,5.159-6.855,13.412-4.951,22.9,1.859,9.271,2.213,18.844,3.368,29.6l-14.131,2q-.378-1.03-.754-2.06l5.116-3.508a9.828,9.828,0,0,0-.018-2.043c-2.588-12.933-5.247-25.853-7.749-38.8-.2-1.055.785-2.289.923-3.474a38.568,38.568,0,0,0-.006-11.718c8.818-8.325,7.191-20.1,8.678-30.737.358-2.554-2.937-5.489-4.092-8.431a10.4,10.4,0,0,1-.65-6.052c.224-.843,3.485-1.878,4.445-1.3,1.445.872,2.305,3,3.011,4.751a64.8,64.8,0,0,1,3.723,10.759,90.476,90.476,0,0,1,2.167,16.189c.089,3.729-1.835,7.491-1.866,11.246C-770.757-1263.856-769.26-1260.889-767.947-1256.141Z" transform="translate(1751.264 1700.445)"/>
          <path id="Path_1034" data-name="Path 1034" d="M-768.448-1299.644c-3.554-.484-7.9.112-10.437-1.753a12.775,12.775,0,0,1-4.563-9.434c.382-7.938,1.249-15.321-8.21-18.877-1.038-.39-1.27-2.924-2.224-5.348,15.679-.917,14.071-17.979,29.573-18.885,0,6.993,17.659,29.368,16,34.61-1.493,4.711-6.219,8.4-10,13.137-4.952-7.612-11.311-5.231-17.309-3.668-1.467.382-2.461,2.579-3.671,3.941,1.551.831,3.021,2.051,4.674,2.39,2.024.418,4.2.1,6.311.1Z" transform="translate(1747.626 1676.855)"/>
          <path id="Path_1035" data-name="Path 1035" d="M-594.167-1335.166c-6.95,6.783-6.655,15.73-6.669,24.362-3.278-2.183-5.784-4.387-8.706-5.534-1.19-.468-3.282,1.359-4.963,2.141.731,1.476,1.077,3.591,2.267,4.31,4.038,2.439,8.376,4.385,12.52,8.028-6.7-.817-13.446-1.422-20.069-2.666-1.094-.2-2.365-3.206-2.361-4.912.025-10.956.476-21.91.587-32.866.048-4.711,2.375-6.253,6.72-6.066a77.782,77.782,0,0,0,9.174-.177c4.719-.356,7.909.441,7.84,6.4C-597.852-1339.987-595.62-1337.8-594.167-1335.166Z" transform="translate(1839.668 1679.708)"/>
          <path id="Path_1036" data-name="Path 1036" d="M-729.391-1271.448l-22.244,3.318-1.324-2c6.883-8.654,19.62-15.587,9.922-29.684,3.153-6.134,6.543-12.73,9.786-19.035-.834-3.869-1.706-7.924-2.846-13.22,11.612,5.854,15.667,13.189,14.042,23.032-.042.247.109.63-.017.747-11.214,10.309-5.528,23.836-6.9,36.018A1.508,1.508,0,0,1-729.391-1271.448Z" transform="translate(1769.559 1688.576)"/>
          <path id="Path_1037" data-name="Path 1037" d="M-705.459-944.146c-2.189,6.087-4.376,12.174-6.1,16.98-4.534,1.957-8.349,3.846-12.343,5.212-1.578.539-3.554-.091-5.348-.187.614-1.5.882-3.311,1.9-4.459,8.234-9.294,16.73-18.359,24.832-27.764,1.521-1.765,1.647-4.731,2.574-7.637-6,.539-10.627.954-15.252,1.367q-.5-1.419-1-2.841l22.308-21.431c-1.04,3.788-1.725,6.284-2.56,9.329l6.128,3.844c-2.5,11.265-4.589,22.268-7.6,33.013-.719,2.567-4.528,4.267-8.068,5.135l3.5-9.572Z" transform="translate(1782.263 1874.642)"/>
          <path id="Path_1038" data-name="Path 1038" d="M-661.611-1004.451c-3.321,3.522-7.568,6.549-9.77,10.67-4.5,8.418-8.1,17.347-11.689,26.219-2.266,5.6-3.823,11.483-5.729,17.229-.556,1.676-1.949,3.424-1.723,4.956,1.6,10.9-6.62,12.635-13.718,15.865-4.505-14.02,23.881-66.326,40.97-76.346Z" transform="translate(1795.414 1863.413)"/>
          <path id="Path_1039" data-name="Path 1039" d="M-790.876-1312.466c-10.953,5.325-15.473,2.839-16.06-9.353-.171-3.556-.089-7.136.1-10.693.415-8.01,2.929-10.271,10.918-9.183,6.747.918,5.129,6.247,5.067,10.7C-790.936-1325.114-790.876-1319.228-790.876-1312.466Z" transform="translate(1740.579 1683.281)"/>
          <path id="Path_1040" data-name="Path 1040" d="M-758.351-1323.181l15.745,3.806c-.6,4.937,4.182,10.749-3.1,15.152-1.008.61-.215,5.552.874,7.984,2.249,5.023-1.29,7.138-4.4,7.8-2.253.476-7.244-1.782-7.394-3.206C-757.711-1301.868-757.869-1312.187-758.351-1323.181Z" transform="translate(1766.669 1693.341)"/>
          <path id="Path_1041" data-name="Path 1041" d="M-503.751-1211.211c-.73.571-1.883,2.244-2.972,2.2-6.655-.25-9.517,4.694-11.924,9.219-3.878,7.293-9.022,5.486-15.089,3.64,3.092-4.021,6.055-7.435,8.468-11.2,1.135-1.771,2.1-4.447,1.611-6.316-1.633-6.29-.121-11.269,5.007-15.694Z" transform="translate(1887.053 1743.625)"/>
          <path id="Path_1042" data-name="Path 1042" d="M-632.057-798.693c8.076-9.073,46.733-4.654,50.039,4.233-4.577,1.74-9.059,4.393-13.787,4.95-4.043.475-8.956,2.037-11.887-4.76-1.395-3.236-8.667-4.516-13.516-5.491C-624.615-800.446-628.427-799.12-632.057-798.693Z" transform="translate(1834.357 1971.768)"/>
          <path id="Path_1043" data-name="Path 1043" d="M-677.642-1327.746c3.743-1.017,6.52-2.685,8.469-2,1.473.518,1.817,4.077,2.8,6.219.779,1.7,1.991,3.224,2.616,4.966,1.591,4.439,3.694,8.9,4.081,13.473.166,1.979-3.158,5.757-5.308,6.093-3.688.579-7.7-.9-11.572-1.519.479-2.915.4-6.085,1.581-8.683,1.481-3.256,5.655-6.085,5.577-9.017C-669.471-1320.876-673.682-1323.428-677.642-1327.746Z" transform="translate(1809.925 1689.736)"/>
          <path id="Path_1044" data-name="Path 1044" d="M-510.494-1211.632c-3.17-7.067-8.354-13.971-8.941-21.245-.582-7.208,3.47-14.791,5.49-22.21l3.53.45q1.032,21.289,2.063,42.577Z" transform="translate(1894.688 1729.836)"/>
          <path id="Path_1045" data-name="Path 1045" d="M-695.546-895.859c-3.494,1.359-4.969,1.934-6.892,2.683,3.636,6.485,1.295,9.432-5.344,10.687-1.837.347-3.457,3.121-4.7,5.085-2.156,3.422-3.628,7.316-6.035,10.526-.954,1.273-3.64,1.247-5.537,1.814-.5-2.043-2.117-5.073-1.324-5.966,5.064-5.7,6.864-14.223,15.134-17.3,1.716-.637,2.407-3.781,3.814-5.58,1.321-1.688,2.725-3.665,4.553-4.467C-700.808-898.842-698.839-897.255-695.546-895.859Z" transform="translate(1784.228 1920.975)"/>
          <path id="Path_1046" data-name="Path 1046" d="M-763.351-875.507c11.265.112,12.579,1.776,9.517,11.7-.82,2.659-2.029,5.211-2.69,7.9-1.528,6.247-6.165,4.456-9.637,3.17-1.132-.421-1.471-4.748-1.063-7.095.462-2.646,2.554-4.977,3.242-7.624C-763.312-870.031-763.524-872.836-763.351-875.507Z" transform="translate(1761.825 1933.276)"/>
          <path id="Path_1047" data-name="Path 1047" d="M-749.1-1344.687c3.367,1.889,7.887,3.127,8.032,4.752.4,4.56-.828,9.319-1.9,13.884-.137.581-4.139,1.27-4.757.547-3.7-4.333-6.938-9.065-10.329-13.662Z" transform="translate(1766.824 1681.815)"/>
          <path id="Path_1048" data-name="Path 1048" d="M-646.163-1301.958l-7.876-3.835.885-2.505-6.357,1.493c-1.382-5.079-2.96-10.02-3.92-15.077-.2-1.068,1.61-3.106,2.94-3.7,1.255-.567,4.095-.369,4.528.425,3.809,6.993,7.238,14.194,10.778,21.333Z" transform="translate(1817.533 1691.878)"/>
          <path id="Path_1049" data-name="Path 1049" d="M-968.015-1301.771c-2.934,4.127-5.821,11.65-8.809,11.69-6.631.088-9.213-6.512-10.137-13.913h16.845Z" transform="translate(1644.143 1703.625)"/>
          <path id="Path_1050" data-name="Path 1050" d="M-936.805-1305.642c-2.855-.932-8.01-1.568-8.174-2.846-.757-5.89-.124-11.959.034-19.013,14.527,3.678,5.906,14.025,10.1,19.611Z" transform="translate(1666.448 1691.025)"/>
          <path id="Path_1051" data-name="Path 1051" d="M-892.065-1329.022c-5.006,0-10.048.341-14.994-.2-1.537-.167-3.9-2.726-3.9-4.189,0-1.427,2.382-3.831,3.992-4.087,3.944-.628,8.3-1.1,11.988.015,2.2.662,3.453,4.445,5.132,6.824Z" transform="translate(1684.877 1685.315)"/>
          <path id="Path_1052" data-name="Path 1052" d="M-811.591-846.094c-5.45,0-11.3.3-17.081-.2-1.545-.135-2.875-2.734-4.3-4.2,1.556-1.389,2.994-3.728,4.7-3.941a14.214,14.214,0,0,1,7.913,1.511C-817.455-851.4-815.067-848.877-811.591-846.094Z" transform="translate(1726.673 1944.522)"/>
          <path id="Path_1053" data-name="Path 1053" d="M-911.281-1313.537c-1.089-2.972-3.021-5.975-2.911-8.9.054-1.461,3.725-3.689,5.966-3.983,5.39-.7,6.618,3.381,5.611,7.4-.568,2.269-3.333,3.989-5.109,5.957Z" transform="translate(1683.142 1691.562)"/>
          <path id="Path_1054" data-name="Path 1054" d="M-626.834-1346.517v49.435l-1.057-.009v-49.484Z" transform="translate(1836.59 1680.802)"/>
          <path id="Path_1055" data-name="Path 1055" d="M-665.18-1000.79c.02,10.523-11.377,22.075-20.941,23.824C-679.665-984.309-672.924-991.978-665.18-1000.79Z" transform="translate(1805.381 1866.129)"/>
          <path id="Path_1056" data-name="Path 1056" d="M-661.47-1285.89c-8.913,1.338-12.672-1.76-11.813-9.173.286-2.47,2.806-4.682,4.305-7.011.8,2.55,2.7,5.351,2.184,7.6C-667.891-1289.726-669.1-1285.857-661.47-1285.89Z" transform="translate(1812.198 1704.653)"/>
          <path id="Path_1057" data-name="Path 1057" d="M-787.117-1296.15c-1.7-4.9-3.539-9.758-4.909-14.747-.146-.528,2.858-2.852,3.694-2.528,1.822.71,4.273,2.419,4.526,4.026.642,4.07.214,8.309.214,12.481Z" transform="translate(1748.617 1698.553)"/>
          <path id="Path_1058" data-name="Path 1058" d="M-566.574-1256.335c-7.049-6.17-7.907-10.48-2.573-21.084,2.16,8.059,3.809,14.218,5.46,20.376Z" transform="translate(1866.228 1717.868)"/>
          <path id="Path_1059" data-name="Path 1059" d="M-994.846-1320.35l13.707,8.905-14.942,3.665C-995.594-1312.742-995.195-1316.8-994.846-1320.35Z" transform="translate(1639.255 1694.858)"/>
          <path id="Path_1060" data-name="Path 1060" d="M-592.281-1263.415l5.635-22.451C-581.644-1274.222-583.13-1267.706-592.281-1263.415Z" transform="translate(1855.676 1713.34)"/>
          <path id="Path_1061" data-name="Path 1061" d="M-576.406-1296.679c1.126-4.027,1.3-9.887,3.282-10.58,3.37-1.177,7.875.9,11.9,1.6q-.152,1.081-.3,2.158C-565.974-1301.455-570.425-1299.417-576.406-1296.679Z" transform="translate(1864.184 1701.685)"/>
          <path id="Path_1062" data-name="Path 1062" d="M-839.962-946.78l-9.1-3.927,13.648-6.7C-834.46-956.469-834.749-955.621-839.962-946.78Z" transform="translate(1718.052 1889.382)"/>
          <path id="Path_1063" data-name="Path 1063" d="M-521.058-863.187l23.932-2.783.336,2.393-23.872,3.322Z" transform="translate(1893.848 1938.387)"/>
          <path id="Path_1064" data-name="Path 1064" d="M-893.187-1319.618l-5.826,6.006c-1.315-1.61-3.866-3.393-3.669-4.789.332-2.353,2.407-4.46,3.748-6.671Z" transform="translate(1689.307 1692.327)"/>
          <path id="Path_1065" data-name="Path 1065" d="M-705.9-1342.352c5.6,8.37-4.447,16.12-2.516,20.438v-20.3Z" transform="translate(1793.299 1683.066)"/>
          <path id="Path_1066" data-name="Path 1066" d="M-923.68-1305.959c2.61,1.21,6.262,1.8,7.48,3.837.9,1.5-1.4,4.9-2.27,7.457l-2.23-.341-4.313-8.216Z" transform="translate(1677.345 1702.571)"/>
          <path id="Path_1067" data-name="Path 1067" d="M-727.68-842.923q4.746-11.762,9.494-23.525l2.61,1.1q-4.97,11.672-9.938,23.345Q-726.6-842.462-727.68-842.923Z" transform="translate(1783.107 1938.131)"/>
          <path id="Path_1068" data-name="Path 1068" d="M-667.832-1277.762v25.7l-1.92,0v-25.79Z" transform="translate(1814.154 1717.637)"/>
          <path id="Path_1069" data-name="Path 1069" d="M-543.063-859.036c-7.058,9.306-7.058,9.306-15.208,2.132Z" transform="translate(1873.904 1942.104)"/>
          <path id="Path_1070" data-name="Path 1070" d="M-600.977-1255.846l6.291-14.406,3.017,1.273-5.706,14.633Z" transform="translate(1851.015 1721.709)"/>
          <path id="Path_1071" data-name="Path 1071" d="M-519.263-809.272c5.99-6.208,11.024-4.854,18.06,0Z" transform="translate(1894.81 1966.543)"/>
          <path id="Path_1072" data-name="Path 1072" d="M-622.983-1311.129l4.116-5.3c1.054,1.326,3.046,2.722,2.954,3.963-.16,2.153-1.61,4.21-2.517,6.308Z" transform="translate(1839.22 1696.958)"/>
          <path id="Path_1073" data-name="Path 1073" d="M-702.97-980.239l8.819-15.094,2.141,1.069-7.617,15.839Z" transform="translate(1796.351 1869.054)"/>
          <path id="Path_1074" data-name="Path 1074" d="M-600.749-1278.287q1.634-8.32,3.267-16.641c.618,5.821,4.055,12.051-.272,17.121Z" transform="translate(1851.137 1708.483)"/>
          <path id="Path_1075" data-name="Path 1075" d="M-515.312-835.17c5.78-.335,11.721-1.183,15.807,3.881l-.753,2.192c-4.96-2.046-9.918-4.093-14.911-6.121A1.089,1.089,0,0,1-515.312-835.17Z" transform="translate(1896.928 1954.751)"/>
          <path id="Path_1076" data-name="Path 1076" d="M-677.926-781.721c10.334,4.614,9.362,23.055-.444,33.146C-686.105-759.709-673.337-769.834-677.926-781.721Z" transform="translate(1808.168 1983.541)" fill="#fff"/>
          <path id="Path_1077" data-name="Path 1077" d="M-529.9-724.229v-14.879C-519.348-733.189-529.015-728.892-529.9-724.229Z" transform="translate(1889.112 2006.38)" fill="#fff"/>
          <path id="Path_1078" data-name="Path 1078" d="M-720.9-774.13l14,1.906.359-3.379q-7.156-.744-14.312-1.491Z" transform="translate(1786.743 1986.021)"/>
          <path id="Path_1079" data-name="Path 1079" d="M-713.78-929.242l19.3,18.564c-.408-3.037-.608-4.528-.806-6q-8.861-6.815-17.725-13.628Q-713.4-929.775-713.78-929.242Z" transform="translate(1790.557 1903.904)"/>
          <path id="Path_1080" data-name="Path 1080" d="M-515.2-835.282l-.026,0c-.028.009-.055.021-.083.032Z" transform="translate(1896.928 1954.833)"/>
          <path id="Path_1081" data-name="Path 1081" d="M-633.9-974.019q1.332,1.2,2.662,2.4-6.225,7.05-12.453,14.1-1.4-1.251-2.8-2.5Z" transform="translate(1826.622 1880.477)"/>
          <path id="Path_1082" data-name="Path 1082" d="M-740.372-869.4c-5.311,2.542-8.929,2.295-11.612-1.184-3.207-4.156,1.012-6.563,4.239-8.8,6.732-4.675,12.644-9.557,13.53-19.035.2-2.143,7.838-3.589,12.053-5.357q.958,1.454,1.917,2.909C-732.136-893.641-726.319-876.128-740.372-869.4Z" transform="translate(1769.468 1918.122)"/>
          <path id="Path_1083" data-name="Path 1083" d="M-695.214-891.085c1.269-6.748,1.269-6.748,12.48-6.706Z" transform="translate(1800.508 1921.329)"/>
          <path id="Path_1084" data-name="Path 1084" d="M-687.8-699.122c-4.281,1.008-8.545,2.633-12.847,2.735-1.854.045-4.242-2.765-5.571-4.807-2.058-3.164-3.052-7.027-5.155-10.151-3.358-4.986,0-12.07,7.718-15.148,3.53,5.744,7.339,11.411-1.588,17.524,3.8,1.941,6.545,3.519,9.435,4.775,2.611,1.137,5.376,1.921,8.073,2.86Q-687.77-700.228-687.8-699.122Z" transform="translate(1791.149 2013.141)"/>
          <path id="Path_1085" data-name="Path 1085" d="M-686.706-718.889c-2.256-1.941-4.9-3.6-6.583-5.956-.708-.989.624-3.434,1.028-5.219l2.2.418q2.649,4.35,5.3,8.7Z" transform="translate(1801.43 2011.227)"/>
          <path id="Path_1086" data-name="Path 1086" d="M-116.112-530c-9.713.663-18.851,1.8-26.571,7.575a76.355,76.355,0,0,0-17.273,2.365c-9.2,2.442-18.22,7.276-27.4,7.5-6.692.166-12.388,3-18.825,3.215-7.042.238-13.923,7.164-21.188.157-.562-.541-2.673.395-4.012.811-8.079,2.511-15.991,6.187-24.254,7.319-9.24,1.266-18.8.425-28.206.032-1.564-.066-3.986-2.29-4.384-3.915-2.488-10.139-4.642-20.367-6.594-30.624-.45-2.359-.508-5.469.671-7.34,4.609-7.313,4.073-14.946,2.648-22.832a35.745,35.745,0,0,1-.495-6.092c-.037-5.39,2.782-6.62,7.491-4.972,3.13,1.1,6.2,2.58,9.429,3.132,9.835,1.679,15.419-2.408,13.873-9.769-11.065,4.261-21.357,1.723-32.734-3.373,2.989-1.533,4.792-2.458,6.594-3.384-.124-.476-.25-.952-.375-1.43l-9.492.915c-1.389-9.125-3.209-17.856-3.88-26.673-.418-5.491,6.213-8.414,12.062-5.966,1.533.642,3.049,1.329,4.571,1.994q-1.3-1.737-2.6-3.473l11.248-8.277c-2.026-.591-4.914-1.942-7.893-2.187a78.4,78.4,0,0,0-14.535.044c-7.231.759-11.48-2.437-12.475-9.214-1.462-9.954-2.467-20-3.012-30.037-.075-1.4,3.448-4.1,5.511-4.324,8.632-.949,17.339-1.458,26.028-1.628,21.726-.425,43.461-.489,65.189-.863,31.449-.541,62.9-1.8,94.34-1.585,13.607.092,27.194,3.084,40.79,4.763,3.347-1.226,6.694-3.4,10.042-3.407,6.084-.009,8.538-2.154,7.686-8.161a17.145,17.145,0,0,1-.071-4.6c.882-6.638-2.293-8.231-8.445-8.061-22.861.631-45.741.631-68.6,1.255-35.551.969-71.09,2.349-106.642,3.37-19.691.567-39.391.846-59.09.984-2.041.014-4.5-1.451-5.943-3-.571-.611.594-4.089,1.859-4.937,4.419-2.968,9.693-4.78,13.782-8.095,7.188-5.827,13.814-12.366,20.468-18.82.819-.794.226-2.926.524-4.39,1.435-7.049-3.915-11.543-6.376-17.111-7.738-17.508-15.558-34.981-23.311-52.484a60.023,60.023,0,0,1-1.627-5.846c4.88,0,8.753-.4,12.512.081,8.574,1.1,17.648,5.133,25.5,3.384,10.3-2.3,15.318,4.164,23.863,7.489l6.115-3.273,15.269,8.913-6.228,4.262,30.389,4.367q0,1.161-.008,2.324c.65-1.634,1.3-3.267,2.911-7.327,1.992,5.15,3.149,8.136,4.417,11.417,3.881,0,9.27-1.673,11.687.3,8.717,7.107,18.8,1.593,28.134,4.23,8.325,2.353,18.157-.607,27.32-1.244,5.619-.39,11.248-1.3,16.848-1.144,14.049.388,206.977,6.2,220.793,6.859,0-12.011-32.178-14.042-32.178-24.336-10.059-1.8-165.286-17.694-174.253-19.3a15.074,15.074,0,0,0,.828-1.928,31.9,31.9,0,0,0,.6-3.2c-17.152,6.442-31.612-1.837-47.023-5.216-5.27,6.162-10.494.55-15.814-.954-3.247-.917-6.583-3.267-9.6-2.869-5.357.705-8.924.5-8.322-6.681l-10.294,6.456c-.3-5.766-.536-10.183-.776-14.745a16.084,16.084,0,0,1,3.161-.777c21.7-.565,43.409-.981,65.109-1.651,13.991-.432,27.967-1.432,41.961-1.743,5.193-.117,8.256-1.152,8.3-7.119.049-6.078-2.616-9.316-8.544-9.231-11.643.169-23.281.662-34.919,1.072-7.859.278-15.717.922-23.572.876-5.222-.031-11.01-2.689-15.533-1.169-8.38,2.817-16.175,4.359-25.2,3.3-9.733-1.146-19.771.539-29.676.588-26.371.129-52.743.043-81.337.043,2.047-5.112,2.755-8.862,4.82-11.581,3.375-4.444,7.763-8.1,11.484-12.3,4.3-4.851,9.145-9.872.538-15.34-.627-.4-.627-1.785-1.089-3.253l82.549-45.165q.689,1.267,1.375,2.534c-8.11,4.49-16.286,8.866-24.265,13.578-1.375.813-1.911,3.047-2.834,4.626,1.726.731,4,2.562,5.087,2.017,6.517-3.264,12.712-7.165,19.121-10.655,2.706-1.474,5.674-2.47,9.736-4.2-2.163-3.368-4.955-7.712-7.883-12.271q-44.348,24.473-88.291,48.718c-1.413-4.188-2.229-6.6-3.044-9.021-2.02,1.266-4.06,2.5-6.05,3.807a10.925,10.925,0,0,0-2.378,1.932c-3.2,3.774-6.419,7.535-9.44,11.449-1.946,2.519-2.955,6.367-5.431,7.772-12.667,7.185-25.572,13.982-38.609,20.481-6.749,3.362-14.06,5.578-20.915,8.749-10.338,4.781-21.737,8.393-30.438,15.323-12.1,9.635-24.07,13.756-38.637,8.349-1.706-.633-3.823-3.58-3.659-5.251.815-8.306,2.433-16.531,3.53-24.818.283-2.144-.3-4.4-.482-6.609-2.746,5.559-3.41,11.08-4.639,16.472a25,25,0,0,1-3.737,8.967c-.96,1.327-4.3,2.212-5.734,1.534-1.232-.582-2.414-4.583-1.676-5.494,5.413-6.672,2.82-15.811,10.308-23.191,7.417-7.314,8.217-21.341,11.921-32.423l-2.55-1.008-20.212,38.6-6.383-2.97c-8.2,17.272-8.2,17.272-18.748,10.067,4.786-7.764,9.65-15.436,14.232-23.276a7.869,7.869,0,0,0,.77-5.444c-2.754-10.239-.5-14.206,10.085-15.6,3.806-.5,6.155-.985,6.253-5.582.551-25.73,18.622-41.886,33.174-61.07-1.358-2.241-2.491-6.322-5.151-8.047-5.711-3.7-4.607-7.692-2.338-12.429.828-1.733,1.367-3.6,2.252-5.986-2.934-.557-5.368-.534-7.307-1.5-2.825-1.41-5.293-3.533-7.913-5.353,1.665-2.31,3.462-4.539,4.964-6.95,1.78-2.857,4.517-5.78,4.745-8.83,1.355-18.266,15.048-28.07,26.5-39.293,2.213-2.17,6.437-2.289,9.735-3.353q.38-1.2.763-2.4c-2.691-1.044-5.353-2.837-8.081-2.943-3.482-.135-7.872,2.728-10.363,1.422-6.815-3.574-10.291-.659-12.938,4.554-12.337-.175-9.822-14.624-19.571-17.35,7.171-3.6,7.071-3.588,6.294-11.121a38.023,38.023,0,0,1,.439-6.867c1.49-18.229-6.692-28.7-22.744-31.138-2.694,5.373-5.388,10.051-7.36,15.017-.81,2.037-.324,4.734.057,7.052.295,1.792,1.346,3.461,2.666,6.646h-14.283c5.135,4.405,9.5,8.156,15.522,13.318-12.05-.091-21.632-3.68-31.154.043,5.654,2.459,12.455,2.347,16.834,5.546,4.256,3.11,6.029,9.618,9.317,15.38-17.138-.247-19.491,17.728-31.674,23.4,12.713-2.711,21.41-14.464,36.56-15.562-15.317,16.946-34,24.236-54.384,29.048,4.777,2.126,8.383,5.075,11.835,4.9,3.769-.187,7.4-3.264,11.761-5.414-.671,2.273-1.822,4.013-1.5,5.411,2.419,10.411-2.534,16.962-10.641,22.44-2.083,1.407-3.084,4.476-4.459,6.854-1.869,3.236-3.058,7.062-5.525,9.719-7.2,7.747-14.713,15.226-22.449,22.439-4.245,3.96-9.471,4.774-14.92,1.966-2.866-1.478-5.794-2.835-8.614-4.208-.352-2.786-.547-5.569-1.077-8.286-1.594-8.172,1.032-13.967,8.529-17.69,2.964-1.471,6.125-3.08,9.328-3.433,11.308-1.249,13.111-10.136,16.49-19.385-7.675-1.837-14.954-3.092-21.9-5.364-9.477-3.1-22.023-1-25.976-14.287-.064-.217-.926-.2-2-.393-5.468,9.916-13.535,10.538-24.01,7.319-15.377-4.724-31.222-7.941-46.917-11.581-2.981-.691-6.2-.368-9.3-.513q-.194,1.659-.389,3.321l45.451,11.979c-23.516,2.427-46.733,3-69.914,4.27-48.235,2.641-96.474,5.293-144.66,8.647-25.915,1.8-51.7,5.408-77.594,7.557-16.227,1.346-32.549,1.743-48.837,2.046-5.875.109-325.247,24.869-324.967,31.248.978,22.239,159.926,21.706,319.117,43.392,3.46.472-307.092,29.707-306.829,34.439,58.52-7.325,423.826-35.753,482.209-30.447q-.051-1.076-.1-2.149c-.882-.974-1.765-1.948-3.774-4.164,16.937-.9,32.473-1.455,47.965-2.611q67.706-5.048,135.378-10.554c22.162-1.835,44.355-3.777,66.346-6.972,6.376-.926,10.97-.588,15.8,3.186,3.1,2.419,6.136,2.7,9.508-.422,7.314-6.774,14.627-13.742,25.26-15.175.754-.1,1.809-1.917,1.822-2.946.078-6.506,4.553-6.907,9.406-7.483,2.984-.355,5.851-1.7,10.151-3.023-.215,2.126.107,5.1-.9,7.521-1.76,4.249-3.714,7.85-1.6,12.911,2.524,6.03-1.711,8.494-7.045,10.154-9.376,2.918-18.588,6.357-28.19,9.689,2.5,4.215,11.271,4.467,8.56,9.895-5.258,3.266-8.743,5.338-12.122,7.571-1.452.96-2.5,2.689-4.041,3.33-12.669,5.275-15.4,20.864-3.714,31.437,2.238-4.574,4.784-8.5,6.116-12.8,2.034-6.572,2.8-13.573,12-14.168,1.882-.123,3.623-2.378,5.448-3.662,2.259,1.266,4.651,2.6,6.939,3.885-1.267,2.516-2.51,4.984-3.413,6.78-2.851.238-5.225.085-7.308.79-.78.266-1.636,2.957-1.155,3.806,1.562,2.766,3.2,6.323,5.766,7.52,5.746,2.679,5.978,4.479.584,7.675-1.508.894-2.305,2.989-3.425,4.53-5.11-3.717-9.074-1.875-10.034,3.874a15.365,15.365,0,0,1-2.877,7.253c-5.1,5.961-10.656,11.533-17.35,18.654,6.293,2.172,11.034,3.808,15.553,5.365-4.036,6.294-14.979,5.843-16.129,16.407l14.85-3.39,1.221,1.6c-11.059,4.674-12.865,12.139-7.874,21.866.608,1.187.723,3.526-.021,4.371-6.371,7.227-3.927,16.14-5.724,25.05,7.75-3.43,14.919-6.026,21.417-9.781,2.365-1.367,4.786-5.781,4.348-8.317-1.958-11.385,5.359-20.232,7.181-30.449,1.35-7.571,1.344-15.376,2.161-23.055.25-2.348,1.227-4.62,1.872-6.927l2.367.252c.484,2.788.969,5.574,1.461,8.4l4.941.856c-12.733,12.409,4.961,23.982.633,36.007l-10.8-4.815c.813,4.709,1.3,7.549,1.9,10.99-2.593-1.622-4.571-2.86-7.387-4.623.77,7.572-.952,15.135,9.179,16.008-5.565,8.382-32.816,20.3-41.74,18.358v6.549l-6.274-2.828c-.327,9.242,7.323,11.3,13.962,16.28l-25.985,12.394c-1.435,6.767-3.368,15.883-5.3,25.013l12.165,7.133q-.262.947-.525,1.891c-6.268.249-12.286.869-13.813,8.7l9.8,1.8c-7.809,1.8-15.392,2.488-22.918,3.579-4.355.63-6.737,3.725-4.3,7.6,1.691,2.693,5.139,5.384,8.185,5.926,11.461,2.041,23.067,3.3,34.643,4.635a72.435,72.435,0,0,0,10.727.141c9.962-.341,19.946-1.436,29.87-1.014,7.637.326,10.832-3.316,12.065-9.733,1.39-7.23,2.353-14.546,3.345-21.846.2-1.473-.3-3.043-.708-6.493-5.487,6.588-11.005,11.174-13.682,17.054-2.273,4.993-4.5,6.649-9.406,5.946a35.533,35.533,0,0,0-5.341-.364c-12.013.106-11.988.118-14.275-11.1-.459-2.252-1.56-4.424-1.725-6.678-1.158-15.814.425-31.01,10.05-44.821,9.326,10.372,9.326,10.372,17.634.473q3.6-4.292,7.19-8.6a9.314,9.314,0,0,1-2.206,6.907c-3.536,4.093-2.909,7.858,2.181,8.706,5.036.839,10.246.582,15.358,1.04,3.384.3,6.729,1.02,11.663,1.8-7.273,7.3-13.383,13.612-11.3,21.249,4.338-3.3,9.151-6.967,15.333-11.677-.528,5.563-.92,9.675-1.31,13.788l2.475.18c1.862-7.429,3.725-14.86,5.617-22.411l3.7,1.015v15.062c3.018-5.9,6.293-12.24,9.478-18.624.289-.581-.21-1.536.048-2.152,1-2.367,1.576-5.345,3.362-6.85,3.92-3.309,10.306-4.892,12.429-8.9,5.861-11.071,15.986-13.927,28.062-18.024.688,9.76-1.378,20.035,2.562,26.827,5.606,9.658-1.448,13.521-4.783,18.848-3.963,6.328-4.806,16.114.372,22.981.23-3.794.481-7.076.621-10.363.444-10.506,2.077-12.163,12.262-12.618,2.057-5.877,4.072-11.63,6.087-17.386l2.78.808c-4.662,16.714-9.323,33.427-13.913,49.879h4.112q.283.691.565,1.381l-9.122,6.264c-1.7-4.043-3.14-7.466-5.233-12.446-2.161,4.2-3.276,6.366-4.391,8.532l-1.493-.419v-10.355c-3.183,4.877-5.225,8.007-7.268,11.136q-.65-.387-1.3-.776.668-3.686,1.338-7.373l-2.33-1.573a25.325,25.325,0,0,0-1.937,4.187c-1.665,6.357-6.814,8.669-12.246,10.246-8.2,2.382-16.6,4.1-24.783,6.551-1.757.525-2.938,2.978-4.384,4.542,2.13.386,4.247.9,6.4,1.106a21.964,21.964,0,0,0,4.1-.349q.369.673.739,1.348l-6.626,5.588c2.609,6.07-1.607,14.976-10.489,20.732h6.282c4.98,7.761-6.1,17.235,4.331,23.523-2.987,6.737-6.35,2.495-8.1.9-1.058,8.82-.929,18.39-3.8,26.956-1.342,4-2.4,8.093-1.659,11.4,1.455,6.474-.687,11.14-4.292,15.831-.112.146.425.792,1.154,2.077l9.7-8.97,15.177,22.285-9.737,1.934c5.17-7.936-1.676-10.366-6.138-16.555v16.754l-11.913-10.062c7.717,11.9,8.31,12.211,1.4,25.548-4.48,8.646-9.945,16.619-10.1,26.842,0,.18-4.265.3-6.54.442.068-3.725-.9-7.875.412-11.088,3.015-7.36,2.7-9.045-4.719-10.987-10.612-2.78-13.068-7.887-9.044-18.1,2.614-6.637,4.9-13.4,7.251-20.141,2.62-7.523,1.326-9.79-6.138-12.581-5-1.868-9.792-4.282-14.678-6.453q.064-1.394.129-2.786,8.529-4.732,17.055-9.46a9.4,9.4,0,0,0-6.643-2.706c-23.766-.077-47.535-.347-71.3-.037-36.015.47-72.05.729-108.03,2.212-55.405,2.281-110.945,2.361-166.034,10.355-35.908,5.212-71.975,9.328-107.995,13.748-4.977.611-387.642,172.56-387.533,177.254,1.026,43.993,336.274-21.525,336.936,22.474.1,6.962,49.492-50.822,56.513-51.065,26.594-.919,53.2-1.433,79.807-1.983,34.284-.708,68.57-1.247,102.854-1.971,27.354-.578,54.864.273,82-2.473,23.757-2.405,47.082-9.005,70.634-13.558,2.894-.559,6.035.293,9.036.1a26.575,26.575,0,0,0,6.536-1.433c6.194-2.041,12.338-4.232,19.628-6.754-1.081,4.13-1.625,6.21-2.325,8.882,11.966,0,23.288-.137,34.6.1,2.7.057,5.376,1.35,8.062,2.073a85.219,85.219,0,0,1-8.05,6.144c-1.092.664-2.994-.126-4.506-.014-4.987.369-9.965.845-14.946,1.281,16.475.7,32.777.832,49.077.676,32.992-.319,66-.358,98.971-1.31,43.7-1.261,87.39-3.119,131.065-5.155,7.047-.329,13.988-2.912,20.978-4.454q-.108-.882-.22-1.766-9.442-1.456-18.885-2.914a5.971,5.971,0,0,1,4.187-2.6c26.1-4.221,52.272-5.087,78.746-4.124,34.842,1.269,69.485-2.938,104-7.621,5.474-.743,118.04-1.362,124.156-2,0-4.153-8.047-12.8-8.171-16.346-.347-9.835-99.274-4.066-109.445-3.92-33.381.481-66.177,8.142-99.6,7.87-5.284-.043-10.567-.006-15.851-.006l-.2-2.69c3.547-.983,7.038-2.372,10.65-2.86,5.881-.8,12.894.857,17.577-1.794,17.1-9.68,36.551-7.949,54.586-12.807,12.724-3.428,26.085-4.448,39.1-6.887,1.723-.323,4.37-2.673,4.37-4.084,0-7.772,109.515-29.89,109.03-38.2-11.494,2.395-132.2,18.8-142.632,21.146C-102.48-533.479-109.2-530.473-116.112-530ZM-454.127-776.115q-.956-.991-1.911-1.984c3.373-4.056,4.654-10.351,13.1-9.022Q-448.535-781.619-454.127-776.115Zm24.385-39.073c-1.729.536-3.792,0-5.7-.055.183-1.814.273-3.645.573-5.44.33-1.987.849-3.944,1.209-5.562l-10.66-3.838c9.965-5.248,18.792-1.605,27.068,10.065C-421.865-818.2-425.723-816.432-429.743-815.188Zm108.525-52.743c1.086,4.746,1.806,7.895,2.987,13.051l-20.12-4q-.362-1.057-.722-2.118Zm-46.858,57.208-.02-.017c4.092,4.27,4.029,4.43-.174,12.991l-12.689-15.562c.828,5.324,1.71,8.753,1.812,12.208.14,4.643-1.189,7.818-5.5,4.778v-20.714l-9.371,4.557-3.837-6.686c-1.914,3.379-3.224,5.689-4.645,8.2-1.474-5.946-2.878-11.61-4.284-17.275l.854-.593c1.75,2.422,3.5,4.843,5.812,8.042,1.458-4.19-3.6-14.347,4.964-9.21l21.95-11.719c7.944-6.247,15.816-11.632,26-3.614l-3.156-4.689,1.37-1.851c2.444,1.946,6.626,3.662,6.923,5.892.448,3.384-.685,8.792-3.109,10.418-8.841,5.937-12.879-1.9-17.5-8.726-3.5,9.163,3.353,12.825,7.577,17.636C-367.4-822.852-372.4-820.038-368.075-810.723Zm15.238,46.524c.513-.969,4.394-1.383,5.552-.493,1.637,1.258,2.717,3.863,3.081,6.052,1.625,9.753,2.994,19.551,4.267,29.357a65.041,65.041,0,0,1,.052,8.284l-1.71.4c-.856-1.322-2.046-2.536-2.516-3.984-3.442-10.61-6.93-21.213-9.936-31.951C-354.7-758.861-354-762-352.837-764.2Zm-27.936,124.7c7.514,16.937,13.808,34.664,27.973,47.762.773.714.476,2.583.676,3.917l-1.731,1.282q-7.172-7.257-14.346-14.509c-2.815-2.834-6.133-8.329-8.417-7.936-6.618,1.14-12.827,4.652-19.2,7.234q.228,1.3.458,2.6c7.214,4.639,14.612,9.019,21.6,13.976,10.386,7.365,22.7,12.581,23.771,28.692.462,6.946,6.211,13.539,10.137,21.462a91.83,91.83,0,0,1-9.222-2.459c-19-7.34-37.912-14.894-56.944-22.147-4.752-1.811-6.7-4.474-6.558-9.709.679-25.921,5.29-51.2,11.623-76.245,1.37-5.423,1.688-11.107,2.938-16.567.759-3.31,2.834-6.33,3.5-9.643.814-4.064.77-8.3,1.035-11.682l46.24,13.644L-358.207-655.8c1.762,3.186,5.585,7.492,4.686,9.018-1.845,3.127-6.219,4.763-8.388,6.227,1.593,3.843,2.57,7.746,4.7,10.858a18.989,18.989,0,0,0,7.4,6.009c7.368,3.459,13.223,7.8,12.931,17.295-2.284-2.839-4.525-5.712-6.866-8.5-2.7-3.226-4.812-7.688-10.469-5.1-.55.252-1.96-.591-2.533-1.286-8.1-9.844-20.831-16.042-23.262-30.366l-2.19.435C-381.772-647.281-382.3-642.935-380.773-639.5Z" transform="translate(1463.571 1797.681)"/>
          <path id="Path_1087" data-name="Path 1087" d="M-720.844-777.095q7.156.746,14.312,1.491l-.359,3.379-14-1.906Q-720.871-775.612-720.844-777.095Z" transform="translate(1786.743 1986.021)"/>
          <path id="Path_1088" data-name="Path 1088" d="M-535.124-1312.268a204.254,204.254,0,0,1,26.847,121.717c-3.182,33.243-14.49,67.234-4.915,99.224" transform="translate(1886.309 1699.19)" fill="none" stroke="#000" stroke-miterlimit="10" stroke-width="1"/>
          <g id="Group_52" data-name="Group 52" transform="translate(1206.954 674.636)">
            <path id="Path_1089" data-name="Path 1089" d="M-479.527-1110.655l.066.1.3.156c.7-.733,1.332-.152,2.173.476.115-.25.146-.539.545-.524,1.218,1.249.716.373,2.051.432-.332-.169-.774-.321-.811-.654a21.067,21.067,0,0,1,2.176.885c0-.625.066-1.289.633-1.442.329-1.064,1.7-1.736,2.6-2.51a3.676,3.676,0,0,1-.674-.931c.289-.363.8-.286,1.342-.042a1.2,1.2,0,0,0,.025-.382,1.2,1.2,0,0,1-.025.382,6.607,6.607,0,0,1,1.048.628c-.114-.233-.229-.47-.018-.584l-1.448-.9c.008-.118.1-.164.227-.175l-.514,0,.143.418c-.008.24-.273.241-.531.241-.415-.172-.4-.424-.532-.643l-1.029.017c-.664.567,1.78,1.519.177,1.5l-.284-.379c-.671-.114-1.436-.511-2.055-.207-.161-1.175-1.964-.019-1.531-1.284a12.509,12.509,0,0,0-3.8-1.618,10.038,10.038,0,0,1-3.878-1.8c-.627.794-1,2.491-2.226,3.367-.181-.17-.475-.359-.33-.547l-.816.362c.416.068.952.083,1.1.458-1.209.224.373.836.164,1.316-.518.038-1.066.147-1.59.218l.144.218a28.842,28.842,0,0,1,7.1,3.476Z" transform="translate(705.23 1127.87)"/>
            <path id="Path_1090" data-name="Path 1090" d="M-453.806-1124.437l.149,1.032c-26.46,5.525-62.756,6.488-95.386,9.753l.469-3.944c-8.5,3.058-18.329,5.181-26.449,8.226l3.224.568c-2.825,2.227-10.331,4-14.993,3.467l.444-1.012c6.342-.628-.432-.327,2.086-3.132l1.084-.524-.65-.49-1.086.524c.112-.587.006-1.336,1.032-1.565l-1.458-.1c-3.169-2.736-3.173-5.116-2.823-8.213-.8.392.066,3.424-3.384,2.448l.447-1.011c-1.249.6-2.508,1.243-3.766,1.816l-1.66-1.352c-1.342.614-2.221,1.273-3.586.844l-.462,2.043a27.745,27.745,0,0,0-4.883-.194c-1.7.026-3.444.094-5.2.161-3.507.116-7.048.2-10.088-.89-1.541,1.851-4.635-1.072-8.282.278l1.27,2.318c1.74,1.642,4.9,2.276,8.362,2.7s7.268.405,10.339,1.127l-.3,1.155c-1.319.281-2.321,1.2-3.911.547l-.544,2.024c1.164,3.667,4.066,3.433,6.892,2.428,2.834-1.052,5.586-2.948,6.711-2.385,4.815,2.1-3.267,4.314-.945,4.085-5.468,2.62,4.381,5.179,6.715,7.621,3.2,2.35,8.394,2.946,13.81,2.8,5.406-.224,11.053-1,15.267-1.369,6.921-2.908,15.058-3.49,23.136-3.562s16.061.353,22.479-.41c6.241-.1,15.141-8.992,19.826-3.144l11.589-.154-.1,1.193c11.15-1.021,22.987-5.37,33.171-7.391,4.46-.78,5.5-3.937,7.887-.886,9.23,1.189,18.971-4.381,27.062-4.547-.017-1.044,1.16-2.109-.35-2.72-4.2,1.213-9.28-1.075-9.663-3.9l1.683.188c-1.031-.728-2.077-1.427-3.135-2.124l-1.865,1.037a3.574,3.574,0,0,1-.885-1.627c-3.41-.74-6.557-2.923-10.176-4.261A13.636,13.636,0,0,1-453.806-1124.437Z" transform="translate(629.027 1124.949)"/>
          </g>
          <g id="Group_54" data-name="Group 54" transform="translate(1314.676 816.205)">
            <g id="Group_53" data-name="Group 53" transform="translate(0)">
              <path id="Path_1091" data-name="Path 1091" d="M-510.1-1002.734c.046-.619-.611-1.264.458-1.511,3.353-.462,5.952,1.72,9.306,1.255.089-.33.184-.66.278-.992,2.562.524,5.227,1.184,7.952,1.759q7.585.069,15.106-.149c-.115-.37-.164-.71.338-.825,2.09-.189,4.961.272,7.942.49.445-.043.888-.084,1.324-.124a1.191,1.191,0,0,0,.511-.766c1.349.086,2.545.226,3.654.376,14.736-1.419,29.712-3.175,45.933-4.857a77.659,77.659,0,0,1,10.2-1.886c4.884-.2,11.076.69,15.82.985-.594-3.568,11.05-4.863,8.875-8.528,3.161.2,7.91.493,8.193-.5.849-2.975,3.418-6.345,11.893-7.837,3.307-.3,8.313,1.157,9.5.593,1.863-.892-4.186-2.278-2.322-3.172-24.414-2.01-48.013-1.6-72.635-2.559-8.44,1.252-65-.2-79.493-1.439-.442,0-.882-.006-1.321-.006-7.913-.493-17.544-.588-24.3.506-3.106.715-6.271,1.611-9.42,2.471,1.425.638,2.743,1.272,3.884,1.891-3.167-.2-6.331-.393-7.574.2-6.8,1.259-3.049,3.175-.544,5.683,1.826,1.124-.759,2.646,2.124,3.832-2.106-.129-3.161-.2-5.274-.329-.28.994,6.522-.266,4.993,1.321-2.015-.461-4.314.066-6.422-.064.679,1.388,7.291.789,6.915,2.114-1.15.266-5.86-2.046-6.331-.395-.092.332,2.017.462,3.072.528-6.519.266-10.159,1.722-4.3,3.768-2.057-.129-4.941-.946-7.128-.8a.152.152,0,0,0,.015.028c1.086.1,2.946.515,3.949.574l-3.7-.229c.186.241.4.481.622.72a14.662,14.662,0,0,0,2.8.5c-.819-.052-1.637-.1-2.461-.154a16.554,16.554,0,0,0,2.038,1.641c2.885,1.187,5.626,2.872,7.208,2.97C-535.678-1004.371-522.865-1003.327-510.1-1002.734Z" transform="translate(558.894 1032.779)" fill="#202020"/>
            </g>
          </g>
          <path id="Path_1092" data-name="Path 1092" d="M-372.12-1134.18c-11.271,1.537-22.717,1.779-34.174,1.954-5.568,6.013-7.32,12.507.508,20.524,3.213,13.807,26.071,1.53,30.927,8.521a63.327,63.327,0,0,1,5.384-7.781q.776-4.094,1.541-8.134l2.3-.094c.386.811.776,1.631,1.193,2.508,2.249-2.318,4.643-4.519,7.116-6.643.161-.716.324-1.435.49-2.164,1.041-.187,2-.424,2.928-.684,3.313-2.674,6.726-5.224,10.143-7.687,1.275-3.212.934-7.153-1.035-11.623C-353.9-1141.552-362.682-1135.467-372.12-1134.18Z" transform="translate(1952.795 1788.58)"/>
          <path id="Path_1093" data-name="Path 1093" d="M-188.112-867.4c.823-.487,1.965-1.149,4.771-2.794-3.514-2.009-6.9-3.947-10.219-5.846Q-190.8-871.646-188.112-867.4Z" transform="translate(2069.374 1932.99)"/>
          <g id="Group_55" data-name="Group 55" transform="translate(1485.852)">
            <path id="Path_1094" data-name="Path 1094" d="M-114.51-790.186q-2.007-1.037-4.058-1.857A26.932,26.932,0,0,0-114.51-790.186Z" transform="translate(623.714 1978.009)"/>
            <path id="Path_1095" data-name="Path 1095" d="M-115.851-785.85l-1.74-6.5a30.7,30.7,0,0,0-8.981-1.284A116.26,116.26,0,0,1-115.851-785.85Z" transform="translate(619.424 1977.158)"/>
            <path id="Path_1096" data-name="Path 1096" d="M-246.224-640.87c-3.547.617-7.287,2.287-10.606,1.674-16.507-3.052-32.9-6.706-49.347-10.114q4.944,7.727,9.66,15.246c11.535,4.732,23.093,9.417,34.306,14.821,8.661,4.175,15.587,9.246,26.541,4.447,7.222-3.165,16.757-1.109,25.259-1.244,1.412-.021,3.588.244,4.141,1.151,10.031,16.436,29.091,17.032,45.09,26.343l-6.933,5.382,9.038,3.688-.023,2.622c-3.173.464-6.4,1.561-9.511,1.282-17.333-1.551-34.725-2.868-51.9-5.523-5.78-.893-11.157-5.2-16.424-8.428-10.887-6.674-21.514-13.768-32.41-20.427-1.591-.972-4.069-.5-6.976.585,7.2,6.884,14.678,13.447,22.291,19.857,45.283,15.742,73.026,50.171,97.8,85.2q4.693,6.668,9.283,13.315c12.226,3.8,27.919,15.188,30.088,21.863q-1.138,1.47-2.276,2.941l-20.123-13.85c1.18,1.662,2.358,3.327,3.543,4.967,6.577,9.13,13.232,18.029,20.358,26.194,3.378,2.116,6.021,5.6,8.827,8.105,6.844,6.11,13.49,12.44,20.1,18.817,3.221,2.265,6.559,4.387,10.014,6.393a112.971,112.971,0,0,0,15.447,7.491q5.7,6.481,11.027,13.627c3.413,4.582,6.626,9.46,9.733,14.434a23.977,23.977,0,0,0,7.681-3.579c7.147,5.6,10.967,12.014,10.391,21.674h7.675c8.6-3.812,16.883-8,24.661-11.105-14.994,3.505-31.244,9.907-31.565-20.952,10.987,16.215,30.63,19.069,50.7,23.279C22.8-376.819,16.253-382.931,9.494-388.8c-2.309-2.006-6.451-3.58-9.282-3.014-12.709,2.541-20.186-6.084-29.388-11.9-8.31-5.247-17.636-9.1-26.876-12.607-14.317-5.44-24.942-12.819-21-30.415,9.191-.1,18.378-.284,27.561-.206,2.484.021,5.357.217,7.379,1.441q25,15.146,49.685,30.824c4,2.554,8.6,5.494,10.727,9.44,6.07,11.251,16.436,17.558,26.5,24.184,6.156-1.564,13.4,1.19,20.305,5.422,16.183-5.5,32.822-12.022,47.667-31.558,23.767-22.457,70.871-14.011,105.221-34.774,19.464-4.506,40.878-4.91,62.343-5.473a8.109,8.109,0,0,1-.988-.654c25.581-23.852,61.962-21.92,96.128-22.622q1.631-.032,3.253-.075c11.925-9.193,22.255-22.133,30.268-40.46,6.211-14.294,25.038-18.548,49.444,1.834,13.062-86.662,88.422-84.426,141.746-89.9,8.532-1.885,17.7,2.677,26.512,10.088-6.52-6.838-2.494-14.4-.992-21.785l3.9-.077,1,21.941-3.62.161c10.543,8.952,20.554,21.94,28.309,32.839.4-.5.8-.951,1.192-1.364,38.708-44.342,82.338-85.436,132.057-102.8,17.651-7.48,35.3-14.956,53.339-21.714v-61.323c-21.454-3.169-42.9-6.407-64.38-9.388-1.854-.257-5.376.771-5.7,1.894-2.834,9.942-10.937,7.913-17.458,7.294-12.119-1.147-24.124-3.5-36.178-5.358q-.076-2.133-.151-4.267l12.661-7.414c-10.289-1.791-17.94-3.546-25.692-4.393-22.115-2.414-44.312-4.115-66.389-6.815-9.32-1.14-20.441-2.028-15.679-17.18.553-1.759-2.525-4.963-4.368-7.115-5.241-6.118-7.2-12,.863-18.4.329,4.625.633,8.889.937,13.151l4.382.3c1.828-14.916,4.2-29.792,5.318-44.761,1-13.448.624-27,.837-40.5.046-2.949,1.081-6.56-.241-8.681a13.609,13.609,0,0,0-8.176-5.814c-1.6-.286-5.313,3.6-5.82,6.066-4.084,19.884-6.907,40.056-11.725,59.746-1.771,7.237-7.081,14.18-12.4,19.694-2.092,2.17-11.461,1.6-12.529-.4-2.278-4.25-3.454-13.615-1.306-14.991,15.674-10.039,4.374-19.474.863-29.438-1.557-4.42-1.261-9.5-1.945-15.484,13.818,4,20.1,1.057,23.626-9.379,3.477-10.289,6.371-20.777,9.521-31.178l-2.352-1.7-12.836,10.6c2.18-9.7,4.871-16.516,4.937-23.361.072-7.4-2.31-14.819-6.018-22.774-.779,2.236-1.574,4.465-2.332,6.708-1.323,3.921-2.622,7.85-3.931,11.776-3.307-1.971-6.612-3.943-12.979-7.737,2.17,6.225,2.485,12.279,5.419,14.093,2.954,1.823,8.512-.571,12.709-1.091-2.874,14.662-4.784,28.635-8.651,42.042-1.536,5.327-7.4,9.4-11.3,14.051q-2.124-.619-4.247-1.238,1.636-12.374,3.273-24.749-1.684-.336-3.367-.676c-9.979,15.67-10.113,34.789-15.283,52.144l-3.792-.356c0-13.8.362-27.615-.283-41.383-.141-3.007-3.872-5.847-7-10.243.548-1.7,1.822-5.648,3.362-10.425-10.19,3.376-10.581,16.088.842,30.87-3.378,1.826-7.8,3.451-11.236,6.281-3.851,3.178-6.873,5.855-11.125.892-3.1-3.625-7.188-6.3-2.263-12.082,4.175-4.9,6.714-11.189,10.567-17.894-13.109-1.923-11.252-12.315-11.383-19.745-.284-16.232-1.213-33.238,3.069-48.546,4.391-15.7,5.735-31.163,6.483-46.991a43.584,43.584,0,0,0-2.505-16.507c-12.578,8.981-4.565,23.823-13.583,36.752,2.027-17.275,4.049-31.67,5.2-46.135.3-3.855-1.233-10.753-3.364-11.383-7.79-2.3-7.735,4.9-8.213,9.729-1.379,13.948-1.831,28-3.594,41.889-.387,3.041-4.224,6.855-7.336,8.035-3.947,1.5-8.818,1.135-13.219.756-12.423-1.072-23.28,2.189-33.157,11.08,2.682,3.454,5.408,6.964,10.153,13.071-7.743,0-13.7,1.743-16.989-.472-3.553-2.391-4.616-8.483-7.694-14.9l-9.956,2.447q-.719,1.79-1.436,3.579l10.193,4.454-1.8,4.586c-3.792,0-9.213,1.545-11.011-.349-2.967-3.123-3.594-8.468-6.179-15.533l-12.567,10.286c-2.087-1.816-5.2-4.528-9.154-7.967-.677,11.9-7.138,12.552-17.613,12.4-25.752-.362-51.6,3.431-77.286,2.45-12.63-.482-26.9,3.514-38.82-6.047-1.576-1.264-7.144,2.368-10.822,3.837-1.831.731-3.537,2.373-5.351,2.453-11.375.5-22.764.912-34.149.915q-73.959.028-147.916-.276c-3.2-.014-6.924-.4-9.52-2.028C33.676-982.855,11.807-985.564-10.7-986.077c-16.343-.372-32.7-.749-49-1.865-3.755-.256-7.3-3.547-13.463-6.75l-5.811,2.295c-5.259-6.74-1.826-11.954,3.457-15.082,8.509-5.036,9.094-12.472,9.414-20.984,1.49-39.709,3.347-79.4,5.11-119.1.08-1.8.525-3.579.922-6.167,2.453,0,4.565-.177,6.64.028,13.856,1.369,26.065.223,34.072-14.083,3.235-5.78,10.188-9.571,15.69-13.964,5.7-4.545,9.5-3,11.019,4.144.309,1.452.806,2.862,1.173,4.3,4.536,17.768,4.617,17.665,22.3,17.6,59.363-.2,118.727-.209,178.09-.5,6.3-.031,15.84,2.708,12.418-10.277-.439-1.668,2.842-5.921,4.934-6.345,5.732-1.161,12.374-2.577,17.444-.67,3.6,1.353,5.023,8.085,7.818,12.139,2.006,2.909,4.677,5.359,6.614,7.525-1.846,11.1-4.017,22.276-5.3,33.556-.237,2.086,3.124,4.58,5.236,7.445l-5.591,7.256c15.971,6.959,21.448,2.971,22.15-14.338.65-16,1.892-31.989,3.288-47.946.588-6.72,10.819-12.521,18.854-7.87,10.362,6,17.286,3.923,23.34-2.63l-9.572-8.967c4.35-2.1,8.661-5.932,13.054-6.027l.713-6.023c-7.488.264-15.028.39-22.431,1.4-17.359,2.373-17.332,2.574-24.833-12.089-11.844,10.913-25.948,13.813-41.572,12.449-6.88-.6-9.713-3.665-10.724-10.2-.6-3.892-2.854-7.529-3.29-8.617.579-5.759.951-9.385,1.309-13.011.395-4.012.871-8.019,1.147-12.042,2.376-34.584,4.646-69.177,7.082-103.757,2.857-40.563,5.42-81.155,9.065-121.651.974-10.821,5.124-21.431,8.555-31.9.671-2.05,4.6-3.491,7.3-4.308,3.76-1.138,7.777-1.422,15.149-2.649-6.787-3.064-10.534-5.11-14.513-6.476-7.245-2.488-9.7-8.8-6.835-14.112,6.047-11.214.166-12.686-8.867-12.536-1.975-12.473,8.518-15.2,14.863-20.281,5.631-4.511,11.163-1.693,15.191,3.908a6.5,6.5,0,0,0,2.679,1.912c5.837,2.511,24.7-4.734,28.386-10.842H83.343c-9.144,18.923-21.382,32.891-46.325,26.525l2.894,4.307c-4.166,3.479-7.824,8.038-12.578,10.26-29.177,13.639-58.608,26.736-87.924,40.078-1.276.581-2.27,1.78-5.109,4.079,7.855,7.68,15.55,14.773,22.675,22.4,2.565,2.745,5.182,6.7,5.342,10.22.886,19.464,1.591,38.97,1.283,58.445-.464,29.349-1.852,58.684-2.749,88.027a16.8,16.8,0,0,0,3.117,11.165,40.58,40.58,0,0,0,1.192-5.856c1.742-29.971,3.279-59.955,5.173-89.915.6-9.454,1.361-19.017,3.442-28.214,1.418-6.267,6.3-7.558,10.226-1.491,2.992,4.615,6.081,9.727,7.059,15a366.779,366.779,0,0,1,4.123,104.731c-2.219,21.772-1.822,43.8-3.087,65.688-.436,7.546-2.348,15.006-4.06,25.366,3.6.444,9.753,3.1,12.914,1.078,3.464-2.215,5.293-8.612,5.85-13.417,1.3-11.223,1.407-22.583,2.02-33.886.14-2.57.67-5.155.5-7.7-.647-9.864-.135-20.066-2.559-29.5-5.258-20.453,6.837-38.989,4.467-59.486-2.321-20.075.16-40.777,1.393-61.151.413-6.843,2.9-13.758,5.5-20.207,2.066-5.115,6.943-6.982,9.8-.965,3.573,7.528,7.436,15.751,7.784,23.821,1.167,27.021.8,54.107,1.111,81.167.029,2.553-.215,6.138,1.267,7.479,8.984,8.133,3.295,12.589-2.763,15.963-1.29,27.337-2.275,53.636-3.972,79.888-.367,5.685-6.645,11.1-.344,16.949-2.313,2.181-4.351,5.758-6.99,6.276-7.423,1.453-15.888-.547-20.582,8.005-.409.743-1.969,1.2-3,1.207-16.892.072-33.786.052-52.15.052,1.229-3.6,1.333-6.984,2.857-7.838,7.921-4.436,9.607-11.763,10.4-19.743,1.826-18.341,3.754-36.674,5.46-55.029.558-5.995-1.322-9.825-8.589-9.841-12.48-.026-25.591,1.432-37.273-1.86-14.016-3.949-25.91,2.806-38.877,3.172-7.449.209-14.7,4.31-22.221,5.7-18.33,3.374-20.284,2.2-28.275-13.5-.611-1.2-1.852-2.081-4.9-5.385-2.537,7.276-5.456,12.666-6.13,18.324-.865,7.254-4.109,10.515-11.065,11.392-10.587,1.335-21.095,3.337-31.7,4.525-6.012.674-10.314,2.022-8.784,9.354.075.358.2.943.032,1.083-12.04,9.826-1.057,21.819-2.815,32.755-1.855,11.533-.891,23.618-.1,35.39.149,2.2,5.371,5.873,8.15,5.781,20.746-.693,41.457-2.445,62.2-3.282,13.469-.542,26.976-.1,40.466-.1q.094,1.447.187,2.9c-9.308.809-18.6,1.96-27.928,2.361-23.322,1.006-46.655,1.986-69.994,2.31-8.885.124-13.414,3.027-12.851,12.26,1.238,20.333,2.585,40.661,3.53,61.008.237,5.064-.885,10.193-1.413,15.621,8.717,2.857,18.08,5.926,27.444,8.993q-.03.666-.057,1.332c-7.284-.937-14.549-2.3-21.86-2.631-3.672-.167-9.233.409-10.68,2.7-1.7,2.691-1.091,8.5.886,11.263,1.313,1.839,6.775.825,10.382.857,1.379.011,2.871-1.146,4.13-.888q46.6,9.5,93.137,19.273c.485.1.783,1.094,2.822,4.136-11.979-1.236-22.235-1.908-32.364-3.431-15.039-2.263-29.959-5.319-45-7.586-3.387-.51-7.053.848-10.592,1.346.556,3.473,1.244,6.932,1.627,10.425.321,2.915.284,5.869.406,8.805-2.806-1.034-5.834-1.7-8.356-3.205-2.45-1.465-4.09-4.686-6.617-5.51-2.828-.922-6.714-.877-9.217.467-1.209.648-.636,5.281-.255,8.024.35,2.527,2.026,4.9,2.241,7.408.694,8.05.614,12.161,12.784,10.718,24.319-2.882,49.194-1.049,73.838-1.241,7.915-.062,16.02-1.538,23.7-.277,10.544,1.731,20.763,5.451,31.122,8.319q.166,1.553.329,3.1l-10.861,5.37q.016-1.412.034-2.825c-6.714-1-13.4-2.591-20.147-2.858a288.649,288.649,0,0,0-31.1.441c-2.8.192-5.408,3.261-8.1,5.01,2.765,1.614,5.45,4.432,8.308,4.622,9.047.6,18.16.223,27.412,2.261L-151-983.452c21.324,4.732,49.952,1.814,53.881-4.488,6.62,1.978,12.626,4.526,18.871,5.428,6.337.914,12.91.2,19.381.2q-.014,1.938-.025,3.875l-128.7,8.483-.763-4.388,19.941-5.826q-.2-.836-.4-1.673c-13.162,2.372-26.286,4.973-39.5,6.978-4.1.622-8.882.688-12.589-.842-9.483-3.912-31.157,3.21-40.024,13.957-9.448,11.452-19.239,22.643-28.174,34.482-2.3,3.051-1.949,8.105-2.874,12.515l-41.658,9.328q-.461-1.244-.923-2.488l28.248-15.518-10.928-5.341c3.917-4.732,7.288-8.807,12.332-14.9h-13.351c3.57-7.732,16.845-10.5,20.4-4.27,5.325,9.317,7.454,7.194,12.576-.373,4-5.906,11.2-9.632,16.917-14.406.418-.349.3-1.336.621-3a84.288,84.288,0,0,0-9.571-.763c-21.04.663-42.087,1.23-63.108,2.3-21.657,1.1-22.709.67-31.936-21.388,6.618-.484,12.712-.7,18.733-1.481,2.349-.3,4.534-1.868,6.8-2.858-1.021-2.175-1.633-4.7-3.147-6.451-3.494-4.033-7.669-7.488-11.059-11.6-1.3-1.579-1.221-4.3-1.769-6.5,2.568-.035,6.691-1.109,7.465.052,9.076,13.6,22.56,5.1,33.877,6.864.84.13,3.569-4.325,3.333-6.413-.444-3.925-2.413-7.677-3.732-11.454-.714,0-1.774-.3-2.052.042-10.386,12.727-12.865,12.89-34.951,3.778-5.156-2.127-10.726-3.258-16.123-4.8a19.338,19.338,0,0,1-.16,4.163c1.258.8,2.53,1.6,2.9,2.7,1.187,3.559,2.954,8.081,1.677,10.974-1.238,2.808-5.857,5.447-9.211,5.752-10.283.937-20.691.409-31.017,1.017-19.087,1.125-19.077,1.292-33.078-11.9-6.023,5.938-4.838,10.947,6.9,24.563-3.929-1.284-6.257-2.915-8.03-2.447-.335.089-.688.18-1.038.271,2.084,5.039,4.038,10.377,6.05,15.72a20.28,20.28,0,0,1,4.414,1.167c4.251,1.737,7.692,5.459,11.487,8.31-2.636,3.135-4.9,6.926-7.7,9.762,4.812,9.31,10.782,17.226,19.329,21.479,2.72,16.535-11.851,24.928-22.314,32.412s-16.72,14.148,2.954,27.544l12.9-.043c-30.787,40.212-13.455,58.844,10.219,76.469l9.027,6.615c3.078,2.218,6.164,4.465,9.177,6.78a111.831,111.831,0,0,1,16.547,15.069c9.646,11.065,15.567,24.608,12.435,43.351a37.9,37.9,0,0,1,10.188-8.264c-3.15,3.41-6.089,6.918-9.183,10.4,10.61,12.291,20.556,25.4,29.951,38.706,28.991,14.515,56.477,28.277,83.943,42.03ZM830.388-738.224c-8.687,11.374-15.917,10.772-29.34-2.359Zm-69.45,4.559q-.251,1.625-.5,3.246a366.4,366.4,0,0,1-123.176-22.428ZM286.922-1191.695a8.333,8.333,0,0,1,5.436-.131c4.634,1.684,9.1,3.832,13.627,5.8l-10.681,7.5c-4.986-.7-7.572-.378-9.253-1.459-2.977-1.914-5.4-4.685-8.059-7.1A89.191,89.191,0,0,1,286.922-1191.695Zm-50.289,1.336,15.168,5.731c-4.8,2.084-9.552,5.723-14.4,5.841-5.4.134-10.868-2.937-16.307-4.612C226.159-1185.666,231.222-1187.933,236.633-1190.358Zm-19.014-17.928-18.929,5.234C202.258-1212.644,203.9-1213.238,217.619-1208.286ZM38.863-1196.447c12.16-5.949,11.019-17.122,11.813-28.016,1.776-24.414,4.7-48.747,6.305-73.17.725-11.024-1.338-22.219-.809-33.273,1.537-32.224,3.421-64.443,5.95-96.6.525-6.68,4.424-13.092,6.766-19.63q2.626-.012,5.251-.026c3.144,8.325,8.388,16.5,9,25.007,1.359,18.8.836,37.774.276,56.654-1.279,43.354-2.958,86.7-4.7,130.033a62.5,62.5,0,0,1-2.92,16.245c-1.5,4.72-6.551,9.307.571,13.219,6.29,3.454,18.588.706,20.527-4.926,2.634-7.66,5.293-15.665,5.766-23.651,1.82-30.724,2.511-61.514,4.152-92.25.968-18.137,3.247-36.2,4.345-54.335.94-15.544.412-31.191,1.733-46.692.836-9.795,3.593-19.476,6.128-29.039.637-2.4,3.98-5.992,5.66-5.777,2.622.337,6.145,2.991,7.068,5.484,2.9,7.85,6.91,16.137,6.7,24.158-1.691,65.979-4.185,131.937-6.614,197.9-.232,6.27-2.292,12.495-2.287,18.739,0,2.771,3.476,8.1,4.623,7.9,9.667-1.663,21.394,3.6,28.469-7.846,1.236-2,4.018-3.04,7.018-5.193-10.793-7.329-7.9-17.791-7.228-27.832,2.8-41.866,5.431-83.744,8.348-125.6,1.264-18.14,3.468-36.218,4.473-54.367.55-9.922-1.29-19.987-.61-29.89.587-8.552.233-19.657,10.428-22.018,2.565-.593,9.68,11.326,11.916,18.379,2.387,7.526,2.238,16.134,1.874,24.21-2.107,46.676-4.7,93.331-6.921,140-.865,18.172-.562,36.424-2.09,54.53-.535,6.337-4.937,12.358-7.632,18.5-.96,2.187-3.146,4.371-3,6.429,1.537,21.441,1.653,21.763-20.353,22.8-38.359,1.8-76.738,3.161-115.112,4.628-1.694.066-3.419-.65-5.327-1.043C38.6-1194.455,38.362-1196.2,38.863-1196.447ZM-103.6-1090.142c.261-17.616-1.932-18.2-20.018-17.922-22.124.338-44.3-2.067-66.438-3.448-8.485-.53-16.942-1.505-25.411-2.276q.094-2.034.191-4.069c4.144,0,8.3-.194,12.43.031,26.663,1.456,53.318,3.06,79.982,4.463a47.911,47.911,0,0,0,13.272-.68c2.246-.527,5.442-3.407,5.6-5.425,1.22-15.871,2.075-31.784,2.362-47.7.06-3.255-2.737-6.562-1.393-9.331,2.049-22.254,4.1-44.509,5.96-64.767,4.023,2.953,8.71,5.776,12.59,9.452,2.857,2.706,6.311,6.4,6.586,9.876.605,7.687-1,15.519-.988,23.293.008,5.8-3.023,13.131,5.791,15.951A2.2,2.2,0,0,1-72-1180.877c-2.1,14.813-4.284,29.61-6.807,46.819,9.632,13.107-.688,30.312.253,46.9,1.117,19.719-14.338,28.5-25.091,42.465C-103.645-1060.341-103.82-1075.244-103.6-1090.142Zm16.293,78.329c-2.548,1.363-6.669,2.413-8.767,1.209-1.882-1.082-3.06-5.586-2.548-8.188,1.17-5.949,3.563-11.655,5.279-16.909,2.468,5.467,5.48,11.371,7.712,17.557C-84.988-1016.362-85.937-1012.545-87.307-1011.812Zm-47.507,499.835c-1.826-1.029-1.819-5.313-2.656-8.1,2.68.084,5.932-.782,7.941.422,8.116,4.868,15.85,10.372,23.724,15.641q-1.214,2.541-2.43,5.083C-117.143-503.193-126.231-507.138-134.814-511.977Zm23.259-24.588q.9-1.078,1.808-2.155c6.987,3.8,14.063,7.793,16.031,16.766.473,2.153-1.891,4.927-2.949,7.416-2.74-1.307-6.815-1.9-7.961-4.058C-107.62-524.222-109.333-530.529-111.555-536.565Zm16.266,88.7c-1.084-1.616-4.488-1.493-6.5-2.711-3.662-2.222-7.081-4.847-10.6-7.3,3.4-2.031,6.628-5.328,10.245-5.838,8.569-1.207,22.533,8.926,24.838,16.909C-83.521-441.522-89.439-439.144-95.29-447.868Zm195.8-332.489C97.976-763.27,96-761.4,78.59-760.984c-4.453.107-8.91.017-13.366.017l0,.264c-5.944,0-11.89-.009-17.834,0s-10.532-.925-12.407-8.25c-.651-2.542-6.606-5.221-10.18-5.279-23.783-.385-47.579.064-71.368-.112-4.958-.037-12.553,2.415-12.437-6.629.1-7.794,6.305-9.671,12.652-9.371,21.737,1.028,43.455,2.456,65.181,3.708,2.932.171,6.54,1.376,8.7.134,20.742-11.928,43.038-3.379,64.5-5.144C98.932-792.21,101.537-787.251,100.513-780.357Zm39.443-3.115q-.154-1.952-.31-3.9c9.336-2.072,18.338-7.907,28.309-2.822q.194,2.479.39,4.957Zm63.068-2.243-.272-6.4h25.538q.1,1.914.194,3.832Zm204.8-154.276,4.542.229c3.247,14.238,1.143,28.291-1.132,42.339q-2.9-.076-5.792-.15Zm-25.867.267,3.871.126c6.978,14.246-.725,28.019-3.871,41.763Zm-27.217-3.995c10.337,5.147,10.317,30.553,0,48.845Zm-119.774-.989,5.431-1.181c1.318,4.06,3.911,8.182,3.715,12.168-.6,12.2-2,24.394-3.634,36.516-.777,5.772.137,10.561,6.531,9.706,2.779-.372,6.875-5.552,6.989-8.672.507-13.946-.381-27.937-.3-41.91.014-2.316,2.325-4.619,3.576-6.927,2.087,2.21,6,4.453,5.963,6.626-.223,12.563-1.694,25.1-2.051,37.667-.131,4.539,1.651,9.133,2.56,13.7,6.526-3.281,16.215-4.98,18.835-10.214,3.891-7.774,3.522-18.054,3.456-27.257-.029-4.144-3.7-8.262-6.356-13.678l11.845-5.849c.564,7.021,1.547,12.211,1.273,17.333-.574,10.735-1.662,21.45-2.829,32.141-.771,7.073,1.465,12.322,8.964,12.424,7.7.106,6.549-6.482,6.74-11.564.49-12.977.832-25.963,1.5-38.931.18-3.511,1.3-6.973,2.121-11.153,6.334,5.563,7.311,14.361,5.142,30.237-1.4,10.217-2.006,20.542-3.067,31.874h15.575c1.507-19.941,3.027-40.081,4.549-60.22l4.8-.163c.694,3.871,2.117,7.773,1.946,11.6-.476,10.735-1.421,21.459-2.527,32.152-2.107,20.381,2.726,29.278,23.061,32.463,22.188,3.474,44.881,3.7,67.335,5.551,3.7.307,7.313,1.717,10.965,2.616q-.465,3.368-.932,6.738c-10.434,0-20.967.922-31.277-.212-16.358-1.8-32.519-5.39-48.876-7.21-3.394-.376-7.7,3.169-10.841,5.792-4.589,3.829-9.7,6.655-12.838.143-5.625-11.681-9.707-6.142-14.071.928-7.024-15.9-25.07-15.714-47.845.587-1.307-2.534-2.519-4.872-3.72-7.216-1.124-2.192-2.135-6.234-3.371-6.3-13.684-.768-15.53-14.937-24.36-21.08-1.915-1.333-3.765-4.3-3.8-6.543C234.831-909.579,234.969-927.144,234.969-944.708Zm-18.518-3.779c2.522,2.255,7.055,4.379,7.21,6.788a227.33,227.33,0,0,1-.465,28.685c-.478,7.735-1.686,15.427-2.573,23.138l-4.353-.158c-.456-3.213-1.187-6.416-1.321-9.643-.559-13.6-1.1-27.214-1.243-40.826C213.681-943.155,215.49-945.824,216.452-948.486Zm-21.563,7.7c-.2-2.66.06-5.356.118-8.038,2.912.879,6.024,1.382,8.652,2.791a5.942,5.942,0,0,1,2.493,4.657c-.988,15.581-2.264,31.145-3.461,46.712l-4.276-.315c-5.038-11.833-8.076-23.686-2.385-36.557C197.1-933.97,195.13-937.656,194.888-940.79Zm-11.352.243,4.311.584q-1.4,21.072-2.8,42.145l-4.841-.28C172.617-912.665,180.355-926.5,183.536-940.547ZM161.921-947.8c10.67,5.875,12.171,35.422,3.379,48.864-10.331-6.669-3.212-15.7-3.348-23.5C161.809-930.665,161.921-938.9,161.921-947.8Zm-11.1,5.336,3.61.057c-.8,12.712-1.608,25.422-2.516,39.78C144.512-909.693,144.841-926.921,150.819-942.467Zm-10.683,65.358c.214-1.719,3.456-4.531,5-4.347,5.416.653,11.182,1.511,15.843,4.066,2.583,1.415,2.928,6.54,4.818,9.669,4.616,7.638,10.348,9.168,19.656,6.709,11.177-2.954,23.277-2.771,35-3.147,6.43-.207,10.713,2.954,7.144,11.7h31.069c.544,8.474,5.841,8.523,14.043,9.244,30.076,2.645,59.956,7.461,89.949,11.131,5.265.645,10.759-.794,16.083-.4,14.518,1.071,29.268,1.375,43.4,4.427,8.317,1.8,15.63,8.247,22.675,15.092-3.689-.588-7.368-1.275-11.073-1.74-5.5-.691-11.98-3.4-16.355-1.45-17.768,7.907-32.707-3.419-48.91-5.542-4.381-.574-8.729-1.393-13.108-1.983-24.809-3.336-49.593-6.88-74.449-9.809-8.165-.962-14.541-3.586-23.357,6.151-19.8,21.875-46.217,32.4-77.021,22.947a39.7,39.7,0,0,0-10.964-1.553c-11.3-.161-23.666,3.932-32-10.187l39.488-3.778c1.6-10.081,3.464-21.848,5.734-36.163-5.371,0-13.086-.379-20.751.091C151.138-855.313,138.824-866.606,140.136-877.109Zm-6.923-36.419c-1.706-12.948-3.113-23.635-4.568-34.671C140.913-945.422,142.233-936.242,133.214-913.528Zm-.123,52.436c.171.143-1.762,3.99-2.587,3.941-5.294-.312-11.28.069-15.6-2.347-3.715-2.077-6.471-7.287-7.8-11.67-.774-2.554,1.525-8.429,3.434-8.916,4.2-1.07,9.025.333,13.595.728-.346,3.092-.693,6.19-1.184,10.569C126.374-866.273,129.841-863.813,133.091-861.092Zm-22.228-66.291c1.908-2.6,4.55-4.918,5.442-7.78.942-3.014.21-6.549.21-10.873,8.69,6.112,8.919,22.373,1.169,42.046l-12.8-11.219,9.993-6.09ZM83.123-897.44a21.491,21.491,0,0,1,7.992-1.82c.57-.026,2.178,3.99,1.772,4.335a25.229,25.229,0,0,1-7.744,4.823c-2.537.875-5.491.544-8.262.743l-1.227-3.024C78.126-894.1,80.433-896.181,83.123-897.44Zm13.794,38.549c.186.573-3.063,2.264-5.772,4.182-2.13-2.4-4.834-4.13-5.471-6.43-1.613-5.813-2.305-11.884-3.313-17.86-.035-.2.513-.727.766-.711,2.074.127,5.545-.306,5.986.643A179.772,179.772,0,0,1,96.917-858.891ZM-29.017-937.8c.461-2.215,5.106-4.616,8.136-5,4.8-.6,9.813.41,17.614.931-5.15,6.168-7.371,10.451-10.895,12.54-2.848,1.69-7.941,2.04-10.778.564C-27.385-930.032-29.59-935.04-29.017-937.8Zm-17.915-27.168c1.011.238,2.113,8.777.479,10.084-8.3,6.635-42.165,1.791-50.7-7.648C-79.936-967.087-63.554-968.884-46.933-964.966Zm-68.034,110.453c7.956-.681,16.02-.106,25.119-.106-1.375,4.359-2.416,7.663-3.766,11.948,7.6,0,14.552.929,21.141-.224,9.2-1.611,11.242,3.058,11.414,10.377.144,6.227.029,12.46,1.74,18.654V-857c2.72-3.672,16.928,3.295,14.473-11.265-2.708-16.059-16.455-4.838-23.947-11.048.243-1.683.579-4.02.991-6.884q-6.619-1.836-13.275-3.68c10.464-4.1,20.207-12.269,31.633-4.823,2.189,1.425,3.014,4.946,5.187,8.766H11.787c.619.495,2.722,3.6,5.041,3.775,10.541.776,12.727,8.239,15.427,16.347.862,2.585,5.47,3.924,8.363,5.834,1.55-2.8,3.808-5.442,4.488-8.44,1.038-4.577-.048-13.043,1.574-13.5,8-2.269,8.8,5.182,11.212,10.509.877,1.939,3.547,4.124,5.569,4.308,10.643.964,13.326,6.463,8.9,17.39h78.148l.424,2c-3.262.6-6.516,1.663-9.786,1.72-18.917.332-37.841.674-56.757.481-7.638-.078-12.005,2.047-12.447,10.372-.611,11.532-2.674,23.3,10.156,30.75q-.217,1.481-.436,2.963c-6.869,1.1-13.721,3.014-20.611,3.169-37.877.852-75.763,1.485-113.647,1.691-9.207.049-18.132-8.512-27.538-2.7-14.93,9.217-31.056,3.918-46.615,4.9-8.251.524-15.733-1.4-10.3-12.94.777-1.648.346-4.405-.5-6.195C-148.581-836.969-140.312-852.345-114.967-854.513Zm-49.254-82.708q.41,3.085.819,6.171c-4.915,1.292-9.793,2.892-14.79,3.462-.585.068-1.819-5.554-2.751-8.537Zm-18.582,14.9,13.271,8.715-2.19,3.551c-7.128,1.559-10.388-3.527-13.085-9.573Q-183.8-920.978-182.8-922.323Zm-205.857-37.654a80.438,80.438,0,0,1-20.072-.4c-.8-.1-.8-6.218-1.132-9.2,7.3-.614,13.122-1.61,18.888-1.364,2.65.112,5.2,2.657,7.792,4.1C-385-964.446-386.586-960.229-388.659-959.977Zm37.909,100.146q-2.29-9.555-4.582-19.11l5.294-.939q1.4,9.706,2.8,19.413Zm14.664-64.607h-39.433q.023-1.353.045-2.705h39.44Zm141.577,145.707c-15.668-6.271-23.173-28.6-13.1-39.574C-196.366-807.313-190.371-794.9-194.509-778.731ZM-217.8-963.523q.62-1.339,1.238-2.679c3.218,2.954,9.26,6,9.17,8.844-.409,12.882-13.269,6.955-19.752,11.176-.355.232-5.115-3.858-5.095-5.91C-232.154-960.783-228.606-966.617-217.8-963.523Zm-20.723,2.395c.453,13.7-8.666,26.5-22.089,30.006C-260.6-944.949-249.615-959.441-238.521-961.129Zm-10.6,96.713c-.482,1.564-5.029,1.871-7.717,2.753l-2.468-2.284,6.935-16.32,4.977,1.141C-247.856-874.186-247.69-869.054-249.123-864.416Zm-12.2-15.644c-1.8,1.121-3.746,2-4.568,2.436-.342-5.94-1.267-11.749-.777-17.436a16.412,16.412,0,0,1,4.528-9.4c5.319-5.317,11.377-9.9,17.633-15.2-3.668,13.983,6.923,13.278,16.312,13.971,2.59.19,5.373-.062,7.712.826,2.871,1.09,6.835,2.682,7.58,4.955.641,1.955-2.227,5.471-4.17,7.767a62.006,62.006,0,0,1-10.179,10.044c-2.044,1.508-6.734,2.757-7.847,1.674C-244.211-889.272-252.667-885.466-261.325-880.059Z" transform="translate(447.448 1564.177)"/>
          </g>
        </g>
      </g>
    </g>
  </g>
</svg>
