<svg xmlns="http://www.w3.org/2000/svg" xmlns:xlink="http://www.w3.org/1999/xlink" width="1920" height="1080" viewBox="0 0 1920 1080">
  <defs>
    <clipPath id="clip-path">
      <rect id="Rectangle_92" data-name="Rectangle 92" width="1920" height="1080" fill="#fff"/>
    </clipPath>
  </defs>
  <g id="Mask_Group_13" data-name="Mask Group 13" clip-path="url(#clip-path)">
    <g id="Group_62" data-name="Group 62" transform="translate(-388.699 731.456)" opacity="0.254">
      <path id="Path_1098" data-name="Path 1098" d="M581.943-75.769c1.893-.976,4.337-3.258,5.592-2.728,12.341,5.224,18.286-8.8,28.685-9.447,1.039-.065,3.311-5.715,2.43-7-4.4-6.419-2.738-16.417-11.846-20.071-1.43-.573-2.415-2.542-3.323-4.039-.83-1.366-.956-4-1.939-4.3-15.455-4.778-14.652-20.6-22.882-31.4,2.319-.439,3.33-.87,4.286-.772,6.355.648,9.986,7.6,17.839,6.565,3.411-.448,7.674,5.914,11.629,9.084a27.412,27.412,0,0,0,3.616,1.984c1.933,1.112,3.839,2.271,5.756,3.409-1.972,1.311-3.784,3.212-5.952,3.8-3.464.935-7.165.994-12.692,1.656,3.628,4.263,6.063,7.124,8.693,10.216l5.387-6.507c4.157,15.472,7.936,29.534,11.928,44.394.012,0,2.309-.373,5.625-.91l-4.767,6.079Z" transform="translate(155.125 349.025)"/>
      <path id="Path_1099" data-name="Path 1099" d="M585.206-491.967c-2.91-3.025-7.627-5.731-7.651-8.478-.032-3.92.653-10.3,8.406-9.572.451,4.316-.59,10.936,6.139,6.265,2.885,7.192,5.569,13.883,8.5,21.2-7.022.892-14.045,3.376-11.189,12.255l-11.75,7.5,1.034,2.567c-2.562-.138-5.125-.275-7.588-.409C569.435-473.75,575.959-487.126,585.206-491.967Z" transform="translate(149.99 115.957)"/>
      <path id="Path_1100" data-name="Path 1100" d="M808.744-512.653c-8.053,3.418-3.759,10.385-4.036,15.817-.219,4.281-.777,7.142-5.488,7.206-9.19.126-18.384.038-27.574.038l-.3-2.055c3.113-.557,6.227-1.112,11.35-2.027-2.166-8.738-4.41-17.361-6.363-26.051-.366-1.628.444-3.519.711-5.287l7.553,1.465c-1.566-1.687-2.973-3.2-4.775-5.143,8.8,4,11.841,8.884,7.7,15.361-3.8,5.947-4.785,10.482-.36,16.042.719.9.406,2.632.6,4.233h13.44c-2.4-9.621-4.865-18.293-6.593-27.109-.555-2.829.829-6.036,1.394-9.5C805.02-528.122,805.47-519.614,808.744-512.653Z" transform="translate(281.802 103.08)"/>
      <path id="Path_1101" data-name="Path 1101" d="M584.928-355.756c.927,1.2,1.848,2.388,4.1,5.3l-12.068-2.145c.477-3.083.865-5.586,1.422-9.19-8.244,4.135-11.352-2.277-13.967-6.547-3.648-5.95-7.709-9.986-14.892-11.36,6.711-1.041,13.43-2.022,20.129-3.139,6.833-1.137,5.637,6.2,9.167,8.672,2.471,1.734,3.718,5.236,6.207,6.915C591.356-362.986,591.52-360.148,584.928-355.756Z" transform="translate(135.968 199.523)"/>
      <path id="Path_1102" data-name="Path 1102" d="M779.614-536.555c-4.455-6.23-8.827-12.127-12.89-18.228a5.282,5.282,0,0,1-.046-4.475c3.84-7.558,7.714-15.122,12.119-22.352,1.077-1.77,4.187-2.3,7.574-2.68C773.76-569.532,779.032-552.937,779.614-536.555Z" transform="translate(278.42 67.166)"/>
      <path id="Path_1103" data-name="Path 1103" d="M664.438-512.018c-2.776-5.3-11.164-7.974-3.466-17.817,6.525,15.815,11.507,29.951,9.718,46.356-.993-12.2-8.223-17.975-19.029-19.069C650.126-514.282,659.748-509.054,664.438-512.018Z" transform="translate(203.009 102.965)"/>
      <path id="Path_1104" data-name="Path 1104" d="M756.981-192.68c11.1-7.18,27.687-6.9,36.248.237C783.17-185.838,766.44-185.747,756.981-192.68Z" transform="translate(272.356 321.163)"/>
      <path id="Path_1105" data-name="Path 1105" d="M832.564-555.733l-.31.393,12.295-8.154c-2.073,11.7-3.865,21.808-5.557,31.368C832.365-537.651,826.793-544.849,832.564-555.733Z" transform="translate(320.461 80.837)"/>
      <path id="Path_1106" data-name="Path 1106" d="M736.281-117.445c-11.146,8.375-26.315,7.666-31.426-1.071C712.85-124.129,729.479-123.8,736.281-117.445Z" transform="translate(238.087 370.766)"/>
      <path id="Path_1107" data-name="Path 1107" d="M859.68-567.359a117.306,117.306,0,0,1,8.572,8.759,6.127,6.127,0,0,1,.688,5.068c-2.775,7.725-5.9,15.323-8.808,22.718-6.084-3.613-8.913-14.095-1.949-20.315,6.771-6.046,3.973-10.705,1.729-16.442Z" transform="translate(336.207 78.158)"/>
      <path id="Path_1108" data-name="Path 1108" d="M717.027-537.062H658.064l-.121-1.077c5.478-1.507,10.951-3.03,16.438-4.5a2.384,2.384,0,0,1,1.626.187c11.277,6.35,22.8-1.732,34.083.666C712.023-541.373,713.63-539.439,717.027-537.062Z" transform="translate(207.247 94.506)"/>
      <path id="Path_1109" data-name="Path 1109" d="M656.069-534.779c-4.177-7.482-16.09-12.774-7.568-23.993,3.277-4.313,5.228-11.461,13.432-9.363C653.241-556.3,654.619-555.26,656.069-534.779Z" transform="translate(199.067 77.539)"/>
      <path id="Path_1110" data-name="Path 1110" d="M602.724-353.158l5.847,1.1a7.452,7.452,0,0,1-.393,1.7c-4.951.094-10.871,1.76-14.547-.393-2.957-1.735-3.2-8.1-4.19-11.055,4.432-.694,7.12-1.74,9.565-1.331,2.655.444,5.085,2.242,7.614,3.451C605.446-357.721,604.273-355.752,602.724-353.158Z" transform="translate(162.213 212.491)"/>
      <path id="Path_1111" data-name="Path 1111" d="M822.367-561.548c-2.218,9.376-4.323,18.268-6.235,26.345-8.218-6.814-8.864-8.087-5.851-17.146C812.351-558.572,816.448-562.377,822.367-561.548Z" transform="translate(306.311 82.042)"/>
      <path id="Path_1112" data-name="Path 1112" d="M552.506-385.631l16.655-6.718,7.511,11.189c-1.727.176-4.089,1.19-5.276.413-6.87-4.5-11.905-4.041-18.646,3.416v-8.508Z" transform="translate(137.931 193.351)"/>
      <path id="Path_1113" data-name="Path 1113" d="M659.247-552.976l-6.094-4.336,10.294-2.385v19.733l-10.278-8.108C655.029-549.573,656.891-551.075,659.247-552.976Z" transform="translate(204.098 83.333)"/>
      <path id="Path_1114" data-name="Path 1114" d="M654.443-596.646c0,5.653-.177,11.315.048,16.96.235,5.96.509,12.174,9.018,13.18-4.369-.35-8.738-.7-13.861-1.105,1.306-10.114,2.538-19.634,3.767-29.152Z" transform="translate(201.793 58.965)"/>
      <path id="Path_1115" data-name="Path 1115" d="M772.092-110.059c6.854-8.045,17.37-7.646,23.158,0Z" transform="translate(282.29 375.064)"/>
      <path id="Path_1116" data-name="Path 1116" d="M653.664-574.2q4.843-18.477,9.689-36.955l2.206.522-7.488,37.5Z" transform="translate(204.434 49.506)"/>
      <path id="Path_1117" data-name="Path 1117" d="M688.979-518.59c1.323-2.257,3.214-5.484,6.321-10.785-.587,6.862-.974,11.418-1.342,15.736l-25.363-1.982-.012-.668Z" transform="translate(214.242 103.268)"/>
      <path id="Path_1118" data-name="Path 1118" d="M815.2-113.666c-6.335.161-13.6,6.878-19.715-3.219C803.355-118.575,809.731-119.528,815.2-113.666Z" transform="translate(297.67 373.598)"/>
      <path id="Path_1119" data-name="Path 1119" d="M544.238-425.681c3.681,4.105,6.124,6.83,8.569,9.555l-.822,2.605c-3.718-.83-7.606-1.248-11.073-2.682-1.483-.613-3.316-4.442-2.886-4.921C539.846-423.153,542.458-424.473,544.238-425.681Z" transform="translate(128.369 171.438)"/>
      <path id="Path_1120" data-name="Path 1120" d="M585.258-644.306,558.54-660.27l1.233-2.206c11.393.93,16.67,12.767,27.308,15.044Z" transform="translate(141.897 15.765)"/>
      <path id="Path_1121" data-name="Path 1121" d="M538.324-665.419c-5.7,0-11.4.152-17.081-.129-1.134-.056-2.183-1.77-3.272-2.72,1.207-1.2,2.561-3.56,3.592-3.426,5.794.751,11.511,2.1,17.254,3.249Z" transform="translate(115.227 9.701)"/>
      <path id="Path_1122" data-name="Path 1122" d="M783.715-544.316c-8.043-8.468-9.456-16.849-2.766-26.257C782-560.619,782.82-552.814,783.715-544.316Z" transform="translate(285.317 76.183)"/>
      <path id="Path_1123" data-name="Path 1123" d="M736.527-660.55l-12.871-7.672q1.865-1.867,3.726-3.734l8.864-3.653c1.076,4.99,2.062,9.558,3.046,14.126Z" transform="translate(250.447 7.131)"/>
      <path id="Path_1124" data-name="Path 1124" d="M656.837-532.5c6.925,2.042,13.626,9.779,13.549,16.651-.013,1.071-1.057,2.13-1.624,3.194-1.047-.59-2.6-.918-3.061-1.812C662.573-520.5,659.678-526.656,656.837-532.5Z" transform="translate(206.519 101.212)"/>
      <path id="Path_1125" data-name="Path 1125" d="M738.761-470.187a.443.443,0,0,1,.053-.25c2.133-3.655,4.535-5.186,6.713-.214a17.746,17.746,0,0,1,1.452,7.424c-.06,2.017-1.333,4-2.068,5.995-1.263-1.7-2.859-3.24-3.711-5.123A61.773,61.773,0,0,1,738.761-470.187Z" transform="translate(260.377 139.796)"/>
      <path id="Path_1126" data-name="Path 1126" d="M583.5-552.184c-6.141,3.431-12.185,4.621-18,.143C571.547-553.422,577.55-558.319,583.5-552.184Z" transform="translate(146.474 86.29)"/>
      <path id="Path_1127" data-name="Path 1127" d="M740.421-163.89h17.26C752.3-156.77,747.014-155.83,740.421-163.89Z" transform="translate(261.469 343.544)"/>
      <path id="Path_1128" data-name="Path 1128" d="M788.212-542.691Q785.756-555.2,783.3-567.7l3.1-.53c5.305,7.725,1.2,17.151,4.332,25.269Z" transform="translate(289.657 77.722)"/>
      <path id="Path_1129" data-name="Path 1129" d="M790.46-530.864c-1.41-2.932-2.619-4.651-3.051-6.547a16.227,16.227,0,0,1-.249-6.82c.171-.8,3.292-1.953,3.925-1.465,1.551,1.2,3.154,3.142,3.441,4.989C795.172-536.557,796.025-531.764,790.46-530.864Z" transform="translate(292.026 92.462)"/>
      <path id="Path_1130" data-name="Path 1130" d="M777.481-530.554c-2.274-3.736-3.3-5.143-4.031-6.688-.864-1.823-2.2-3.864-1.959-5.624.174-1.286,2.562-2.271,3.965-3.389,1.311,1.87,3.509,3.645,3.719,5.63C779.473-537.827,778.3-534.872,777.481-530.554Z" transform="translate(281.877 92.17)"/>
      <path id="Path_1131" data-name="Path 1131" d="M784.777-529.509c-2.619-4.5-4.086-6.358-4.808-8.468a11.77,11.77,0,0,1-.542-6.176c.222-.955,3.264-2.342,3.746-1.951,1.561,1.265,3.482,3.244,3.519,4.984C786.761-537.718,785.649-534.294,784.777-529.509Z" transform="translate(286.976 92.226)"/>
      <path id="Path_1132" data-name="Path 1132" d="M852.927-207.084l17,1.8q-.132,1.837-.264,3.678l-17.048-1.566Z" transform="translate(335.229 315.147)"/>
      <path id="Path_1133" data-name="Path 1133" d="M695.788-558.472v18.5l-9.895-8.64,6.505-1.255c.474-2.781.978-5.745,1.483-8.706Z" transform="translate(225.621 84.071)"/>
      <path id="Path_1134" data-name="Path 1134" d="M658.985-515.786l-20.6-2.443c8.915-.454,18.735,2.547,20.6-9.823Z" transform="translate(194.39 104.137)"/>
      <path id="Path_1135" data-name="Path 1135" d="M692.543-527.364a2.24,2.24,0,0,1,.3.086l3.118,10.039-3.54,1.386c-1.51-3.041-3.094-6.053-4.321-9.205A41.964,41.964,0,0,1,692.543-527.364Z" transform="translate(227.073 104.59)"/>
      <path id="Path_1136" data-name="Path 1136" d="M553.716-384.115c-.955-2.392-3.3-5.539-2.521-6.991,1.064-1.969,4.531-2.639,6.966-3.865q.694,1.1,1.386,2.2-3.033,4.428-6.071,8.861Z" transform="translate(136.966 191.627)"/>
      <path id="Path_1137" data-name="Path 1137" d="M815.306-177.667c-4.664-1.508-8.284-2.68-12.658-4.1C809.684-187.189,811.2-186.7,815.306-177.667Z" transform="translate(302.378 329.484)"/>
      <path id="Path_1138" data-name="Path 1138" d="M727.223-221.392H713l-.05-2.007h14.032Z" transform="translate(243.41 304.421)"/>
      <path id="Path_1139" data-name="Path 1139" d="M525.242-440.654c3.323,2.019,6.678,3.988,9.916,6.132a2.552,2.552,0,0,1-.141,2.188c-1.139.492-2.887,1.2-3.628.695-2.781-1.9-5.257-4.256-7.848-6.441Z" transform="translate(118.889 161.594)"/>
      <path id="Path_1140" data-name="Path 1140" d="M837.025-543.431c2.887-5.658,4.334-8.491,7.122-13.955.87,4.922,2.165,8.12,1.591,10.934C845.493-545.247,841.354-544.838,837.025-543.431Z" transform="translate(324.978 84.853)"/>
      <path id="Path_1141" data-name="Path 1141" d="M1094.07-544.313c1.527-6.689,3.1-13.367,4.623-20.056,3.182-13.949,3.176-13.95,16.808-14.615v-1.657c-8.4.026-16.8.214-25.188-.051-1.694-.055-3.514-1.614-4.967-2.844-4.11-3.479-14.327-2.211-16.929,2.776h10.044c-6.235,3.119-12.164,4.225-14.852,7.778-8.095,10.709-14.93,22.369-22.256,33.657l2.459.244q-.661,8.361-1.324,16.722h-2.66c-1-2.99-2-5.98-2.955-8.831-7.406.509-6.118,16.455-16.419,9.523-3.056,2.07-5.827,5.523-8.441,5.406-6.673-.293-13.276-2.18-18.409-3.146,2-5.518,3.883-10.735,6.245-17.257h-20c0,8.481.225,15.784-.073,23.065-.225,5.479-3.754,6.2-8.1,4.309a70.352,70.352,0,0,1-6.82-3.872l.418-1.263c2.4.179,4.807.36,8.9.666-.487-4.269.348-9.336-1.6-10.876-2.382-1.881-7.73-2.047-10.6-.592-2.05,1.041-2.128,5.968-3.547,10.7-1.358.718-4.613,2.435-8.524,4.5-1.251-5.836-3.33-11.065-3.217-16.246.114-5.216,2.408-10.384,3.9-16.19H935.285c-.519,10.016-.993,18.712-1.4,27.414a15.63,15.63,0,0,0,.3,4.115c2.13,9.437,9.721,15.359,16.644,12.787v-8.781c8.415.8,16.415,1,24.14,2.561,3.076.62,7.654,4.009,7.931,6.535,1.235,11.242,8.509,14.537,17.829,16-.428-4.492-.472-9.073-1.46-13.438-2.741-12.107,1.1-16.894,13.854-16.577-.1,8.446.505,8.307,9.358,8.746,7.594.376,16.838-2.866,21.692,6.812l-.23.211c2.368-1.735,4.647-4.807,7.119-4.971,9.343-.62,13.8,8.411,10.183,18.386-1.337,3.688-1.891,8.382-.84,12.056,1.807,6.315,5.218,12.162,7.816,18.265a19.19,19.19,0,0,1,1.919,6.534c.242,7.17.091,14.352.091,22.364h-20.749c-.265,1.021-1.056,4.056-2.07,7.961l-5.791-5.518v10.341c-2.658,1.482-5.176,2.882-8.267,4.6-1.394-2.287-2.745-4.216-3.8-6.3-2.223-4.377-3.811-9.19-6.681-13.069-1.029-1.391-5.218-1.253-7.53-.492-.953.315-1.129,4.13-.981,6.306.124,1.86,1.218,3.653,2.254,6.487l-11.879-5.546-1.028.89,5.025,6.27c-2.783.385-4.768.66-7.56,1.044,1.652,5.128,3.2,9.92,5.171,16.042l-11.826-1.6c.731,3.013,1.356,5.6,1.735,7.158h-8.143q-1.6-11.824-3.512-25.992c2.325,1.669,4.927,3.535,7.578,5.435.95-1.823,2.369-4.54,4.212-8.073l-10.064-2.017c-.166-3.053-.3-5.564-.441-8.077l-11.531,1.246c3.24,8.734,7.528,16.568.809,24.2,13.206,5.824,8.287,17.749,9.114,27.311L972.353-376.7c-.458,1.3-1.067,3.046-2.365,6.752l-9.509-14.617c-.686,2.877-.711,5.953-2.133,8.108s-4.245,3.393-6.437,5.02c-3.224-5.96-17.259-8.148-29.194-4.2-1.278-1.419-2.305-3.62-3.522-3.729-5.453-.491-12.454-2.581-16.15-.061-8.987,6.126-18.542,6.734-28.06,7.823,0-16.451.368-32.268-.1-48.058-.527-17.794-1.841-35.565-2.7-53.352a16.586,16.586,0,0,1,.953-5.561c3.769-12.117,7.692-24.185,11.441-36.307,2.8-9.049,5.408-18.157,8.219-27.629-7.044,1.369-13.031,2.816-19.1,3.522-1.6.187-4.73-1.633-5.025-2.993-3.26-15.054-2.32-30.16.068-45.665-1.863-.229-4.024-.835-6.134-.691-5.319.365-8.043-2.017-9.432-7.079-3.068-11.173-6.529-22.234-9.759-33.364-2.259-7.788-4.4-15.611-7.036-24.977-2.465,3.636-3.525,7.09-5.345,7.551-7.129,1.808-7.871,8.569-8.438,13.007-1.487,11.66-1.195,23.59-.989,35.4.076,4.316-.968,6.444-5.234,6.25-4-.182-7.989-.754-11.852-1.142,4.4-18.848,8.418-36.77,12.839-54.592,1.744-7.027,4.757-13.743,6.407-20.786.539-2.3-1.4-5.179-2.213-7.793l-2.509-.131c-1.212,3.068-2.607,6.079-3.592,9.219-1.432,4.574-1.2,9.954-8.425,10.415-1.236.078-2.912,5.97-2.948,9.194-.055,5.058,2.055,10.226,1.563,15.179-.981,9.867-3.053,19.627-4.81,29.408a35.763,35.763,0,0,1-1.982,5.612c-3.449-15.129-6.923-29.782-6.124-45.082-2.067,6.109-2.554,12.124-3.515,18.063-1.953,12.046.771,25.1-7.576,35.827a3.778,3.778,0,0,0-.171,3.109c5.882,15.185,2.8,30.79,3.071,45.995-7.462,2.632-7.462,2.632-8.536,10.362-1.356,9.762-13.646,14.935-21.348,8.826-1.769-1.4-2.819-3.709-4.3-5.738-1.011.758-1.838,1.1-2.237,1.72-6.994,10.81-7.651,10.82-13.74.239-1.125-1.959-2.463-3.8-3.7-5.69l2.226.537c1.316-5.458,2.63-10.917,4.316-17.908l-15.053.7c0,9.785,1.767,18.374-.428,25.789-3.038,10.266,3.787,17.005,5.91,25.322.3,1.168,4.12,1.437,8.44,2.786l-5.09-5.823h6.51c-.733-5.229-1.394-9.958-2.188-15.629,7.409.472,13.858-.086,19.625,1.639,3.123.935,5.958,5.455,7.2,8.965.625,1.772-2.357,5.09-4.144,7.367-2.514,3.2-6.257,5.695-7.952,9.22-1.795,3.734-3.48,8.962-2.178,12.381,1.647,4.329,6.356,7.493,10.518,11.993-.164-2.032-.278-3.2-.35-4.364-.5-8.1-3.252-16.6,2.135-23.882,1.49-2.015,7.8-3.365,7.989-3a76.659,76.659,0,0,1,5.556,14.083c1.107,3.89.7,8.307,2.228,11.96,1.9,4.543,5.112,8.539,7.709,12.7l-10.788,4.359c3.205,2.423,7.617,4.089,7.891,6.273.913,7.3.346,14.794.346,23.056L769.2-437.038l-2.75,1.475q.614,2.953,1.226,5.905a2.471,2.471,0,0,1,.3.088c2.622,4.042,4.326,9.893,8.043,11.784,10.385,5.281,3.128,12.177,4.24,18.189l-3.023.6c-.673-4.468-1.346-8.937-2.05-13.606l-6.853-2.511a11.6,11.6,0,0,1-7.117,4.614c-6.928,1.208-8.892,4.535-8.168,11.464.333,3.187-1.778,6.713-3.1,9.958a34.97,34.97,0,0,1-3.26,5.252c2.078.883,4.352,2.735,6.179,2.367,1.649-.335,3.234-2.907,4.074-4.831.968-2.213,1.087-4.8,1.576-7.22l1.86.2c.418,3.1.834,6.21,1.1,8.214,1.475-3.915,3.215-8.532,5-13.259l-11.718-2.063c3.906-2.8,6.242-5.836,8.1-5.567,7.853,1.137,9.769,9.134,6.177,25.261l11.279,1.245c-17.683.7-35.251.714-52.82.676a5.519,5.519,0,0,1-3.186-.666,15.164,15.164,0,0,0-16.385-1.2c-7.607,4.757-15,8.877-23.913,9.959-4.314.524-10.574,3.134-10.856-4-.635-16.054.007-32.154,0-48.236,0-7.013,2.453-13.838-.322-21.135-2.029-5.334-3.83-12.346-2.027-17.247,5.793-15.75,13.094-30.969,20.267-46.181,2.62-5.556,3.219-10.172.857-16.258-5.826-15.015-.419-25.725,12.833-27.813.336-.053.564-.8,1.73-2.579-11.819,2.864-13.407-5.211-15.543-12.83-2.16-7.707-4.193-15.469-6.8-23.03-1.7-4.944-4.321-9.573-6.529-14.343q-1.571.124-3.144.247c-2.04,10.057-4.27,20.081-6.031,30.186-.7,4.034-.181,8.266-.57,12.373-.6,6.338-5.368,6.474-9.809,5.423-1.8-.428-4.608-3.6-4.306-4.909,4.064-17.683,8.657-35.245,12.936-52.88.549-2.257.075-4.763.075-7.155l-2.223-.263c-8.933,18.371-11.39,38.618-16.763,58.483q-1.489-11.585-2.98-23.171c-2.191,6.8-2.478,13.579-3.374,20.278-.641,4.783-3.053,9.467-3.012,14.179.106,12.291,1.49,24.575,1.518,36.863,0,2.891-3.28,8.244-5.146,8.287-12.117.27-14.723,10.831-21.008,17.414,7.346,7.011,7.372,10.722-.9,16.261,1.691-12.2-7.871-11.665-15.8-14.231,7.4-9.093-6.873-7.909-6.57-14.151,8.662-1.173,8.662-1.173,7.816-8.6H583c.923,6.25.854,11.988,2.708,17.018,3.839,10.417-2.629,19.975-.993,30.649,2.347,15.311.6,31.251.6,46.945H576.5q-1.342,1.489-2.687,2.98c16.147-4.919,8.877,9.817,15.208,13.2,1.021-.517,2.063-.689,2.4-1.271,2.953-5.093,5.972-7.274,10.128-.991.839,1.265,2.811,1.719,4.051,2.791,5.784,5,7,11.826,9.109,18.288q-1,.43-2,.864l-4.067-6.713c-3.767.32-7.134.6-8.506.723,2.695,7.066,5.716,13.785,7.714,20.8.842,2.958-.953,6.58-.623,9.805.2,1.9,2.151,5.11,3.419,5.159,10.42.421,20.865.335,31.3.148,1.908-.035,3.926-2.02,5.67-1.735,5.433.888,10.729,2.572,16.13,3.693,7.289,1.512,10.355-1,8.687-8.837-.774-3.63-.133-7.564-.133-11.794h10.175c-1.714,7.193-3.262,13.694-4.8,20.151,5.836,3.691,16.367-3.479,18.188,8.45l-5.74,2.453c1.684,2.617,2.995,4.652,4.3,6.679-8.219,2.7-12.126,8.544-12.159,17.129-.038,9.84-.008,19.682-.008,28.975-14.665,0-28.657-.021-42.649.015-3.567.008-7.883-1.064-10.559.532-8.667,5.161-18,3.908-27.228,4.893-5.692.607-11.086,3.991-16.616,6.129l.706,2.523,13.15,6.22-10.417,13.041c4.482.935,7.029,1.768,9.625,1.959,29.979,2.2,59.937,5.251,89.96,6.21,51.511,1.643,103.063,1.982,154.6,2.819,10.016.162,12.45-2.035,11.826-12.2-.388-6.308.176-11.627,4.207-16.945,1.851-2.443,1.021-6.918,1.515-11.479,9.054-6.689,9.5-27.881-.323-32.29q1.358-2.267,2.725-4.545c-1.894-.625-3.771-1.72-5.683-1.788-6.365-.227-12.741-.086-19.543-.086l8.486-8.024-21.48-6.805c7.922-1.147,15.283-2.213,22.642-3.28a.443.443,0,0,1,.053-.25c2.1-2.221,4.238-6.386,6.3-6.353,14.33.239,28.647,1.349,42.969,2.181q-.012,1.044-.023,2.092H862.576a16.266,16.266,0,0,0,8.764,2.751c9.618.658,19.261,1.018,28.862,1.851,5.86.509,7.757,4.929,4.491,9.8-.9,1.346-2.231,2.4-4.233,4.51,3.653.278,5.953.994,7.927.472,2.736-.723,5.227-2.377,7.823-3.633-1.336-1.928-3-3.709-3.94-5.816-1.888-4.253-3.379-8.683-4.74-12.263,3.065,2.753,5.813,7.417,9.008,7.748,34.174,3.54,68.428,6.31,102.644,9.477,15.145,1.4,30.239,3.368,45.382,4.826,12.091,1.164,24.2,2.183,36.3,3.205-.141-.559-.27-1.1-.385-1.608.786.366,1.739-2.586,1.584-5.411a146.433,146.433,0,0,0-2.648-20.549c.835-5.1,1.488-6.333,2.143-7.752.6-1.343,1.3-2.768,1.424-7.2a3.147,3.147,0,0,1-1.062-.988h-9.663c-1.236-3.862-3.912-10.518-5.294-17.434-.507-2.541,2.352-8.232,3.142-8.135,1.1.134,2.267.32,3.433.565-.138-.731-.27-1.467-.358-2.223a18.121,18.121,0,0,1,.292-5.481,111.112,111.112,0,0,1-.631-13.345,104.1,104.1,0,0,1,1.283-13.233c.4-2.171.663-4.364,1.268-6.481q.823-3.192,1.743-6.33c.628-2.087,1.47-4.107,2.248-6.126l1.228-3c.444-.984.947-1.946,1.432-2.907.184,1.589,2,.636,2.513-1.51a28.258,28.258,0,0,1-.385-5.022,10.846,10.846,0,0,1,1.806-5.662c-.655-1.477-2.159-1.216-3.081-1.516-.9-.29-1.324-1.235.625-4.984,1.55-2.95,3.869-4.7,5.96-6.55a11.814,11.814,0,0,0,2.591-3.176,11.254,11.254,0,0,0,1.149-4.667,2.148,2.148,0,0,0,2.277-.376v-24.961c-2.44,10.745-8.357,14.673-19.813,12.684-10.616-1.843-13.044-3.53-10.72-14.149C1087.9-517.6,1091.019-530.948,1094.07-544.313ZM627.035-475.071c-1.127-6.055-2.37-11-2.8-16.016-.138-1.608,1.883-3.4,2.915-5.108,1.745,1.293,4.394,2.229,5.072,3.945C634.571-486.318,637.56-479.811,627.035-475.071Zm24.051-10.094a9.956,9.956,0,0,1-1.817,1.58c-2.809,2.115-5.637,4.208-8.458,6.308-1.235-4.064-2.471-8.13-4.142-13.621l17.068-1.535q.9.753,1.8,1.5C654.061-489,652.614-487.051,651.086-485.165Zm5.693-68.426c2.67.505,4.938.781,7.117,1.376,4.894,1.333,8.751-2.789,8.282-7.858a42.466,42.466,0,0,1,.941-13.942c1.208-4.851,3.754-9.369,6.446-15.767,2.829,10.069,5.272,18.767,7.717,27.467-3.249-3.789-6.028-8.625-11.521-1.954,3.094,3.729,6.011,7.243,8.928,10.757v0h-8.943c-1.233,3.588,4.513,10.674-4.891,11.723C660.291-540.61,659.3-541.189,656.779-553.591Zm5.829,92.34c-2.617-9.267-.716-12.737,6.928-11.372Zm17-63.643c.4-6.648.525-13.8,1.409-20.857.336-2.685,2.39-5.155,3.674-7.722.217,8.108.113,16.239.762,24.311.462,5.761,3.8,12.752-7.211,9.9-.481-.124-1.207,1.034-1.926,1.364-.391.179-1.008-.133-1.508-.219-1.535-3.59-3.055-7.15-5.186-12.139ZM702.8-284.481a20.6,20.6,0,0,1-11.333,1.182c-2.463-.4-6.494-3.249-6.464-4.946.2-11.633,1.281-23.254,2.112-35.338,19.8,1.334,19.8,1.334,10.127,17.337l7.08-2.69c1.082,5.7,2.756,11.357,2.964,17.061C707.375-289.367,705.046-285.507,702.8-284.481Zm-3.5-40.585c-3.222-.08-6.4-.612-4.639-5.223,9.686-7.689,14.85,4.323,22.276,5.266C711.23-325.023,705.26-324.919,699.3-325.067ZM862.226-577.7c.172,9.083-.255,18.187-.713,27.266a41,41,0,0,1-2.856,13.274c-10.225-14.255-.777-31.168-8.413-45.756C857.187-585.165,862.082-585.384,862.226-577.7Zm-25.4-53.414c2.7,9.048,5.4,18.094,8.658,29.028-2.2-2.435-2.988-3.724-4.129-4.477-2.042-1.347-4.3-2.37-6.462-3.529.386,1.931,1.3,3.93,1.064,5.779-.789,6.084,1,13.854-8.864,14.99C822.565-604.809,834.2-616.823,836.829-631.115Zm-11.683,51.92c1.376-1.77,2.423-3.123,4.553-5.866,5.552,11.229-.585,23.22,4.535,34.256,7.861-11.609.524-23.815,2.753-35.593,6.056,7.173,8.052,35.394,3.138,45.327L834.8-545.5l-9.049,4.369c-3.031-9.774,5.257-20.767-5.907-28.894-.426,1.956-1.271,3.466-.83,4.269,1.266,2.305,5.377,4.178.073,6.772-.381.186.522,4.84,1.923,6.482,4.236,4.972,1.346,8.806-1.667,12.331-1.1,1.289-4.195,2.117-5.65,1.483-1.268-.554-2.02-3.433-2.123-5.332-.756-14.038-1.289-28.09-1.9-42.377C818.293-588.912,823.225-587.066,825.146-579.195ZM754.525-349.064c-.893-2.451-.237-5.995,1.009-8.445.5-.99,4.284-.416,6.572-.375,6.434.119,12.881.109,19.294.57a151.82,151.82,0,0,1,18.7,2.354c1.765.353,3.086,2.944,4.609,4.51-1.838,1.689-3.568,4.672-5.532,4.835-7.107.59-14.292.232-21.449.232l0-.918c-5.5,0-11.019.26-16.491-.119C758.846-346.588,755.084-347.531,754.525-349.064Zm2.369,76.114c6.606-.892,13.561-1.183,20.149-2.886,7.936-2.05,10.9-.552,11.9,7.884C773.9-264.513,759.371-267.078,756.894-272.951Zm77.68,14.393-.391,2.917c-.385,2.866-.751,5.6-1.117,8.33l-2.586.375c-.878-2.118-1.759-4.236-2.784-6.709-.617-1.483-1.286-3.1-2.04-4.913h8.919Zm.481-45.841c2.609.09,5.186,1.086,8.173,1.75-.467-1.578-1.228-4.148-2.392-8.082l10.833,6.5c1.78,7.808,5.413,16.553-1.6,24.881L820.882-281.6l-.008-.55h15.578l.076-1.914L779.2-287.755l-.343,3,12.716,1.382q-.065.694-.129,1.384c-6.058,0-12.129.2-18.165-.179-1.1-.07-3.111-3.432-2.915-3.646,1.672-1.838,3.651-4.449,5.741-4.644,4.884-.456,9.878.461,14.832.534q13.02.189,26.073-.257-20.692-1.385-41.382-2.771.035-.582.07-1.167h64.86v6.164l1.348.474,4.183-8.849L775.533-299.3l-1.445-2.262c2.136-1.472,4.283-4.231,6.407-4.213C798.684-305.627,816.872-305.032,835.054-304.4Zm-44.225-73.357c20.148-1.631,43.633,1.712,48.058,8.11Zm51.4-102.539v28.89l-1.843-.482h0V-480.32l1.843.025Zm6.56,48.711v0c-1.573-3.363-3.437-6.645-4.425-10.172-.081-.292.8-.852,1.838-1.424.519-.285,1.077-.573,1.576-.834s.937-.491,1.213-.658c.249,1.178.482,2.289.7,3.348l1.813,8.612Zm1.732-27.879-2.281.134c1.845-13.665,4.044-27.425-8.619-37.177-10.124,3.777-15.073,19.026-7.588,25.9-.433-3.623-.835-6.983-1.238-10.342l2.748-.363c4.3,9.131-.025,19.488,2.171,28.982-2.77,1.384-5.549,2.773-7.218,3.608-4.162-2.96-7.747-5.509-11.821-8.4-1.434,2.953-1.939,5.392-3.432,6.694-1.662,1.45-4.225,1.87-6.4,2.738-.814-2.153-2.352-4.318-2.31-6.454.141-7.435,1.288-14.865,1.2-22.289-.131-11.632-.99-23.254-1.46-34.882-.142-3.512-.023-7.032-.023-10.549l2.71-1.792,10.067,7.362c-5.025,1.624-7.566,2.445-8.5,2.748,3.021,4.807,5.121,8.146,7.405,11.778,2.821-1.144,9.671-2.524,9.752-4.225.209-4.415-2.562-8.97-4.213-13.67,7.518-4.815,26.011-3.547,34.541,2.919-4.006,16.521-1.959,20.477,13.982,25.178C863.4-480.7,856.96-470.082,850.518-459.463Zm15.832-34.852c-2.247-.792-5.36-3.028-5.584-4.951-.713-6.139-.265-12.412-.265-18.208,1.12-.5,1.407-.758,1.616-.7,3.714.93,10.442,1.541,10.606,2.922.709,6.011-.214,12.295-1.228,18.367C871.294-495.688,867.679-493.846,866.349-494.315Zm73.588,142.861-1.853,1.193c-1.163-2.11-2.871-4.1-3.358-6.361a24.027,24.027,0,0,1-.216-9.03c.4-2.284,2.078-4.346,3.189-6.505,1.815,2.383,5.111,4.755,5.13,7.152C942.864-360.5,941.008-355.971,939.937-351.454Zm99.1-5.478h-33.669v-27.621c8.085,2.367,16.282,2.947,22.087,6.976s9.2,11.5,13.656,17.466Q1040.077-358.522,1039.041-356.932Zm-.048-18.036c-3.293-3.408-6.582-6.807-10.508-10.868.858-2.9-.741-9.555,7.546-7.508C1042.906-391.645,1043.464-388.231,1038.992-374.968Zm19.367,4.089c-.194.716-4.457.888-6.606.368-2.395-.582-4.53-2.242-7.914-4.036.353-2.479,1.17-6.479,1.432-10.513.322-4.964,2.364-7.178,7.39-5.622,2.977.923,8.455,2.049,8.437,3A69.938,69.938,0,0,1,1058.359-370.879Zm42.352,36.962c1.9,7.684-.033,10.433-5.02,9.769-1.629-.217-2.94-2.811-4.4-4.318C1094.125-330.105,1096.956-331.744,1100.711-333.917Zm-21.55,9.85-5.987-4.41c2.01-1.212,3.933-3.119,6.063-3.388,1.41-.177,3.117,1.994,4.694,3.114C1082.516-327.364,1081.1-325.975,1079.162-324.067Zm8.276-155.27a79.081,79.081,0,0,1,17.085,2.126c2.186.54,3.734,3.663,5.572,5.609l-1.951,1.856c-9.674-1.845-16.452,5.693-14.481,16.886l-9.219-4.735c-.723-4.939-.451-10.077-2.322-14.257C1079.172-478.446,1082.865-479.44,1087.437-479.337Z" transform="translate(151.941 6.882)"/>
      <path id="Path_1142" data-name="Path 1142" d="M586.7-107.082c-5.733,4.556-9.323,3.66-14.02-.308-11.605-9.807-24-18.679-35.857-28.2-.936-.752-.6-5.1-.189-5.209,3.255-.839,8.05-2.682,9.809-1.192,9.714,8.231,18.573,17.459,28,26.046C578.042-112.66,582.368-110.17,586.7-107.082Z" transform="translate(127.224 357.572)"/>
      <path id="Path_1143" data-name="Path 1143" d="M570.315-153.888c11.12,2.15,20.512,15.285,16.045,23.93C580.963-138.257,568.235-140.463,570.315-153.888Z" transform="translate(149.489 350.119)"/>
      <path id="Path_1144" data-name="Path 1144" d="M642.12-123.354l-30.734,17.64c1.923-10.288,5.763-15.054,14.872-14.4,2.357.171,4.855-2.254,7.359-3.321,2.4-1.023,4.886-1.83,7.336-2.731Q641.535-124.761,642.12-123.354Z" transform="translate(176.639 368.343)"/>
      <path id="Path_1145" data-name="Path 1145" d="M585.583-180.983l-20.57,2.446c.67-7.994-11.552-15.624-2.231-25.058,2.168,5.915,2.823,12.631,6.507,16.337C572.879-183.645,579.566-183.111,585.583-180.983Z" transform="translate(142.373 317.441)"/>
      <path id="Path_1146" data-name="Path 1146" d="M515.961-186.553a47.884,47.884,0,0,0,1.217,7.084c.789,2.438,2.42,4.608,3.189,7.049a15.1,15.1,0,0,1,.481,6.126c-.06.512-3.013,1.415-3.326,1.041A11.709,11.709,0,0,1,515-170.164c-1.087-5.246-1.85-10.561-2.738-15.848Q514.113-186.281,515.961-186.553Z" transform="translate(111.474 328.645)"/>
      <path id="Path_1147" data-name="Path 1147" d="M576.307-201.836l-8.89,8.43-2.872-7.419Z" transform="translate(145.845 318.597)"/>
      <path id="Path_1148" data-name="Path 1148" d="M831.747-558.789c-.119-.018-.234-.04-.351-.058.015.151.025.3.042.451Z" transform="translate(321.278 83.892)"/>
      <g id="Group_61" data-name="Group 61" transform="translate(342.699 -686.456)">
        <path id="Path_1149" data-name="Path 1149" d="M570.68-186.889v0h.017Z" transform="translate(-192.821 1014.88)"/>
        <path id="Path_1150" data-name="Path 1150" d="M570.69-186.886c.878.23.469,0,0,0Z" transform="translate(-192.814 1014.882)"/>
        <path id="Path_1151" data-name="Path 1151" d="M521.779-427.136Z" transform="translate(-224.969 856.917)"/>
        <path id="Path_1152" data-name="Path 1152" d="M589.265-126.65c9.149-5.915-6.141-9.117-9.717-10.312l.315,2.934C577.73-129.794,584.708-126.285,589.265-126.65Z" transform="translate(-187.044 1047.703)"/>
        <path id="Path_1153" data-name="Path 1153" d="M574.9-92.792a9.41,9.41,0,0,1,4.813,2.554l-1.279-1.374c-1.107-2.5,1.788-2,2.765-3.55C578.464-96.788,575.224-95.045,574.9-92.792Z" transform="translate(-190.049 1074.764)"/>
        <path id="Path_1154" data-name="Path 1154" d="M437.331-98.035c7.238.3,9.641-3.27,15.86-5.574-3.106,1.144-6.365.877-9.209,1.139C441.138-102.185,438.71-101.32,437.331-98.035Z" transform="translate(-280.486 1069.629)"/>
        <path id="Path_1155" data-name="Path 1155" d="M624.726-129.414l-7.417,2.4c2.534,2.644,6.268,1.452,8.564.051Z" transform="translate(-162.166 1052.665)"/>
        <path id="Path_1156" data-name="Path 1156" d="M599.041-123.848c7.672,3,17.128-1.152,24.836.587l5.489-3.166c-8.837-4.2-24.692-9.651-36.868-8.332C587.787-128.087,594.078-130.464,599.041-123.848Z" transform="translate(-179.57 1049.019)"/>
        <path id="Path_1157" data-name="Path 1157" d="M896.129,266.273c-3.5-4.039-7.389-8.309-11.431-12.262-2.032-2.024-4.084-3.908-6.214-5.948s-4.3-4.046-6.484-6.016c-.489.35-.913.686-.908,1.087-3.622.154-7.838-.922-12.225-1.649.042-2.037.1-4.076.136-6.113a24.669,24.669,0,0,0-1.119-8.045c-5.948-17.826-9.553-35.963-7.637-55.084,10.916,1.046,20.739-2.518,31.019-9.542-3.489-2.7-5.645-4.783-8.164-6.239-9.051-5.229-18.58-9.716-27.241-15.51-6.945-4.644-14.5-9.712-18.964-16.461-10.613-16.064-20.459-32.232-40.143-38.807-1.477-.494-3.172-4.212-2.73-5.894,1.875-7.135,4.777-14,6.787-21.1,1.278-4.515,4.207-7.989,8.04-5.312,11.141,7.775,21.546,16.606,32.9,25.544-2.872,2.307-4.755,3.207-5.63,4.7-.815,1.387-1.276,3.825-.572,5.03.731,1.251,3.573,2.65,4.584,2.15,13.191-6.529,19.019,3.258,25.262,11.4,7.807,10.186,28.582,9.131,34.115-2.344,1.343-2.781.772-6.678.418-9.991-.153-1.425-2.79-2.591-2.937-4.013-.679-6.587-.544-13.271-1.521-19.8-.209-1.394-4.957-3.741-5.725-3.157-6.048,4.588-11.754,1.787-15.772-1.793-15.059-13.418-33.563-23.5-42.524-42.1,2.324-3.489,5.077-6.369,6.338-9.8,2.057-5.594,5.726-7.831,11.312-7.525,3.573.2,7.129.87,10.7.936,7.994.146,15.994.045,23.991.045q0-1.907.007-3.815c-10.049-.245-20.1-.451-30.147-.766-2.271-.071-6.152.038-6.48-.907-.869-2.516-1.238-6.179.021-8.3,6.991-11.749,7.838-24.422,7.195-37.59-.782-16.027-4.455-31.564-18.45-40.333-12.424-7.785-26.824-12.636-40.729-17.759-8.851-3.26-10.7-5.567-7.672-15.034,1.275-3.978,2.01-8.128,2.765-11.26-8,.573-14.769.825-21.462,1.7-1.724.225-3.131,2.491-4.8,3.643a24.223,24.223,0,0,1-3.544,1.7c-.418-1.187-1.2-2.375-1.192-3.56.026-4.792,1.43-9.89.229-14.305a165.446,165.446,0,0,0-9.447-25.344c-2.765-6.025-6.843-11.444-10.337-17.134l-1.893,1.028c3.509,14.4,7.018,28.8,10.777,44.23l-6.234-.63q.318.945.635,1.888c-3.542,1.1-7.064,2.274-10.662,3.136-.275.066-1.081-2.075-2.05-4.011l7.021,1.091c-1.023-3.335-1.775-5.788-2.436-7.942-2.67.892-6.572,2.435-6.684,2.2-3.275-6.971-9.02-3.341-13.719-3.252-5.759.109-9.111-1.193-6.48-7.452-2.617-.166-5.289-.333-8.411-.529l6.089-11.711c-6.936-5.344-16.234,3.028-20.174-6.169-2.617-6.111-4.216-12.659-5.871-17.774-2.96.943-6.239,2.793-6.953,2.078a112.3,112.3,0,0,1-9.853-12.078c-3.373-4.478-5.627-10.667-10.046-13.337-18.1-10.942-32.527-26.018-47.427-40.5-10.424-10.13-19.939-21.243-29.295-32.393-3.235-3.855-4.767-9.141-7.077-13.773l1.914-.986,7.066,9.353c.341-.292.685-.582,1.028-.873q-.813-5.052-1.624-10.105c3.28,1.077,4.866,3.028,6.434,4.994,8.551,10.72,16.844,21.661,25.758,32.069,4.042,4.719,9.8,7.967,13.886,12.656,3.628,4.158,5.392,9.988,9.147,13.98,4.049,4.3,9.374,7.445,14.29,10.883,14.138,9.883,30.536,14.763,46.509,20.469,4.628,1.654,9.971-.229,9.144-5.793-.559-3.762-6.7-10.286-7.75-9.814-7.792,3.514-13.737-1.795-20.005-3.554-6.686-1.876-12.336-7.216-18.956-9.621-5.383-1.956-5.332-6.171-6.734-10.016-.752-2.063-1.265-4.213-1.908-6.394,1-.706,2.1-1.478,2.314-1.624-2.453-3.646-4.462-7.279-7.079-10.407-10.372-12.4-19.388-26.3-36.531-31.045-2.228-.617-3.209-5.741-4.767-8.778l3.181-2.755c7.612,4.45,14.758,10.506,22.97,12.893,8.113,2.358,14.8,11.4,24.926,6.464,1.018-.5,3.431.9,4.667,2.012,3.774,3.383,7.082,7.3,10.952,10.551,5.228,4.394,11.393,7.737,12.081,15.8.191,2.239,2.541,4.293,4.173,6.863,1.908-2.917,3.066-4.687,4.223-6.459,1.217.932,3.079,1.616,3.547,2.834,3.38,8.816,6.424,17.759,9.714,26.612.516,1.387,1.734,2.514,4.972,7.037,3.593-5.95,6.532-10.815,9.5-15.722l9.141,14.338c.08-4.7-1.783-8.431-2.619-12.376-.378-1.783.814-5.184,2.143-5.713,1.584-.628,4.765.424,6.031,1.841,2.347,2.624,3.59,6.2,5.68,9.1,4.14,5.743,2.857,10.313-2.02,14.95-4.823,4.584-9.129,9.714-13.662,14.612,5.168,3.244,10.337,6.477,16.234,10.168.587-.467,2.257-1.792,2.382-1.889,7.429,1.808,13.525,3.293,21.182,5.16-3.617,3.079-5.814,4.167-6.766,5.927-1.9,3.52,5.363,25.271,9.3,28.491,3.7-3.757,6.926-10.341,14-3.265l-5.645.91,21.137,14.221v-4.841l4.167.482c1.9-11.915.89-22.5-12.089-27.758,4.253-4.69,4.51-8.161-1.469-10.19-4.354-1.477-8.92-2.387-13.153-4.13-2.806-1.157-6.643-2.788-7.536-5.148-9.777-25.788-23.608-49.2-40.048-71.219-2.73-3.656-3.829-8.57-6.688-12.081-9.93-12.192-20.3-24.021-30.506-35.987l2.143-2.4,11.693,6c.91-5.413,1.613-9.59,2.521-14.985,2.36,2.833,3.943,4.735,5.527,6.636,1.435-7.6.93-14.779.477-21.966-.1-1.54-.655-3.65.113-4.555,9.146-10.786,1.818-20.915-.933-31.221q-1.651,4.689-3.3,9.376l-1.841-.4c-1.077-3.517-2.155-7.034-2.968-9.689,6.366-8.554,10.815-18.956,22.468-18.079-1.2-3.994-3.776-8.592-2.713-9.7,8.239-8.6,1.258-18.242,3.4-27.086-8.229,8.392-18.532,15.232-15.8,29.547-7.157-4.024-49.166-81.81-51.314-94.048,12.343-3.227,24.729-6.885,37.317-9.613,8.962-1.944,18.285-1.119,24.233,6.739,5.012,6.621,11.022,6.34,17.7,5.554,8.542-1.006,9.434-3.015,4.561-9.918-4.236-6-2.688-10.578,4.344-11.713,5.874-.948,11.847-1.333,17.792-1.749,6.205-.433,12.5-.149,18.614-1.089,2.9-.446,5.471-3.01,8.191-4.616-2.017-2.335-3.61-5.943-6.126-6.784A231.066,231.066,0,0,0,742-538.928c-6.507-1.256-13.375-.575-20.07-.966-1.493-.086-3.477-.6-4.311-1.649-3.3-4.155-6.229-8.6-9.442-13.148l36.117,1.7c-.915-12.086-1.777-23.472-2.559-33.8l-27.344-14.1c4.551,5.164,7.561,8.579,11.078,12.567-13.856,2.276-19.924-11.3-31.614-11.6l16.7,10.757a20.259,20.259,0,0,1-2.489,1.462c-2.98,1.112-8.257,1.722-8.564,3.312-1.028,5.334-.361,11.012-.1,16.546.026.549,1.75.968,2.632,1.533,3.25,2.085,6.479,4.207,10.881,7.074l-14.688,5.935c5.063,3.981,9.2,7.236,13.791,10.846-7.21,3.132-13.881,1.23-15.8-4.346-1.5-4.357-3.814-5.564-8.042-4.679a55.465,55.465,0,0,1-9.84,1.351c-11.483.3-22.973.476-34.456.34-1.2-.013-3.616-2.945-3.331-3.616,1.235-2.906,3.263-5.476,5.136-8.372-1.618-2.468-5.667-6.05-6.194-10.09-.716-5.479,1.265-11.312,2.324-18.618,13.3-.413,28.261,8.915,46.033,1.843l-23.991-11.642c.656,1.841,1.1,3.093,2.107,5.907l-9.245-4.6q.142-1.335.285-2.672l15.744-3.5c-1.286-1.4-2.6-4.008-3.837-3.974-9.853.259-20-3.021-29.257,4.236-5.1,4-11.909,5.839-16.093,7.788-4.362-4.037-7.026-6.361-9.507-8.869a20.621,20.621,0,0,1-2.354-3.635c1.359-.66,3.237-2.256,4-1.835,7.463,4.127,9.648.28,9.673-7.941L634.83-615c3.837-1.026,6.613-2.67,9.043-2.261,10.011,1.684,19.886,4.173,29.883,5.957,2.915.52,6.073-.323,10.705-.655-12.2-5.229-22.14-10.321-32.635-13.7-6.9-2.221-12.349-11.1-21.6-5.476-.847.515-5.41-3.142-6.517-5.632-.815-1.833,1.193-4.924,2.345-8.811,1.976,1.3,3.875,2.581,5.806,3.812,1.583,1.009,3.137,2.561,4.825,2.738,1.223.129,3.822-1.717,3.744-2.466-.2-1.934-1.084-4.369-2.546-5.464-2.339-1.752-5.337-2.65-8.108-3.786-3.52-1.44-7.09-2.756-10.641-4.127-2.882,1.575-6.638,2.789-8.695,1.432-4.392-2.9-1.449-5.61,1.3-8.517,3.008-3.181,5.08-7.246,7.83-11.327-4.579-4.55-17.961,2.953-15.15-10.738-4.714,1.218-8.924,3.714-12.364,2.912-8.305-1.939-13.889,1.7-19.276,6.771-6.222,5.861-6.915,5.71-9.82-2.305a17.33,17.33,0,0,0-1.762-3.131l7.264-4.192-1.338-2.488L537.286-674.5c1.545,2.438,2.594,4.09,4.12,6.5-2.687.507-4.689,1.54-6.24,1.074-13.791-4.149-20.734,6.018-26.7,14.469-10.571,14.968-17.388,31.915-17.166,50.821.24,20.366.91,40.733.877,61.1-.008,4.856-.716,10.724-3.452,14.358-6.341,8.421-5.657,14.156,4.2,18.754,3.714,1.734,9.853,2.243,10.939,4.914,3.51,8.647,8.443,6.078,13.713,3.142,12.572,25.141,3.109,46.989-8.872,68.478-.119.214-.958.026-1.86.026-.733-2.417-1.5-4.937-2.269-7.482l6.545-1.677c-2.566-3.461-4.434-6.706-7.016-9.217-1.757-1.707-4.511-2.385-6.82-3.524-.837,2.362-2.042,4.666-2.425,7.1-.554,3.505-.509,7.105-.719,10.665l-3.217-.157c-.26-3.1-.706-6.209-.747-9.316-.2-14.618-.083-29.247-.648-43.849-.081-2.085-3.273-4.049-5.025-6.069-1.591,1.989-3.832,3.761-4.588,6.028-.728,2.18.282,4.88.182,7.336-.3,7.42-.776,14.832-1.182,22.247l-2.657.1c-1.6-3.553-3.2-7.107-5.824-12.948-1.518,6.079-2.7,9.9-3.4,13.818-1.462,8.179-5.418,11.108-13.326,11.554-5.095.287-10.09,2.325-15.129,3.633-.023-.045-.051-.081-.073-.126-4.951-1.473-9.865-4.087-14.841-4.211-12.639-.317-25.307.482-37.963.834v28.178c3.812-.461,7.753-.484,11.39-1.546,2.214-.648,5.634-2.884,5.645-4.429.083-10.4,4.458-13.42,14.819-8.153-.648-3.416-1.046-5.506-1.467-7.722,13.4,2.453,13.248,2.556,13.549,16.115.065,2.924,2.841,5.693,3.64,8.725.711,2.708.414,5.682.091,8.552-3.023-11.042-3.055-11.483-15.6-10.616-10.732.742-21.381,2.653-32.068,4.047v9.945c6.31.244,12.734-1.033,15.223,8.163.607,2.244,9.255,3.345,14.045,2.96,2.213-.177,4.039-5.188,6.146-8.155.535,11.251,8.807,9.669,16.715,8.647,9.688-1.251,19.407-2.354,29.016-4.062,2.833-.5,5.337-2.849,8.108-4.417.23.164,1.076.515,1.049.779-1.089,10.816-13.109,20.154-23.467,18.457-3.239-.53-6.635-.23-9.807-.966-1.916-.444-3.7-1.969-5.252-3.338-1.666-1.47-2.886-4.654-4.487-4.785-7.1-.575-15.295-2.536-21.157.182-7.548,3.5-14.081,2.067-21.188,1.442-1.634-.144-3.295,0-4.944.012v53.042l44.465,4.313c-8.36,25.995-14.166,51.285-13.619,77.252.433,20.554,3.756,41.039,5.576,61.575a103.614,103.614,0,0,1,.335,18.048c-1.906,21.827,2.327,42.851,7.591,63.782,1.883,7.485,4,14.917,5.7,22.441,5.15,22.8,16.4,40.681,38.853,50.2,3.384,1.435,5.856,5.027,8.043,8.776-17.928-5.874-35.76-3.948-53.52-3.338-1.84.063-3.741-.733-5.566-1.291-12.228-3.742-15.076-3.018-18.7,8.919-3.5,11.549-5.438,23.608-7.44,35.547-.338,2.02,2.443,4.583,3.827,6.867,1.45,2.4,4.255,4.787,4.208,7.133-.219,11.063.222,22.443-7.284,31.912-.852,1.074-2.07,2.291-2.121,3.486a60.454,60.454,0,0,0,.648,8.13,46.537,46.537,0,0,0,6.656-3.418c1.187-.85,1.73-2.6,4.381-3.769.451,14.327.941,28.653,1.341,42.982.428,15.416.225,30.873,1.331,46.237.792,10.99,6.371,19.654,16.511,25.155,5.45,2.955,10,7.979,15.7,9.954,5.675,1.972,12.267,1.3,18.666,1.807,0,11.658-.063,23.923.061,36.186.022,2.14.091,5.08,1.4,6.283,7.7,7.082,10.064,16.065,11.811,25.261a80.4,80.4,0,0,0-17.371,4.757c-2.349-5.4-8.455-1.664-11.106-4.15,1.541-4.231-5.324-4.987-6.731-8.761-24.117,12.212-52.983,10.359-77.754,21.9-6.469,8.733-11.875,8.02-18.885,10.5,11.181,6.532,28.227,9.1,43.893,9.159,5.169-5.8,1.5-7.47-3.4-8.106-4.9-.615-11-.217-10.619-2.019-1.3-2.652,2.436-2.748,5.1-4.4,6.85.456,14.131,3.25,15.232,8.8l3.227-6.326c13.851-1.871,29.315,1.329,46.129.467-4.165,5.813-6.2,6.713-13.982,4.48-9.479,21.009,11.305-6.943,18.563,5.15-1.381-3.814,6.585-4.381,10.879-4.994l-4.223-3.406-5.171,4.18c-12.23-2.768-.472-11.428-.192-14.308,7.859-1.687,12.52,1.929,17.385,5.481,4.871,3.6,9.933,7.094,18.745,5.1.134-3.29-1.76-3.643-1.929-5.61H510.29a2.728,2.728,0,0,0,.194,1.066l4.666,2.987c2.463-.515,5.5.91,8.362,1.71s5.552,1.077,7.42-1.914l.315,3.4c3.381-1.952,7.975-2.569,12.194-3.444,3.708-.724,7.119-1.594,9.21-3.8h6.686a93.65,93.65,0,0,0,11.244.622c2.9-.028,5.816-.2,8.754-.454l5.065-.5.186.335h23.2c.4-.968.844-1.926,1.3-2.877a117.062,117.062,0,0,1,14.794-.157l4.057,5.924c7.7,2.136,10.109-.156,12.083-2.889h5.889q-.338-2.513-.675-5.025c.046-.018.083-.041.131-.058,1.351,1.265.461,4.034,1.052,5.8,7.208-1.614-1.863-4.16,1.109-6.166,7.084.661,16.66-1.384,20.373,4.879l3.984-10.952a45.707,45.707,0,0,1-5.965-12.722c-1.273-4.427-1.677-8.711-.64-12.041a20.829,20.829,0,0,0-12.064-6.645,29.717,29.717,0,0,0-6.361-.32c-2.15.157-4.322.491-6.514.852l-.116.02q-.6-4.453-1.2-8.905c-.214-1.6-.421-3.21-.63-4.84.443.007.9.02,1.376.05a17.528,17.528,0,0,0-1.51-1.105c-.645-5.083-1.3-10.44-2.093-16.77,2.133.625,6.116.9,9.006,2.823,5.9,3.916,14.04,1.949,19.156-5.458,7.966,4,7.966,4,11.7.252L660.24,192.27c3.769-2.32,6.86-4.225,11.1-6.837-.555,3.133-.857,4.835-1.319,7.439l12.666-5.314L674.284,182l9.915-2.582c.194,3.26.345,5.831.479,8.093,23.113-8.793,47.427-3.673,70.208-6.781-.371-6.941-.718-13.433-1.064-19.917,7.183,3.242,12.9-.383,13.765-6.6,1.553-11.226,6.393-23.315-2.838-33.778,8.572-7.564,10.588-15.825,6.253-25.126,6.374,4.079,9.23,9.5,11.294,20.82l-11.776,3.224-.8,2.337c10.384,2.992,11.564,17.905,25.015,17.1,1.256-.076,3.012,1.2,3.857,2.342,8.395,11.376,15.5,23.384,16.715,38.439-5.146-22.615-23.131-32.562-40.055-43.552l-2.953.847q1.581,31.812,3.162,63.625l2.992.184c8.151-9.419,7.866-21.021,7.027-33.105L791,165.347l-11.131-9.127,1.626-2.69c3.3,3.515,6.253,9.616,11.208.482q.9.721,1.8,1.444c2.692,11.7,5.383,23.409,8.355,36.329,1.511-6.355,2.97-12.492,4.6-19.352,2.652,9.058,5.567,17.995,7.828,27.1,1.482,5.965,1.777,12.215,3.036,18.248a169,169,0,0,0,4.9,18.593c.552,1.669,3.071,2.687,4.687,4,.545-2.214,1.233-4.407,1.563-6.651.129-.88-.547-1.876-1.323-4.24l7.369,5.2c-2.594-6.5-4.3-11.065-6.225-15.532-2.364-5.478-1.028-8.834,6.323-10.435v16.263c8.017-7.576-.64-19.193,8.955-27.15,8.347,14.076,10.075,28.567,9.944,43.121a31.32,31.32,0,0,0-7.773.21,20.506,20.506,0,0,0-8.662,3.762c4.687,1.986,4.569,4.246,12.1,6.413-3.257,4.634-6.252,4.023-9.209,2.211-1.484-.915-2.957-2.1-4.495-3.136a10.553,10.553,0,0,0-4.886-2.08c5.426,2.775-2.509,6.031-7.526,6.142a75.409,75.409,0,0,0-16.844-4.15c-6.474-1.152-13.389-1.866-19.849-2.922-6.156,2.547-23.293-6.626-22.531,3.26-8.043-.754-7.705-8.216-13.157-11.448-9.888,3.781-16.732-2.9-23.93-9.282-3.613-3.187-7.258-6.338-11.443-8.05a17.394,17.394,0,0,0-14.337.433c2.252-5.418-7.732-6.273-11.483-7.377-4.11-.931-11.309-2.158-16.98-1.88-5.695.282-9.974,2.423-8.456,7.944,2.408,3.887,6.837,3.428,11.695,3.031,4.861-.423,10.14-.761,13.834,3.524,6.437,6.936,2.354,7.357-3.5,7.241-5.846-.148-13.636-.564-14.444,4.163,2.234-1.308,2.315,5.92,7.84,5.393-5.678,1.26-4.666,3.923-3,6.847,1.808,3.142,4.351,6.611.416,8.98,14.468,8.317,13,8.072,18.533,21.576,9.515-.234,8.559-9,12.078-13.042,10.8-2.811,16.38,9.635,25.448,8.9-4.724,6.671-1.734,10.208,3.737,12.3,5.518,2.093,13.432,2.768,18.629,3.621,13.147,3.32,6.976-12,20.781-8.113,5.728,8.358-16.09,6.661-8.242,15.933l7.112-1.752c5.226-4.918,9.873-11.655,15.55-14.885,2.967.416,7.414,1.042,7.16,3.3-6.2,1.42-5.406,7.259.262,11.5,3.277-1.875,4.089-2.359,5.831-4.432-4.8-8.864-1.565-8.612,4.036-7.15a58.86,58.86,0,0,0,9.58,2.083c3.356.273,6.611-.131,9.006-2.188,6.552-2.453,10.475-2.677,13.132-1.352,2.655,1.3,4.047,4,5.441,6.892,1.387,2.917,2.79,5.96,5.479,7.932s6.666,2.949,13.08,1.493c-1.83-3.537-1.641-5.763-.28-7.12,1.372-1.4,3.943-2,6.989-2.329,3.048-.351,6.573-.325,9.852-.733,3.28-.446,6.3-1.129,8.267-2.529,6.872.222,9.572,3.794,14.869,7.782,1.818-1.687,7.158-2.934,7.664-5.7C908.914,283.038,903.136,274.4,896.129,266.273Zm-141.671-445.5,13.825,4.155q-.6,2.006-1.21,4.014l-13.642-4.626Q753.945-177.452,754.458-179.225Zm-27.344-29.333,15.6,6.534C735.561-197.569,732.943-198.625,727.114-208.558ZM438.622-442.541h19.7C451.432-434.257,442.557-435.276,438.622-442.541ZM740.2,79.13c-2.08,6.171-3.771,11.189-5.463,16.21q-1.091.373-2.183.744c-1.54-4.906-3.079-9.814-4.969-15.83Zm1.432,21.389c2.5,1.661,4.255,5.1,5.3,8.15,1.382,4.047,1.792,8.428,2.736,13.259-2.533,1.717-6.452,4.376-11.451,7.763l-7.826-23.355a34.245,34.245,0,0,1,3.834-2.582C736.707,102.436,740.408,99.7,741.636,100.519ZM574.865-219.693c11.464-.8,15.745,7.523,20.5,15.687,2.725,4.677,6.5,8.743,9.572,12.785l-6.582,3.075-.046,2.975c4.6,1.276,9.727,1.659,13.684,4.013a182.154,182.154,0,0,1,23.482,16.412c8.174,6.807,15.663,14.464,23.2,22.006,5.784,5.793,11.358,11.826,16.617,18.092,1.392,1.661.87,4.8,1.972,6.868,1.135,2.128,3.181,3.771,4.828,5.625l1.933-.984c.307,2.659.612,5.317.678,5.9,4.468,2.771,7.836,4.447,10.715,6.739a133.97,133.97,0,0,1,13.221,11.834c.943.98,0,3.771-.07,5.728-1.813-.537-3.817-.756-5.39-1.7-1.848-1.105-3.152-3.674-5.01-4.054-1.672-.34-3.739,1.25-5.65,2.07l.048-.109c-11.2,7.959-20.153,5.663-25.514-6.5C661.536-89.342,656-85.437,649.28-80.7c-.809-4.956-1.467-8.987-2.191-13.422-4.984,1.594-8.383-.7-11.31-6.24-2.153-4.077-7.535-6.373-10.034-10.365-2.564-4.1-2.934-9.51-5.107-13.934-1.467-2.983-4.4-5.247-7.951-9.286.84-7.99-1.952-13.853-9.822-16.72.143-2.319.29-4.735.328-5.382-5.435-6.812-9.875-12.514-14.464-18.091-4.19-5.095-8.217-5.16-11.965.431-.809-2.367-1.429-4.177-1.78-5.206l12.5-5.493c-7.724-14.8-14.585-27.949-21.931-42.025C575.187-226.815,576.28-225.784,574.865-219.693ZM692.439-86.438q3.543,4.276,7.1,8.569c-.875,2.793-2.034,6.494-3.665,11.7-2.47-3.736-5.06-7.652-7.324-11.08C690.032-80.753,691.241-83.605,692.439-86.438ZM565.867,214.2l-.01-.02c10.679-1.969,16.385.925,18.011,8.448-3.683-4.777-11.764-6.094-16.5-7.513.138.777,0,1.773.4,2.049a5.757,5.757,0,0,0,.207,1.225c-.618-1.23-1.233-2.451-1.856-3.688.385.141.8.278,1.251.414C567.251,214.443,566.923,213.937,565.867,214.2Zm24.377,24.921c-1.018-.091-2.032-.154-3.035-.149-.164-3.021-.317-6.6-.5-10.9ZM584.339,226.5c0,.091.015.172.018.262.113,3.573.534,7.137.859,10.7.05.537.113,1.072.164,1.611a19.737,19.737,0,0,0-3.06.449c1.142.963,2.274,1.964,3.406,2.965.152,1.455.295,2.914.444,4.369l-3.273,1.178q-2.121-4.211-4.243-8.426c-.018-.182-.03-.355-.07-.567a5.321,5.321,0,0,0-.411-.389q-4.55-9.042-9.175-18.228C571.986,224.536,579.711,226.557,584.339,226.5Zm3.214,17.6c1.038.928,2.077,1.858,3.108,2.773a11.146,11.146,0,0,1-2.645,1.314C587.834,247.014,587.685,245.659,587.552,244.1Zm16.433-26.648c5.365.781,12.633,5.539,10.346,10.455,3.467.482,5.824.192,7.568-.545q.569,2.434,1.139,4.861a26.314,26.314,0,0,1-10.218-3.229,18.271,18.271,0,0,0-6.028-1.76C605.859,224.023,604.929,220.769,603.986,217.448Zm11.725-3.742a73.79,73.79,0,0,1-12.56.8c-.663-2.335-1.333-4.7-2.025-7.112l16.059-.827C616.629,209.253,616.155,211.554,615.71,213.705ZM587.32,73l-.234-2.431,9.837-.948c.466-2.4,1.049-5.421,1.634-8.438C604.19,76.266,604,76.421,587.32,73Zm11.991-31.58c-2.244-2.375-5.368-4.425-6.418-7.245-.665-1.79,1.757-4.729,3.368-8.493,4.349,3.751,7.254,6.258,10.16,8.766Zm-23.776-185.49,1.807-1.054c3.847,6.789,7.432,13.742,11.592,20.331,10.42,16.5,21.429,32.646,31.5,49.355,3.549,5.887,5.06,13,6.091,20.222C612.974-86.912,585.149-110.265,575.536-144.075Zm-13.778,80.9c1.429-9.744,1.349-19.718,1.8-29.595.318-6.966,3.938-10.813,11.038-12.719-2.6,7.6-7.074,14.532-6.928,21.366C568.285-55.11,559.927-27.5,556.158.792c-.343,2.566.381,6.308,2.1,7.931,6.292,5.944,2.11,9.053-4.293,14.335-1.5-6.036-4.185-10.919-3.555-15.331C553.784-15.965,558.283-39.493,561.758-63.173Zm-17.464,299.79c2.133,1.856,4.391,4.652,7.223,3.529-.534-.559-1.044-1.129-1.546-1.7a7.85,7.85,0,0,0,4.026-.28c.94,2.8-2.723,3.537-3.331,5.274-1.633.06-3.419.278-5.252.476-2.165-1.7-5.365-2.831-7.927-4.449,2.2-5.07,4.1-4.911,6.066-3.449-.036.134-.088.239-.119.386C543.742,236.465,544.009,236.544,544.294,236.617ZM530.469-193.461c11.686,1.752,21.3,5.819,24.168,17.835.6,2.523-.728,5.508-1.263,8.875Zm27.268-194.027c-2.957,3.341-5.556,6.282-8.627,9.756-6.026-4.651-12.651-9.61-19.029-14.867-.829-.683-1.062-3.7-.4-4.26,1.671-1.425,4.265-3.2,6.025-2.8,3.923.893,7.612,2.925,11.309,4.681,6.958,3.3,13.853,6.742,20.842,10.158-.751,2.123-1.636,4.626-2.962,8.38C562.5-380.132,560.653-382.986,557.737-387.488Zm11.493,72.979c-.777-6.487-1.47-11.8-2.042-17.131-.975-9.109,8.484-4.3,12.189-7.843C576.229-331.739,573.083-323.994,569.23-314.509Zm120.207,23.617c-6.192-3.076-12.578-5.833-18.47-9.4-2.03-1.231-2.854-4.482-4.183-6.835-.728-1.288-1.094-2.894-2.087-3.9-3.6-3.663-7.405-7.135-11.327-10.863l-4.667,4.468,36.2,43.038-12.021,10.982c-.812-2.677-1.642-5.2-2.342-7.753-4.7-17.211-16.055-27.563-32.862-32.805-4.054-1.263-7.538-4.354-13.029-7.654l-33.621-1.818c0,.716-.106-.525.03-1.74.139-1.255.514-2.483,1.033-4.85l-5.9,2.513c-.264-.484-.844-1.263-.746-1.359,2.337-2.329,4.391-5.4,7.235-6.636,3.285-1.429,7.279-1.227,10.967-1.734q.01-1.33.018-2.662l-7.031-2.826c4.73-18.689-2.015-33.385-15.765-45.975-.514,1.7-.915,3.026-1.316,4.352-1.457-1.026-4.122-1.982-4.185-3.088-.666-11.541-11.662-13.15-18.127-18.9-5.047-4.49-11.322-7.6-18.034-11.963l8.995-2.075c-.222-2.592-.416-4.869-.86-10.036,10.546,8.4,20.063,14.516,27.71,22.438,9.906,10.263,16.871,23.774,27.792,32.53,10.556,8.464,17.673,18.987,26.225,28.735,3.724,4.246,8.614,10.482,16.871,6.5,1.616-.779,5.4,1.314,7.313,3.048C665.927-315.675,678.357-303.924,689.437-290.892Zm-55.051-99,1.308-3.317,13.713,4.533c-1.346,2.4-2.2,6.308-4.125,6.943C638.175-379.391,635.845-384.393,634.386-389.888Zm55.653-1.222c-3.568,6.587-7.46,13.77-11.345,20.943-10.71-3.739-5.425-12.5-7.014-17.723C678.565-389.1,684.951-390.216,690.039-391.109Zm-11.1,41.928c1.45,8.483,2.655,15.523,3.86,22.566l-2.667.822c-3.922-5.093-7.841-10.187-12.353-16.045Zm-25.6-71.781c-4.865-4.659-9.6-9.568-14.789-13.934-1.56-1.311-5.342-2.244-6.419-1.341-1.666,1.4-2.624,4.538-2.586,6.918.149,9.354,1.454,18.727,1.071,28.04-.308,7.452-3.159,7.909-9.3,4.195-14.151-8.559-28.658-16.529-43-24.785-10.987-6.326-22.329-12.162-32.678-19.41-3.388-2.372-4.145-8.5-6.106-12.908,5.658-.708,11.332-1.989,16.969-1.848,2.363.06,4.651,3.134,7.792,5.441.767-4.225.794-7.279,1.894-9.88,3.111-7.346,8.471-10.361,16.882-9.726,11.136.84,21.633,1.694,30.724,9.678,4.352,3.822,10.727,5.479,16.355,7.689C644.486-447.21,652.866-435.843,653.342-420.963Zm-35.805-66.915c9.437-.764,14.486,5.393,18.841,22.995l-26.5-2.324q-.53-1.042-1.059-2.082C614.9-474.247,622.461-478.571,617.537-487.878Zm26.343-40-18.185-4.342q-.112-1.44-.22-2.881l11.743-7.334C639.067-538.394,640.916-534.352,643.88-527.879Zm-43.769-83.436c.444-1.831,3.187-3.108,4.886-4.636,1.006,1.767,2.36,3.427,2.942,5.325.935,3.045,1.359,6.245,2.292,10.818l-11.541,3.5C599.2-602.641,599.095-607.114,600.111-611.315Zm18.979,17.789c1.629-.494,4.447,2.935,6.714,4.55q-.706,1.417-1.41,2.831c-12.5,2.092-25.009,8.353-39.456-.62C596-596.833,608.544-590.331,619.09-593.526Zm-52.331-9.711c-2.94,1.677-5.354,3.805-6.078,3.335-3.03-1.969-5.554-4.717-8.264-7.182l1.58-2C557.535-607.462,561.074-605.841,566.759-603.237Zm-3.572-51.113-13,.984-.244-2.552C554.361-656.425,558.142-662.38,563.187-654.35ZM551.51-541.943c15.91,6.1,31.887,2.536,47.072-1.609,10.079-2.751,15.732,1.339,22.11,7.936l-25.572-3.045-.638,3.179q10.168,3.317,20.346,6.633c-2.317,9.439-13.9,9.948-34.715.789-.844,5.851-3.646,7.041-9.028,4.357-4.056-2.024-7.735-7.737-13.4-2.889q-1.977-4.134-3.951-8.269l2.173-1.4-9.5-4.737C549.349-541.581,550.629-542.281,551.51-541.943Zm-33.52,17.01c-2.857-.189-6.308.525-8.393-.842-1.8-1.178-2.037-4.73-2.965-7.231l2.332-1.284q4.721,3.281,9.442,6.565Q518.2-526.331,517.991-524.932Zm4.593-3.573,10.967-1.792c.249-2.214.557-4.942.981-8.7l10.786,13.922C539.854-520.963,532.907-521.173,522.583-528.506ZM494.406,72.177c-3.691,6.946-6.862,12.92-10.324,19.438C479.322,81.515,482.237,75.8,494.406,72.177Zm-38.039-12.19c-2.533-3.421-6.437-6.386-6.688-9.635-.3-3.805-.91-10.266,6.02-10.558,6.363-.269,13.228-5.145,17.761,5.469,7.631,17.874,6.9,15.033-10.221,27.054-2.846,2-6.045,3.492-10.249,5.885C452.039,70.357,447.847,63.535,456.366,59.986Zm6.945,97.469c2.219,7.714-1.75,12.492-9.265,12.119,0-9.661-.537-19.276.2-28.791.438-5.629,2.891-11.1,4.437-16.644l1.692.582,8.075,22.049c6.119-5.116,4.954-11.14-1.488-25.506-3.57-7.962-5.073-16.851-7.889-26.643L477.457,81.18c.786,9.6,1.42,17.361,2.032,24.83l3.429-2.7c0,5.236-.1,9.169.028,13.094.141,4.3,1.1,8.658.6,12.855-.554,4.576-2.256,9.04-3.726,13.462-.593,1.79-2.39,3.244-2.75,5.03-.426,2.107.111,4.409.23,6.626l5.354-2.715c.936,4.2,2.062,9.252,3.323,14.913-3.189,2.135-5.174,5.753-8.176-1.76C476.05,160.434,472,152.086,463.311,157.456Zm101.777,85.307a25.515,25.515,0,0,0-8.672-1.875l3.451-4.14c-5.131-.191-11.076-4.656-14.318-3.376a21.846,21.846,0,0,0-4.437-3.809c-2.829-1.74-4.685-3.3-4.831-5.171l3.119-.22-1.1-3.89c.172-.182.34-.363.535-.55l-.868-.633-.771-2.728-2.395.423-.976-.711c1.4-1.676,2.468-4.114,4.256-4.889,5.882-2.551,13.427,1.344,16.849,8.045q3.953,7.742,8.161,15.356,2.628,4.756,5.272,9.5C567.271,243.632,566.177,243.177,565.088,242.763Zm46.426-.819a.956.956,0,0,1-.368-.441q-.644-1.986-1.265-3.984c3.345.123,6.815.277,9.588,1.329A13.416,13.416,0,0,1,611.514,241.944ZM735.933,146.5c-.161-1.53-1.871-4.21-2.582-4.117-1.936.252-4.808,1.323-5.315,2.77-.885,2.519.835,7.147-4.071,5.383-1.778-.64-2.11-5.3-3.406-8.993l-.066,0c-16.723.958-22.178-4.236-21.626-21.29.186-5.761,1.483-11.478,2.049-17.237a20,20,0,0,0-1.122-9c-7.253,9.984-20.235,15.255-20.446,30.024,3.6-5.111,7.2-10.225,11.176-15.86-1.062,12.959-2.042,24.933-3.023,36.906l2.349,1.323q3.438-6.936,6.88-13.871l2.591.108c.414,5.486,1.251,10.98,1.13,16.455-.129,5.842,1.946,9.066,7.729,10.705,6.727,1.908,13.2,4.7,19.791,7.105l-.782,2.884c-8.039-2.156-16.075-4.314-24.177-6.489-6.252,8.725-16.171,15.692-25.249,12.969-7.952-2.383-14.469-.744-21.409-.315-11.57.716-23.025,3.176-34.585,4.339-2.261.227-4.78-2.1-7.18-3.249l5.622-4.311c-3.61-5.062-3.61-5.062,1.347-19.332l-6.371.479c.254-3.641.514-7.013.719-10.389.57-9.358.565-9.335-8.9-7.551-.676.128-1.483-.438-5-1.588l11.058-5.867c5.489-6.805,7.011-7.546,15.891-4.581,1.223-2.542,2.48-5.155,4.18-8.687,1.235,2.963,2.2,5.289,4.021,9.649,2.65-5.421,4.566-9.345,6.716-13.743a24.726,24.726,0,0,0,2.556-.017c1.467-.133,2.924-.381,4.385-.58-.995-1.018-1.827-2.637-3.007-2.955-6.524-1.75-11.517-4.424-9.535-12.545l-.028,0c1.56-2.619,3.971-5.115,4.3-7.856,1.069-9.031-1.049-10.888-10.46-11.171-7.293-.219-14.579-.638-22.3-.988-1.347-7.929-2.673-15.737-4.437-26.124,2.413-5.576,10.261-13.418,2.176-23.338,7.99-.9,9.114-.023,8.738,7.672a30.258,30.258,0,0,1-1.6,8.836c-2.536,6.926-2.541,16.715.626,25.221,5.967-1.87,6.49-6.679,6.154-11.614-.38-5.564-1.279-11.091-1.952-16.635l2.7-.907c8.643,6.394,16.511,14.653,26.147,18.664,9.926,4.132,21.833,3.323,32.855,11.052l-34.551,6.109c.3,2.458.7,5.726,1.235,10.157,4.581-2.6,7.579-8.605,10.785-.709,1.232-2.453,2.03-4.042,2.829-5.632q1.139.129,2.276.257c3.371,9.749-.529,19.213-1.785,30.714,5.678-3.7,11.481-7.236,16.99-11.176a68.038,68.038,0,0,0,9.991-8.645c7.022-7.477,15.361-2.672,22.866-1.961,1.812.171,2.975,7.793,4.326,12.026.94,2.949.8,7.661,2.683,8.64,7.387,3.85,7,11.3,9.766,17.347a67.476,67.476,0,0,0,8.784,14.691c1.677,2.047,5.612,2.244,8.524,3.278v-9.873c1.717,2.108,3.9,3.6,4.266,5.451,1.429,7.269,2.3,14.648,3.368,21.989l-20.525.931c.2-.514.975-2.533,1.752-4.55l1.289.749A107.057,107.057,0,0,0,735.933,146.5ZM605.952,97.567c.278-5.178,2.027-10.276,3.172-15.407q.641-.162,1.284-.32c.9,6.572,1.986,13.13,2.546,19.732.1,1.14-2.025,2.468-3.123,3.709C608.451,102.7,605.816,100.061,605.952,97.567ZM625.065,100a43.913,43.913,0,0,1-2.243,6.543l-2.489-.433c-.487-6.674-1.3-13.354-1.205-20.02.022-1.472,3.094-3.615,5.115-4.172,3.094-.854,6.5-.6,10.09-.835,1.268,4.79,2.488,9.391,3.722,13.969-1.924.2-3.9.706-5.745.4-2.407-.393-4.694-1.5-7.032-2.305A42.771,42.771,0,0,1,625.065,100Zm133.977-4.281c-5.668-1.462-5.287-7.583,1.061-14.29-1.608-.975-3.055-1.853-4.5-2.733-1.019,1.714-2,3.454-3.07,5.135-1.366,2.14-2.4,5.219-4.351,6.011-1.379.562-4.027-1.992-7.909-4.162l7.051-2.2c-3.917-7.98,4.183-10.419,7.735-18.346L770.117,94.52C766.379,95.1,762.407,96.587,759.042,95.719Zm13.83-20.408,6.2-22.738,3.34.945C782.1,61.685,781.807,69.858,772.872,75.311Zm65.717,101.694c-2.057,6.684-2.335,13.916-3.422,20.9-2.143-8.222-2.526-8.585-10.071-7.576-.129-27-5.673-52.867-19-76.969l3.643-1.394c1.614,2.506,3.429,4.908,4.8,7.538,3.683,7.037,7.119,14.2,10.793,21.245a13.589,13.589,0,0,0,3.5,4.508C842.1,155.382,843.527,160.941,838.588,177.005Z" transform="translate(-342.699 686.456)"/>
      </g>
    </g>
  </g>
</svg>
