<svg xmlns="http://www.w3.org/2000/svg" width="257.364" height="229.572" viewBox="0 0 257.364 229.572">
  <g id="Group_60" data-name="Group 60" transform="translate(1240.971 2705.267)" opacity="0.45">
    <path id="Path_1097" data-name="Path 1097" d="M-1129.809-2687.143q-66.059,42.29-66.053,101.9,0,18.53,6.445,18.527l4.43-1.209a25.03,25.03,0,0,1,8.458-2.013,41.251,41.251,0,0,1,31.616,13.757q12.687,13.754,12.687,33.97a44.643,44.643,0,0,1-13.693,32.97,45.244,45.244,0,0,1-33.027,13.548q-26.988,0-44.505-22.189t-17.52-55.682q0-37.919,14.9-69.394t45.512-56.889q30.6-25.411,39.068-25.418,5.635,0,9.263,5.437t3.625,9.464Zm144.994,0q-66.06,42.29-66.053,101.9,0,18.53,6.444,18.527l4.43-1.209a25.04,25.04,0,0,1,8.458-2.013q18.522,0,31.415,13.757t12.889,33.97a44.643,44.643,0,0,1-13.694,32.97,45.242,45.242,0,0,1-33.026,13.548q-26.988,0-44.505-22.189t-17.521-55.682q0-38.325,15.1-70t45.512-56.688q30.405-25.016,38.866-25.015,5.635,0,9.264,5.437t3.625,9.464Z" fill="#fff"/>
  </g>
</svg>
