<svg xmlns="http://www.w3.org/2000/svg" viewBox="0 0 28.06 22.81"><defs><style>.cls-1{fill:#fff;}</style></defs><g id="Layer_2" data-name="Layer 2"><g id="Layer_1-2" data-name="Layer 1"><path id="Path_1008" data-name="Path 1008" class="cls-1" d="M28.06,2.7a11.15,11.15,0,0,1-3.3.9A5.79,5.79,0,0,0,27.29.42a11.71,11.71,0,0,1-3.66,1.4,5.76,5.76,0,0,0-10,3.94,5.79,5.79,0,0,0,.15,1.31A16.35,16.35,0,0,1,2,1.05,5.76,5.76,0,0,0,3.74,8.74,5.71,5.71,0,0,1,1.13,8v.07a5.77,5.77,0,0,0,4.62,5.65,6,6,0,0,1-1.52.2,5.64,5.64,0,0,1-1.08-.1,5.77,5.77,0,0,0,5.38,4A11.53,11.53,0,0,1,1.37,20.3,12.59,12.59,0,0,1,0,20.22a16.35,16.35,0,0,0,8.83,2.59c10.59,0,16.38-8.78,16.38-16.38,0-.26,0-.5,0-.75A11.75,11.75,0,0,0,28.06,2.7Z"/></g></g></svg>